SplineFontDB: 3.0
FontName: Anton
FullName: Anton
FamilyName: Anton
Weight: Regular
Copyright: Copyright (c) 2011 by vernon adams. All rights reserved.
Version: 1.000
FONDName: Anton
ItalicAngle: 0
UnderlinePosition: -205
UnderlineWidth: 102
Ascent: 1638
Descent: 410
LayerCount: 2
Layer: 0 1 "Back"  1
Layer: 1 1 "Fore"  0
NeedsXUIDChange: 1
FSType: 4
OS2Version: 0
OS2_WeightWidthSlopeOnly: 0
OS2_UseTypoMetrics: 0
CreationTime: 1297344952
ModificationTime: 1297347750
PfmFamily: 17
TTFWeight: 400
TTFWidth: 1
LineGap: 0
VLineGap: 0
OS2TypoAscent: 3724
OS2TypoAOffset: 0
OS2TypoDescent: -1305
OS2TypoDOffset: 0
OS2TypoLinegap: 0
OS2WinAscent: 4172
OS2WinAOffset: 0
OS2WinDescent: 1305
OS2WinDOffset: 0
HheadAscent: 4172
HheadAOffset: 0
HheadDescent: -1305
HheadDOffset: 0
OS2SubXSize: 1434
OS2SubYSize: 1331
OS2SubXOff: 0
OS2SubYOff: 287
OS2SupXSize: 1434
OS2SupYSize: 1331
OS2SupXOff: 0
OS2SupYOff: 977
OS2StrikeYSize: 102
OS2StrikeYPos: 512
OS2Vendor: 'newt'
MarkAttachClasses: 1
DEI: 91125
TtTable: prep
PUSHW_1
 511
SCANCTRL
PUSHB_1
 1
SCANTYPE
SVTCA[y-axis]
MPPEM
PUSHB_1
 8
LT
IF
PUSHB_2
 1
 1
INSTCTRL
EIF
PUSHB_2
 70
 6
CALL
IF
POP
PUSHB_1
 16
EIF
MPPEM
PUSHB_1
 20
GT
IF
POP
PUSHB_1
 128
EIF
SCVTCI
PUSHB_1
 6
CALL
NOT
IF
SVTCA[y-axis]
PUSHB_1
 6
DUP
RCVT
PUSHB_1
 3
CALL
WCVTP
PUSHB_1
 10
DUP
RCVT
PUSHB_3
 6
 114
 2
CALL
PUSHB_1
 3
CALL
WCVTP
PUSHB_1
 9
DUP
RCVT
PUSHB_3
 10
 33
 2
CALL
PUSHB_1
 3
CALL
WCVTP
PUSHB_1
 8
DUP
RCVT
PUSHB_3
 9
 230
 2
CALL
PUSHB_1
 3
CALL
WCVTP
PUSHB_1
 7
DUP
RCVT
PUSHB_3
 8
 11
 2
CALL
PUSHB_1
 3
CALL
WCVTP
PUSHB_1
 11
DUP
RCVT
PUSHB_3
 6
 40
 2
CALL
PUSHB_1
 3
CALL
WCVTP
SVTCA[x-axis]
PUSHB_1
 12
DUP
RCVT
PUSHB_1
 3
CALL
WCVTP
PUSHB_1
 18
DUP
RCVT
PUSHB_3
 12
 149
 2
CALL
PUSHB_2
 3
 70
SROUND
CALL
WCVTP
PUSHB_1
 17
DUP
RCVT
PUSHB_3
 18
 87
 2
CALL
PUSHB_2
 3
 70
SROUND
CALL
WCVTP
PUSHB_1
 16
DUP
RCVT
PUSHB_3
 17
 76
 2
CALL
PUSHB_2
 3
 70
SROUND
CALL
WCVTP
PUSHB_1
 15
DUP
RCVT
PUSHB_3
 16
 59
 2
CALL
PUSHB_2
 3
 70
SROUND
CALL
WCVTP
PUSHB_1

StartChar: A
Encoding: 38 65 2
Width: 1051
VWidth: 0
Flags: W
HStem: 0 21G<70 413.833 634.917 977> 1573 20G<247.74 803.21>
DStem2: 70 0 412 0 0.11228 0.993677<38.3997 279.352 570.325 887.654> 977 0 585 530 0.109815 -0.993952<-1117.27 -569.842 -278.631 -37.3372>
LayerCount: 2
Fore
SplineSet
801 1593 m 1,0,-1
 977 0 l 1,1,-1
 637 0 l 1,2,-1
 612 240 l 1,3,-1
 434 240 l 1,4,-1
 412 0 l 1,5,-1
 70 0 l 1,6,-1
 250 1593 l 1,7,-1
 801 1593 l 1,0,-1
538 1294 m 1,8,-1
 506 1294 l 1,9,-1
 459 530 l 1,10,-1
 585 530 l 1,11,-1
 538 1294 l 1,8,-1
EndSplineSet
EndChar

StartChar: AE
Encoding: 137 198 3
Width: 1361
VWidth: 0
Flags: W
HStem: 0 311<987 1296> 240 290<466 624> 674 299<987 1259> 1284 309<596 624 987 1273>
VStem: 624 363<530 674 973 1284>
DStem2: 40 0 381 0 0.197536 0.980296<67.3598 310.335 603.707 905.053> 361 1593 596 1294 0.197536 0.980296<-1021.31 -246.687>
LayerCount: 2
Fore
SplineSet
629 0 m 1,0,-1
 628 120 l 1,1,-1
 628 240 l 1,2,-1
 420 240 l 1,3,-1
 381 0 l 1,4,-1
 40 0 l 1,5,-1
 361 1593 l 1,6,-1
 1273 1593 l 1,7,-1
 1273 1284 l 1,8,-1
 987 1284 l 1,9,-1
 987 973 l 1,10,-1
 1259 973 l 1,11,-1
 1259 674 l 1,12,-1
 987 674 l 1,13,-1
 987 311 l 1,14,-1
 1296 311 l 1,15,-1
 1296 0 l 1,16,-1
 629 0 l 1,0,-1
624 1294 m 1,17,-1
 596 1294 l 1,18,-1
 466 530 l 1,19,-1
 624 530 l 1,20,-1
 624 1294 l 1,17,-1
EndSplineSet
EndChar

StartChar: Aacute
Encoding: 132 193 4
Width: 1051
VWidth: 0
Flags: W
HStem: 0 21G<70 413.833 634.917 977> 1573 20G<247.74 803.21>
DStem2: 70 0 412 0 0.11228 0.993677<38.3997 279.352 570.325 887.654> 977 0 585 530 0.109815 -0.993952<-1117.27 -569.842 -278.631 -37.3372>
LayerCount: 2
Fore
SplineSet
801 1593 m 5,0,-1
 977 0 l 5,1,-1
 637 0 l 5,2,-1
 612 240 l 5,3,-1
 434 240 l 5,4,-1
 412 0 l 5,5,-1
 70 0 l 5,6,-1
 250 1593 l 5,7,-1
 801 1593 l 5,0,-1
538 1294 m 1,8,-1
 506 1294 l 1,9,-1
 459 530 l 1,10,-1
 585 530 l 1,11,-1
 538 1294 l 1,8,-1
261 1645 m 1,12,-1
 261 1868 l 1,13,-1
 736 2086 l 1,14,-1
 736 1739 l 1,15,-1
 261 1645 l 1,12,-1
EndSplineSet
EndChar

StartChar: Acircumflex
Encoding: 133 194 5
Width: 1051
VWidth: 0
Flags: W
HStem: 0 21G<70 413.833 634.917 977> 1573 20G<247.74 803.21> 1683 403<321 439 611 729> 1968 118<321 729>
DStem2: 70 0 412 0 0.11228 0.993677<38.3997 279.352 570.325 887.654> 977 0 585 530 0.109815 -0.993952<-1117.27 -569.842 -278.631 -37.3372>
LayerCount: 2
Fore
SplineSet
801 1593 m 1,0,-1
 977 0 l 1,1,-1
 637 0 l 1,2,-1
 612 240 l 1,3,-1
 434 240 l 1,4,-1
 412 0 l 1,5,-1
 70 0 l 1,6,-1
 250 1593 l 1,7,-1
 801 1593 l 1,0,-1
538 1294 m 1,8,-1
 506 1294 l 1,9,-1
 459 530 l 1,10,-1
 585 530 l 1,11,-1
 538 1294 l 1,8,-1
729 2086 m 1,12,-1
 970 1683 l 1,13,-1
 611 1683 l 1,14,-1
 525 1968 l 1,15,-1
 439 1683 l 1,16,-1
 80 1683 l 1,17,-1
 321 2086 l 1,18,-1
 729 2086 l 1,12,-1
EndSplineSet
EndChar

StartChar: Adieresis
Encoding: 135 196 6
Width: 1051
VWidth: 0
Flags: W
HStem: 0 21G<70 413.833 634.917 977> 1573 20G<247.74 803.21> 1683 298<104 462 588 946>
VStem: 104 358<1683 1981> 588 358<1683 1981>
DStem2: 70 0 412 0 0.11228 0.993677<38.3997 279.352 570.325 887.654> 977 0 585 530 0.109815 -0.993952<-1117.27 -569.842 -278.631 -37.3372>
LayerCount: 2
Fore
SplineSet
801 1593 m 1,0,-1
 977 0 l 1,1,-1
 637 0 l 1,2,-1
 612 240 l 1,3,-1
 434 240 l 1,4,-1
 412 0 l 1,5,-1
 70 0 l 1,6,-1
 250 1593 l 1,7,-1
 801 1593 l 1,0,-1
538 1294 m 1,8,-1
 506 1294 l 1,9,-1
 459 530 l 1,10,-1
 585 530 l 1,11,-1
 538 1294 l 1,8,-1
104 1683 m 1,12,-1
 104 1981 l 1,13,-1
 462 1981 l 1,14,-1
 462 1683 l 1,15,-1
 104 1683 l 1,12,-1
588 1683 m 1,16,-1
 588 1981 l 1,17,-1
 946 1981 l 1,18,-1
 946 1683 l 1,19,-1
 588 1683 l 1,16,-1
EndSplineSet
EndChar

StartChar: Agrave
Encoding: 131 192 7
Width: 1051
VWidth: 0
Flags: W
HStem: 0 21G<70 413.833 634.917 977> 1573 20G<247.74 803.21>
DStem2: 70 0 412 0 0.11228 0.993677<38.3997 279.352 570.325 887.654> 977 0 585 530 0.109815 -0.993952<-1117.27 -569.842 -278.631 -37.3372>
LayerCount: 2
Fore
SplineSet
801 1593 m 1,0,-1
 977 0 l 1,1,-1
 637 0 l 1,2,-1
 612 240 l 1,3,-1
 434 240 l 1,4,-1
 412 0 l 1,5,-1
 70 0 l 1,6,-1
 250 1593 l 1,7,-1
 801 1593 l 1,0,-1
538 1294 m 1,8,-1
 506 1294 l 1,9,-1
 459 530 l 1,10,-1
 585 530 l 1,11,-1
 538 1294 l 1,8,-1
746 1645 m 1,12,-1
 271 1739 l 1,13,-1
 271 2086 l 1,14,-1
 746 1868 l 1,15,-1
 746 1645 l 1,12,-1
EndSplineSet
EndChar

StartChar: Aring
Encoding: 136 197 8
Width: 1051
VWidth: 0
Flags: W
HStem: 0 21G<70 413.833 634.917 977> 1573 20G<247.74 803.21> 1655 181<423.835 629.392> 2150 181<423.835 629.392>
VStem: 172 212<1880.73 2105.27> 668 211<1880.73 2105.27>
DStem2: 70 0 412 0 0.11228 0.993677<38.3997 279.352 570.325 887.654> 977 0 585 530 0.109815 -0.993952<-1117.27 -569.842 -278.631 -37.3372>
LayerCount: 2
Fore
SplineSet
801 1593 m 1,0,-1
 977 0 l 1,1,-1
 637 0 l 1,2,-1
 612 240 l 1,3,-1
 434 240 l 1,4,-1
 412 0 l 1,5,-1
 70 0 l 1,6,-1
 250 1593 l 1,7,-1
 801 1593 l 1,0,-1
538 1294 m 1,8,-1
 506 1294 l 1,9,-1
 459 530 l 1,10,-1
 585 530 l 1,11,-1
 538 1294 l 1,8,-1
384 1993 m 128,-1,13
 384 2056 384 2056 420.5 2103 c 128,-1,14
 457 2150 457 2150 526 2150 c 128,-1,15
 595 2150 595 2150 631.5 2103 c 128,-1,16
 668 2056 668 2056 668 1993 c 128,-1,17
 668 1930 668 1930 631.5 1883 c 128,-1,18
 595 1836 595 1836 526 1836 c 128,-1,19
 457 1836 457 1836 420.5 1883 c 128,-1,12
 384 1930 384 1930 384 1993 c 128,-1,13
172 1993 m 128,-1,21
 172 1837 172 1837 266.5 1746 c 128,-1,22
 361 1655 361 1655 525 1655 c 128,-1,23
 689 1655 689 1655 784 1746 c 128,-1,24
 879 1837 879 1837 879 1993 c 128,-1,25
 879 2149 879 2149 784 2240 c 128,-1,26
 689 2331 689 2331 525 2331 c 128,-1,27
 361 2331 361 2331 266.5 2240 c 128,-1,20
 172 2149 172 2149 172 1993 c 128,-1,21
EndSplineSet
EndChar

StartChar: Atilde
Encoding: 134 195 9
Width: 1051
VWidth: 0
Flags: W
HStem: 0 21G<70 413.833 634.917 977> 1573 20G<247.74 803.21> 1694 278<527.779 676.281> 1715 21G<288.113 343> 1804 276<346.094 486>
DStem2: 70 0 412 0 0.11228 0.993677<38.3997 279.352 570.325 887.654> 977 0 585 530 0.109815 -0.993952<-1117.27 -569.842 -278.631 -37.3372>
LayerCount: 2
Fore
SplineSet
801 1593 m 1,0,-1
 977 0 l 1,1,-1
 637 0 l 1,2,-1
 612 240 l 1,3,-1
 434 240 l 1,4,-1
 412 0 l 1,5,-1
 70 0 l 1,6,-1
 250 1593 l 1,7,-1
 801 1593 l 1,0,-1
538 1294 m 1,8,-1
 506 1294 l 1,9,-1
 459 530 l 1,10,-1
 585 530 l 1,11,-1
 538 1294 l 1,8,-1
388 1804 m 0,12,13
 356 1804 356 1804 330 1715 c 1,14,-1
 108 1821 l 1,15,16
 161 1951 161 1951 228.5 2015.5 c 128,-1,17
 296 2080 296 2080 388 2080 c 0,18,19
 426 2080 426 2080 470 2053 c 128,-1,20
 514 2026 514 2026 556 1999 c 128,-1,21
 598 1972 598 1972 631 1972 c 128,-1,22
 664 1972 664 1972 690 2051 c 1,23,-1
 922 1995 l 1,24,25
 867 1845 867 1845 796 1769.5 c 128,-1,26
 725 1694 725 1694 630 1694 c 0,27,28
 595 1694 595 1694 559 1711 c 128,-1,29
 523 1728 523 1728 498.5 1749 c 128,-1,30
 474 1770 474 1770 443.5 1787 c 128,-1,31
 413 1804 413 1804 388 1804 c 0,12,13
EndSplineSet
EndChar

StartChar: B
Encoding: 39 66 10
Width: 1012
VWidth: 0
Flags: W
HStem: 0 281<424.747 574.433> 745 248<424 562.725> 1346 247<424 568.593>
VStem: 80 344<281 745 993 1346> 573 351<999.065 1341.83> 596 348<402.384 708.381>
LayerCount: 2
Fore
SplineSet
80 0 m 1,0,-1
 80 1593 l 1,1,-1
 557 1593 l 2,2,3
 744 1593 744 1593 834 1510.5 c 128,-1,4
 924 1428 924 1428 924 1229 c 0,5,6
 924 1223 924 1223 924 1212 c 0,7,8
 924 1177 924 1177 924 1160 c 128,-1,9
 924 1143 924 1143 920.5 1107 c 128,-1,10
 917 1071 917 1071 910.5 1050.5 c 128,-1,11
 904 1030 904 1030 891 1000 c 128,-1,12
 878 970 878 970 859 951 c 128,-1,13
 840 932 840 932 811 914 c 128,-1,14
 782 896 782 896 744 887 c 1,15,16
 799 874 799 874 838 842 c 128,-1,17
 877 810 877 810 897 774.5 c 128,-1,18
 917 739 917 739 928.5 687 c 128,-1,19
 940 635 940 635 942 600 c 128,-1,20
 944 565 944 565 944 516 c 0,21,22
 944 390 944 390 926.5 300 c 128,-1,23
 909 210 909 210 866 139.5 c 128,-1,24
 823 69 823 69 746.5 34.5 c 128,-1,25
 670 0 670 0 557 0 c 2,26,-1
 80 0 l 1,0,-1
424 745 m 1,27,-1
 424 283 l 1,28,29
 448 281 448 281 459 281 c 0,30,31
 596 281 596 281 596 399 c 2,32,33
 596 598 l 2,34,35
 596 674 596 674 570.5 709.5 c 128,-1,36
 545 745 545 745 489 745 c 2,37,-1
 424 745 l 1,27,-1
424 993 m 1,38,-1
 496 993 l 2,39,40
 522 993 522 993 538.5 1004 c 128,-1,41
 555 1015 555 1015 562 1035.5 c 128,-1,42
 569 1056 569 1056 571 1072.5 c 128,-1,43
 573 1089 573 1089 573 1112 c 2,44,-1
 573 1270 l 2,45,46
 573 1346 573 1346 498 1346 c 2,47,-1
 424 1346 l 1,48,-1
 424 993 l 1,38,-1
EndSplineSet
EndChar

StartChar: C
Encoding: 40 67 11
Width: 1016
VWidth: 0
Flags: W
HStem: -18 309<442.178 567.206> 1284 322<437.857 570.517>
VStem: 72 350<307.159 1251.51> 588 356<318.338 686 956 1271.12>
LayerCount: 2
Fore
SplineSet
944 686 m 1,0,-1
 944 385 l 2,1,2
 944 177 944 177 826 79.5 c 128,-1,3
 708 -18 708 -18 496 -18 c 0,4,5
 308 -18 308 -18 190 89.5 c 128,-1,6
 72 197 72 197 72 395 c 2,7,-1
 72 1134 l 2,8,9
 72 1371 72 1371 176.5 1488.5 c 128,-1,10
 281 1606 281 1606 504 1606 c 0,11,12
 595 1606 595 1606 672 1583.5 c 128,-1,13
 749 1561 749 1561 808.5 1517 c 128,-1,14
 868 1473 868 1473 902 1401.5 c 128,-1,15
 936 1330 936 1330 936 1237 c 2,16,-1
 936 956 l 1,17,-1
 588 956 l 1,18,-1
 588 1141 l 2,19,20
 588 1284 588 1284 504 1284 c 0,21,22
 454 1284 454 1284 438 1252.5 c 128,-1,23
 422 1221 422 1221 422 1165 c 2,24,-1
 422 412 l 2,25,26
 422 363 422 363 444.5 327 c 128,-1,27
 467 291 467 291 504 291 c 0,28,29
 538 291 538 291 563 317.5 c 128,-1,30
 588 344 588 344 588 412 c 2,31,-1
 588 686 l 1,32,-1
 944 686 l 1,0,-1
EndSplineSet
EndChar

StartChar: Ccedilla
Encoding: 138 199 13
Width: 1016
VWidth: 0
Flags: W
HStem: -631 240<237.53 440.352> -106 106<306 401.793> 1284 322<437.857 570.517>
VStem: 72 350<307.159 412 1134 1251.51> 466 315<-367.585 -194.18> 588 356<318.338 412 1141 1271.12>
LayerCount: 2
Fore
SplineSet
944 686 m 1,0,-1
 588 686 l 1,1,-1
 588 412 l 2,2,3
 588 344 588 344 563 317.5 c 128,-1,4
 538 291 538 291 504 291 c 0,5,6
 467 291 467 291 444.5 327 c 128,-1,7
 422 363 422 363 422 412 c 2,8,-1
 422 1165 l 2,9,10
 422 1221 422 1221 438 1252.5 c 128,-1,11
 454 1284 454 1284 504 1284 c 0,12,13
 588 1284 588 1284 588 1141 c 2,14,-1
 588 956 l 1,15,-1
 936 956 l 1,16,-1
 936 1237 l 2,17,18
 936 1330 936 1330 902 1401.5 c 128,-1,19
 868 1473 868 1473 808.5 1517 c 128,-1,20
 749 1561 749 1561 672 1583.5 c 128,-1,21
 595 1606 595 1606 504 1606 c 0,22,23
 281 1606 281 1606 176.5 1488.5 c 128,-1,24
 72 1371 72 1371 72 1134 c 2,25,-1
 72 395 l 2,26,27
 72 197 72 197 190 89.5 c 128,-1,28
 308 -18 308 -18 496 -18 c 0,29,30
 708 -18 708 -18 826 79.5 c 128,-1,31
 944 177 944 177 944 385 c 2,32,-1
 944 686 l 1,0,-1
235 -591 m 1,33,34
 235 -368 l 1,35,36
 301 -391 301 -391 351 -391 c 0,37,38
 404 -391 404 -391 435 -364 c 128,-1,39
 466 -337 466 -337 466 -279 c 0,40,41
 466 -223 466 -223 423.5 -172.5 c 128,-1,42
 381 -122 381 -122 306 -106 c 1,43,-1
 306 0 l 1,44,-1
 517 0 l 1,45,-1
 517 -76 l 1,46,47
 644 -93 644 -93 712.5 -165 c 128,-1,48
 781 -237 781 -237 781 -330 c 0,49,50
 781 -469 781 -469 680.5 -550 c 128,-1,51
 580 -631 580 -631 433 -631 c 0,52,53
 331 -631 331 -631 235 -591 c 1,33,34
EndSplineSet
EndChar

StartChar: D
Encoding: 41 68 14
Width: 1018
VWidth: 0
Flags: W
HStem: 0 292<430.095 580.801> 1313 280<430.871 563.631>
VStem: 76 354<291 1313> 592 352<304.897 1279.47>
LayerCount: 2
Fore
SplineSet
76 0 m 1,0,-1
 76 1593 l 1,1,-1
 561 1593 l 2,2,3
 758 1593 758 1593 848.5 1492.5 c 128,-1,4
 939 1392 939 1392 940 1217 c 2,5,6
 944 473 l 1,7,8
 944 234 944 234 850.5 117 c 128,-1,9
 757 0 757 0 549 0 c 2,10,-1
 76 0 l 1,0,-1
430 1311 m 1,11,-1
 430 291 l 1,12,13
 433 292 433 292 442 292 c 0,14,15
 448 292 448 292 464.5 291 c 128,-1,16
 481 290 481 290 491 290 c 0,17,18
 592 290 592 290 592 375 c 2,19,-1
 592 1161 l 2,20,21
 592 1248 592 1248 564.5 1280.5 c 128,-1,22
 537 1313 537 1313 469 1313 c 0,23,24
 458 1313 458 1313 430 1311 c 1,11,-1
EndSplineSet
EndChar

StartChar: uni2206
Encoding: 260 8710 15
Width: 1051
VWidth: 0
Flags: W
HStem: 0 230<439 605>
LayerCount: 2
Fore
SplineSet
771 1353 m 1,0,-1
 950 0 l 1,1,-1
 97 0 l 1,2,-1
 280 1353 l 1,3,-1
 771 1353 l 1,0,-1
538 1044 m 1,4,-1
 506 1044 l 1,5,-1
 439 230 l 1,6,-1
 605 230 l 1,7,-1
 538 1044 l 1,4,-1
EndSplineSet
EndChar

StartChar: E
Encoding: 42 69 16
Width: 872
VWidth: 0
Flags: W
HStem: 0 311<430 799> 674 299<430 762> 1284 309<430 776>
VStem: 72 704<674 973 1284 1593> 72 358<311 674 973 1284>
LayerCount: 2
Fore
SplineSet
72 0 m 1,0,-1
 72 1593 l 1,1,-1
 776 1593 l 1,2,-1
 776 1284 l 1,3,-1
 430 1284 l 1,4,-1
 430 973 l 1,5,-1
 762 973 l 1,6,-1
 762 674 l 1,7,-1
 430 674 l 1,8,-1
 430 311 l 1,9,-1
 799 311 l 1,10,-1
 799 0 l 1,11,-1
 72 0 l 1,0,-1
EndSplineSet
EndChar

StartChar: Eacute
Encoding: 140 201 17
Width: 872
VWidth: 0
Flags: W
HStem: 0 311<430 799> 674 299<430 762> 1284 309<430 776>
VStem: 72 704<674 973 1284 1593> 72 358<311 674 973 1284>
LayerCount: 2
Fore
SplineSet
72 0 m 1,0,-1
 72 1593 l 1,1,-1
 776 1593 l 1,2,-1
 776 1284 l 1,3,-1
 430 1284 l 1,4,-1
 430 973 l 1,5,-1
 762 973 l 1,6,-1
 762 674 l 1,7,-1
 430 674 l 1,8,-1
 430 311 l 1,9,-1
 799 311 l 1,10,-1
 799 0 l 1,11,-1
 72 0 l 1,0,-1
172 1645 m 1,12,-1
 172 1868 l 1,13,-1
 647 2086 l 1,14,-1
 647 1739 l 1,15,-1
 172 1645 l 1,12,-1
EndSplineSet
EndChar

StartChar: Ecircumflex
Encoding: 141 202 18
Width: 872
VWidth: 0
Flags: W
HStem: 0 311<430 799> 674 299<430 762> 1284 309<430 776> 1683 403<232 350 522 640> 1968 118<232 640>
VStem: 72 704<674 973 1284 1593> 72 358<311 674 973 1284>
LayerCount: 2
Fore
SplineSet
72 0 m 1,0,-1
 72 1593 l 1,1,-1
 776 1593 l 1,2,-1
 776 1284 l 1,3,-1
 430 1284 l 1,4,-1
 430 973 l 1,5,-1
 762 973 l 1,6,-1
 762 674 l 1,7,-1
 430 674 l 1,8,-1
 430 311 l 1,9,-1
 799 311 l 1,10,-1
 799 0 l 1,11,-1
 72 0 l 1,0,-1
640 2086 m 1,12,-1
 881 1683 l 1,13,-1
 522 1683 l 1,14,-1
 436 1968 l 1,15,-1
 350 1683 l 1,16,-1
 -9 1683 l 1,17,-1
 232 2086 l 1,18,-1
 640 2086 l 1,12,-1
EndSplineSet
EndChar

StartChar: Edieresis
Encoding: 142 203 19
Width: 872
VWidth: 0
Flags: W
HStem: 0 311<430 799> 674 299<430 762> 1284 309<430 776> 1683 298<15 373 499 857>
VStem: 15 358<1683 1981> 72 704<674 973 1284 1593> 72 358<311 674 973 1284> 499 358<1683 1981>
LayerCount: 2
Fore
SplineSet
72 0 m 1,0,-1
 72 1593 l 1,1,-1
 776 1593 l 1,2,-1
 776 1284 l 1,3,-1
 430 1284 l 1,4,-1
 430 973 l 1,5,-1
 762 973 l 1,6,-1
 762 674 l 1,7,-1
 430 674 l 1,8,-1
 430 311 l 1,9,-1
 799 311 l 1,10,-1
 799 0 l 1,11,-1
 72 0 l 1,0,-1
15 1683 m 1,12,-1
 15 1981 l 1,13,-1
 373 1981 l 1,14,-1
 373 1683 l 1,15,-1
 15 1683 l 1,12,-1
499 1683 m 1,16,-1
 499 1981 l 1,17,-1
 857 1981 l 1,18,-1
 857 1683 l 1,19,-1
 499 1683 l 1,16,-1
EndSplineSet
EndChar

StartChar: Egrave
Encoding: 139 200 20
Width: 872
VWidth: 0
Flags: W
HStem: 0 311<430 799> 674 299<430 762> 1284 309<430 776>
VStem: 72 704<674 973 1284 1593> 72 358<311 674 973 1284>
LayerCount: 2
Fore
SplineSet
72 0 m 1,0,-1
 72 1593 l 1,1,-1
 776 1593 l 1,2,-1
 776 1284 l 1,3,-1
 430 1284 l 1,4,-1
 430 973 l 1,5,-1
 762 973 l 1,6,-1
 762 674 l 1,7,-1
 430 674 l 1,8,-1
 430 311 l 1,9,-1
 799 311 l 1,10,-1
 799 0 l 1,11,-1
 72 0 l 1,0,-1
657 1645 m 1,12,-1
 182 1739 l 1,13,-1
 182 2086 l 1,14,-1
 657 1868 l 1,15,-1
 657 1645 l 1,12,-1
EndSplineSet
EndChar

StartChar: Euro
Encoding: 257 8364 21
Width: 1075
VWidth: 0
Flags: W
HStem: -18 348<501.868 629.623> 559 232<0 100 479 794> 942 224<0 100 479 794> 1424 305<495.014 637.473>
VStem: 100 379<361.459 559 791 942 1166 1412.77> 653 349<361.459 469 1246 1409.48>
LayerCount: 2
Fore
SplineSet
0 942 m 1,0,-1
 0 1166 l 1,1,-1
 100 1166 l 1,2,-1
 100 1231 l 2,3,4
 100 1480 100 1480 219 1604.5 c 128,-1,5
 338 1729 338 1729 566 1729 c 0,6,7
 777 1729 777 1729 887.5 1608 c 128,-1,8
 998 1487 998 1487 1002 1245 c 1,9,-1
 653 1246 l 1,10,-1
 653 1273 l 2,11,12
 653 1299 653 1299 652.5 1314.5 c 128,-1,13
 652 1330 652 1330 647 1353.5 c 128,-1,14
 642 1377 642 1377 633.5 1390.5 c 128,-1,15
 625 1404 625 1404 608 1414 c 128,-1,16
 591 1424 591 1424 566 1424 c 128,-1,17
 541 1424 541 1424 524 1414 c 128,-1,18
 507 1404 507 1404 498.5 1390.5 c 128,-1,19
 490 1377 490 1377 485 1353.5 c 128,-1,20
 480 1330 480 1330 479.5 1314.5 c 128,-1,21
 479 1299 479 1299 479 1273 c 2,22,-1
 479 1166 l 1,23,-1
 794 1166 l 1,24,-1
 794 942 l 1,25,-1
 479 942 l 1,26,-1
 479 791 l 1,27,-1
 794 791 l 1,28,-1
 794 559 l 1,29,-1
 479 559 l 1,30,-1
 479 447 l 2,31,32
 479 391 479 391 506.5 360.5 c 128,-1,33
 534 330 534 330 566 330 c 128,-1,34
 598 330 598 330 625.5 360.5 c 128,-1,35
 653 391 653 391 653 447 c 2,36,-1
 653 469 l 1,37,-1
 1002 475 l 1,38,39
 1001 347 1001 347 963 249 c 128,-1,40
 925 151 925 151 862 94.5 c 128,-1,41
 799 38 799 38 724 10 c 128,-1,42
 649 -18 649 -18 566 -18 c 0,43,44
 495 -18 495 -18 429.5 -1 c 128,-1,45
 364 16 364 16 303.5 54.5 c 128,-1,46
 243 93 243 93 198 149.5 c 128,-1,47
 153 206 153 206 126.5 291.5 c 128,-1,48
 100 377 100 377 100 482 c 2,49,-1
 100 559 l 1,50,-1
 0 559 l 1,51,-1
 0 791 l 1,52,-1
 100 791 l 1,53,-1
 100 942 l 1,54,-1
 0 942 l 1,0,-1
EndSplineSet
EndChar

StartChar: F
Encoding: 43 70 22
Width: 829
VWidth: 0
Flags: W
HStem: 0 21G<72 426> 723 307<426 758> 1282 311<426 776>
VStem: 72 354<0 723 1030 1282>
LayerCount: 2
Fore
SplineSet
72 0 m 1,0,-1
 72 1593 l 1,1,-1
 776 1593 l 1,2,-1
 776 1282 l 1,3,-1
 426 1282 l 1,4,-1
 426 1030 l 1,5,-1
 758 1030 l 1,6,-1
 758 723 l 1,7,-1
 426 723 l 1,8,-1
 426 0 l 1,9,-1
 72 0 l 1,0,-1
EndSplineSet
EndChar

StartChar: G
Encoding: 44 71 23
Width: 1010
VWidth: 0
Flags: W
HStem: -18 311<253.425 586.253> 0 21G<790.111 936> 1296 310<433.703 593.062>
VStem: 68 352<307.457 1282.95> 510 426<653 928> 604 332<335.809 653 1054 1287.45>
LayerCount: 2
Fore
SplineSet
799 0 m 1,0,-1
 739 135 l 1,1,2
 645 -18 645 -18 449 -18 c 0,3,4
 68 -18 68 -18 68 475 c 2,5,-1
 68 1165 l 2,6,7
 68 1278 68 1278 98 1362 c 128,-1,8
 128 1446 128 1446 171.5 1491.5 c 128,-1,9
 215 1537 215 1537 278 1564 c 128,-1,10
 341 1591 341 1591 392.5 1598.5 c 128,-1,11
 444 1606 444 1606 504 1606 c 0,12,13
 578 1606 578 1606 638 1595.5 c 128,-1,14
 698 1585 698 1585 741.5 1563 c 128,-1,15
 785 1541 785 1541 818 1513.5 c 128,-1,16
 851 1486 851 1486 872.5 1445.5 c 128,-1,17
 894 1405 894 1405 907.5 1365.5 c 128,-1,18
 921 1326 921 1326 928 1270.5 c 128,-1,19
 935 1215 935 1215 937.5 1167 c 128,-1,20
 940 1119 940 1119 940 1054 c 1,21,-1
 604 1054 l 1,22,-1
 604 1180 l 2,23,24
 604 1218 604 1218 596 1243 c 128,-1,25
 588 1268 588 1268 573.5 1278.5 c 128,-1,26
 559 1289 559 1289 547 1292.5 c 128,-1,27
 535 1296 535 1296 520 1296 c 0,28,29
 490 1296 490 1296 471.5 1288 c 128,-1,30
 453 1280 453 1280 442.5 1268 c 128,-1,31
 432 1256 432 1256 427 1224.5 c 128,-1,32
 422 1193 422 1193 421 1165 c 128,-1,33
 420 1137 420 1137 420 1077 c 2,34,-1
 420 461 l 2,35,36
 420 426 420 426 422.5 402 c 128,-1,37
 425 378 425 378 434 350 c 128,-1,38
 443 322 443 322 463.5 307.5 c 128,-1,39
 484 293 484 293 516 293 c 0,40,41
 569 293 569 293 586.5 334.5 c 128,-1,42
 604 376 604 376 604 469 c 2,43,-1
 604 653 l 1,44,-1
 510 653 l 1,45,-1
 510 928 l 1,46,-1
 936 928 l 1,47,-1
 936 0 l 1,48,-1
 799 0 l 1,0,-1
EndSplineSet
EndChar

StartChar: H
Encoding: 45 72 24
Width: 1020
VWidth: 0
Flags: W
HStem: 0 21G<74 424 590 940> 723 301<424 590> 1573 20G<74 424 590 940>
VStem: 74 350<0 723 1024 1593> 590 350<0 723 1024 1593>
LayerCount: 2
Fore
SplineSet
424 723 m 1,0,-1
 424 0 l 1,1,-1
 74 0 l 1,2,-1
 74 1593 l 1,3,-1
 424 1593 l 1,4,-1
 424 1024 l 1,5,-1
 590 1024 l 1,6,-1
 590 1593 l 1,7,-1
 940 1593 l 1,8,-1
 940 0 l 1,9,-1
 590 0 l 1,10,-1
 590 723 l 1,11,-1
 424 723 l 1,0,-1
EndSplineSet
EndChar

StartChar: I
Encoding: 46 73 25
Width: 498
VWidth: 0
Flags: W
HStem: 0 21G<76 416> 1573 20G<76 416>
VStem: 76 340<0 1593>
LayerCount: 2
Fore
SplineSet
76 0 m 1,0,-1
 76 1593 l 1,1,-1
 416 1593 l 1,2,-1
 416 0 l 1,3,-1
 76 0 l 1,0,-1
EndSplineSet
EndChar

StartChar: Iacute
Encoding: 144 205 26
Width: 498
VWidth: 0
Flags: W
HStem: 0 21G<76 416> 1573 20G<76 416>
VStem: 76 340<0 1593>
LayerCount: 2
Fore
SplineSet
76 0 m 1,0,-1
 76 1593 l 1,1,-1
 416 1593 l 1,2,-1
 416 0 l 1,3,-1
 76 0 l 1,0,-1
-15 1645 m 1,4,-1
 -15 1868 l 1,5,-1
 460 2086 l 1,6,-1
 460 1739 l 1,7,-1
 -15 1645 l 1,4,-1
EndSplineSet
EndChar

StartChar: Icircumflex
Encoding: 145 206 27
Width: 498
VWidth: 0
Flags: W
HStem: 0 21G<76 416> 1573 20G<76 416> 1683 403<45 163 335 453> 1968 118<45 453>
VStem: 76 340<0 1593>
LayerCount: 2
Fore
SplineSet
76 0 m 1,0,-1
 76 1593 l 1,1,-1
 416 1593 l 1,2,-1
 416 0 l 1,3,-1
 76 0 l 1,0,-1
453 2086 m 1,4,-1
 694 1683 l 1,5,-1
 335 1683 l 1,6,-1
 249 1968 l 1,7,-1
 163 1683 l 1,8,-1
 -196 1683 l 1,9,-1
 45 2086 l 1,10,-1
 453 2086 l 1,4,-1
EndSplineSet
EndChar

StartChar: Idieresis
Encoding: 146 207 28
Width: 498
VWidth: 0
Flags: W
HStem: 0 21G<76 416> 1573 20G<76 416> 1683 298<-172 186 312 670>
VStem: -172 358<1683 1981> 76 340<0 1593> 312 358<1683 1981>
LayerCount: 2
Fore
SplineSet
76 0 m 1,0,-1
 76 1593 l 1,1,-1
 416 1593 l 1,2,-1
 416 0 l 1,3,-1
 76 0 l 1,0,-1
-172 1683 m 1,4,-1
 -172 1981 l 1,5,-1
 186 1981 l 1,6,-1
 186 1683 l 1,7,-1
 -172 1683 l 1,4,-1
312 1683 m 1,8,-1
 312 1981 l 1,9,-1
 670 1981 l 1,10,-1
 670 1683 l 1,11,-1
 312 1683 l 1,8,-1
EndSplineSet
EndChar

StartChar: Igrave
Encoding: 143 204 29
Width: 498
VWidth: 0
Flags: W
HStem: 0 21G<76 416> 1573 20G<76 416>
VStem: 76 340<0 1593>
LayerCount: 2
Fore
SplineSet
76 0 m 1,0,-1
 76 1593 l 1,1,-1
 416 1593 l 1,2,-1
 416 0 l 1,3,-1
 76 0 l 1,0,-1
470 1645 m 1,4,-1
 -5 1739 l 1,5,-1
 -5 2086 l 1,6,-1
 470 1868 l 1,7,-1
 470 1645 l 1,4,-1
EndSplineSet
EndChar

StartChar: J
Encoding: 47 74 30
Width: 997
VWidth: 0
Flags: W
HStem: -18 323<432.767 558.901> 1573 20G<575 930>
VStem: 70 348<333.363 752> 575 355<313.688 1593>
LayerCount: 2
Fore
SplineSet
500 -18 m 0,0,1
 416 -18 416 -18 339.5 6 c 128,-1,2
 263 30 263 30 202.5 75 c 128,-1,3
 142 120 142 120 106 192 c 128,-1,4
 70 264 70 264 70 352 c 2,5,-1
 70 752 l 1,6,-1
 418 752 l 1,7,-1
 418 403 l 2,8,9
 418 360 418 360 437 332.5 c 128,-1,10
 456 305 456 305 496 305 c 0,11,12
 576 305 576 305 576 444 c 0,13,14
 576 455 576 455 575.5 472.5 c 128,-1,15
 575 490 575 490 575 496 c 2,16,-1
 575 1593 l 1,17,-1
 930 1593 l 1,18,-1
 930 399 l 2,19,20
 930 207 930 207 809 94.5 c 128,-1,21
 688 -18 688 -18 500 -18 c 0,0,1
EndSplineSet
EndChar

StartChar: K
Encoding: 48 75 31
Width: 1053
VWidth: 0
Flags: W
HStem: 0 21G<74 424 611.026 981> 1573 20G<74 422 580.851 940>
VStem: 74 350<0 772 956 1593> 586 354<1239 1593> 616 365<0 365>
DStem2: 422 956 743 864 0.260876 0.965372<0 657.726>
LayerCount: 2
Fore
SplineSet
586 1593 m 1,0,-1
 940 1593 l 1,1,-1
 743 864 l 1,2,-1
 981 0 l 1,3,-1
 616 0 l 1,4,-1
 424 772 l 1,5,-1
 424 0 l 1,6,-1
 74 0 l 1,7,-1
 74 1593 l 1,8,-1
 422 1593 l 1,9,-1
 422 956 l 1,10,-1
 586 1593 l 1,0,-1
EndSplineSet
EndChar

StartChar: L
Encoding: 49 76 32
Width: 858
VWidth: 0
Flags: W
HStem: 0 311<422 784> 1573 20G<70 422>
VStem: 70 352<311 1593>
LayerCount: 2
Fore
SplineSet
70 0 m 1,0,-1
 70 1593 l 1,1,-1
 422 1593 l 1,2,-1
 422 311 l 1,3,-1
 784 311 l 1,4,-1
 784 0 l 1,5,-1
 70 0 l 1,0,-1
EndSplineSet
EndChar

StartChar: Lslash
Encoding: 192 321 33
Width: 858
VWidth: 0
Flags: W
HStem: 0 311<422 784> 1573 20G<70 422>
VStem: 70 352<311 1593>
DStem2: 687 973 687 741 0.947435 0.319949<-725.116 -74.2281>
LayerCount: 2
Fore
SplineSet
70 0 m 1,0,-1
 70 1593 l 1,1,-1
 422 1593 l 1,2,-1
 422 311 l 1,3,-1
 784 311 l 1,4,-1
 784 0 l 1,5,-1
 70 0 l 1,0,-1
0 509 m 1,6,-1
 0 741 l 1,7,-1
 687 973 l 1,8,-1
 687 741 l 1,9,-1
 0 509 l 1,6,-1
EndSplineSet
EndChar

StartChar: M
Encoding: 50 77 34
Width: 1528
VWidth: 0
Flags: W
HStem: 0 21G<78 416 606.623 929.168 1108 1450> 1573 20G<78 617.562 905.462 1450>
VStem: 78 338<0 1149> 1108 342<0 1149>
DStem2: 614 1593 416 1149 0.166486 -0.986044<404.839 844.042> 762 762 1108 1149 0.156448 0.987686<0 436.366>
LayerCount: 2
Fore
SplineSet
926 0 m 1,0,-1
 610 0 l 1,1,-1
 416 1149 l 1,2,-1
 416 0 l 1,3,-1
 78 0 l 1,4,-1
 78 1593 l 1,5,-1
 614 1593 l 1,6,-1
 762 762 l 1,7,-1
 909 1593 l 1,8,-1
 1450 1593 l 1,9,-1
 1450 0 l 1,10,-1
 1108 0 l 1,11,-1
 1108 1149 l 1,12,-1
 926 0 l 1,0,-1
EndSplineSet
EndChar

StartChar: N
Encoding: 51 78 35
Width: 1020
VWidth: 0
Flags: W
HStem: 0 21G<76 420 591.583 940> 1573 20G<76 442.252 600 940>
VStem: 76 344<0 797> 600 340<0 63.4766 831 1593>
LayerCount: 2
Fore
SplineSet
940 1593 m 1,0,-1
 940 0 l 1,1,-1
 596 0 l 1,2,-1
 420 797 l 1,3,-1
 420 0 l 1,4,-1
 76 0 l 1,5,-1
 76 1593 l 1,6,-1
 438 1593 l 1,7,-1
 600 831 l 1,8,-1
 600 1593 l 1,9,-1
 940 1593 l 1,0,-1
EndSplineSet
EndChar

StartChar: Ntilde
Encoding: 147 209 36
Width: 1020
VWidth: 0
Flags: W
HStem: 0 21G<76 420 591.583 940> 1573 20G<76 442.252 600 940> 1694 278<512.779 661.281> 1715 21G<273.113 328> 1804 276<331.094 471>
VStem: 76 344<0 797> 600 340<0 63.4766 831 1593>
LayerCount: 2
Fore
SplineSet
940 1593 m 1,0,-1
 940 0 l 1,1,-1
 596 0 l 1,2,-1
 420 797 l 1,3,-1
 420 0 l 1,4,-1
 76 0 l 1,5,-1
 76 1593 l 1,6,-1
 438 1593 l 1,7,-1
 600 831 l 1,8,-1
 600 1593 l 1,9,-1
 940 1593 l 1,0,-1
373 1804 m 0,10,11
 341 1804 341 1804 315 1715 c 1,12,-1
 93 1821 l 1,13,14
 146 1951 146 1951 213.5 2015.5 c 128,-1,15
 281 2080 281 2080 373 2080 c 0,16,17
 411 2080 411 2080 455 2053 c 128,-1,18
 499 2026 499 2026 541 1999 c 128,-1,19
 583 1972 583 1972 616 1972 c 128,-1,20
 649 1972 649 1972 675 2051 c 1,21,-1
 907 1995 l 1,22,23
 852 1845 852 1845 781 1769.5 c 128,-1,24
 710 1694 710 1694 615 1694 c 0,25,26
 580 1694 580 1694 544 1711 c 128,-1,27
 508 1728 508 1728 483.5 1749 c 128,-1,28
 459 1770 459 1770 428.5 1787 c 128,-1,29
 398 1804 398 1804 373 1804 c 0,10,11
EndSplineSet
EndChar

StartChar: O
Encoding: 52 79 37
Width: 1004
VWidth: 0
Flags: W
HStem: -18 315<440.147 568.785> 1295 312<438.401 572.825>
VStem: 72 348<310.224 1282.91> 586 354<307.556 1288.34>
LayerCount: 2
Fore
SplineSet
506 -18 m 128,-1,1
 392 -18 392 -18 306.5 16 c 128,-1,2
 221 50 221 50 171 112 c 128,-1,3
 121 174 121 174 96.5 253.5 c 128,-1,4
 72 333 72 333 72 430 c 2,5,-1
 72 1189 l 2,6,7
 72 1388 72 1388 179.5 1497.5 c 128,-1,8
 287 1607 287 1607 506 1607 c 128,-1,9
 725 1607 725 1607 832.5 1497.5 c 128,-1,10
 940 1388 940 1388 940 1189 c 2,11,-1
 940 430 l 2,12,13
 940 333 940 333 915.5 253.5 c 128,-1,14
 891 174 891 174 841 112 c 128,-1,15
 791 50 791 50 705.5 16 c 128,-1,0
 620 -18 620 -18 506 -18 c 128,-1,1
506 297 m 0,16,17
 525 297 525 297 539.5 304.5 c 128,-1,18
 554 312 554 312 562.5 327.5 c 128,-1,19
 571 343 571 343 576 357 c 128,-1,20
 581 371 581 371 583 394.5 c 128,-1,21
 585 418 585 418 585.5 430.5 c 128,-1,22
 586 443 586 443 586 465 c 0,23,24
 586 470 586 470 586 473 c 2,25,-1
 586 1113 l 2,26,27
 586 1119 586 1119 586.5 1137 c 128,-1,28
 587 1155 587 1155 586.5 1164 c 128,-1,29
 586 1173 586 1173 585.5 1190.5 c 128,-1,30
 585 1208 585 1208 582.5 1217.5 c 128,-1,31
 580 1227 580 1227 576.5 1241.5 c 128,-1,32
 573 1256 573 1256 567 1263.5 c 128,-1,33
 561 1271 561 1271 553 1279.5 c 128,-1,34
 545 1288 545 1288 533 1291.5 c 128,-1,35
 521 1295 521 1295 506 1295 c 0,36,37
 485 1295 485 1295 469.5 1288 c 128,-1,38
 454 1281 454 1281 445 1265.5 c 128,-1,39
 436 1250 436 1250 430 1237.5 c 128,-1,40
 424 1225 424 1225 422 1200.5 c 128,-1,41
 420 1176 420 1176 420 1165.5 c 128,-1,42
 420 1155 420 1155 420 1130 c 0,43,44
 420 1126 420 1126 420 1123 c 128,-1,45
 420 1120 420 1120 420 1117 c 2,46,-1
 420 477 l 2,47,48
 420 455 420 455 420.5 442 c 128,-1,49
 421 429 421 429 423 404 c 128,-1,50
 425 379 425 379 430.5 363.5 c 128,-1,51
 436 348 436 348 445 331 c 128,-1,52
 454 314 454 314 469.5 305.5 c 128,-1,53
 485 297 485 297 506 297 c 0,16,17
EndSplineSet
EndChar

StartChar: OE
Encoding: 194 338 38
Width: 1367
VWidth: 0
Flags: W
HStem: 0 311<442.52 584.031 942 1302> 674 299<942 1265> 1284 309<444.582 584.156 942 1279>
VStem: 61 348<350.808 1252.9> 585 357<311.076 674 973 1283.94>
LayerCount: 2
Fore
SplineSet
1302 0 m 1,0,-1
 617 0 l 2,1,2
 61 0 61 0 61 430 c 2,3,-1
 61 1189 l 2,4,5
 61 1403 61 1403 201 1498 c 128,-1,6
 341 1593 341 1593 609 1593 c 2,7,-1
 1279 1593 l 1,8,-1
 1279 1284 l 1,9,-1
 942 1284 l 1,10,-1
 942 973 l 1,11,-1
 1265 973 l 1,12,-1
 1265 674 l 1,13,-1
 942 674 l 1,14,-1
 942 311 l 1,15,-1
 1302 311 l 1,16,-1
 1302 0 l 1,0,-1
409 477 m 2,17,18
 409 391 409 391 441.5 349.5 c 128,-1,19
 474 308 474 308 524 308 c 0,20,21
 554 308 554 308 585 322 c 1,22,-1
 585 1280 l 1,23,24
 558 1289 558 1289 530 1289 c 0,25,26
 478 1289 478 1289 443.5 1254 c 128,-1,27
 409 1219 409 1219 409 1147 c 2,28,-1
 409 477 l 2,17,18
EndSplineSet
EndChar

StartChar: Oacute
Encoding: 149 211 39
Width: 1004
VWidth: 0
Flags: W
HStem: -18 315<440.147 568.785> 1295 312<438.401 572.825>
VStem: 72 348<310.224 1282.91> 586 354<307.556 1288.34>
LayerCount: 2
Fore
SplineSet
506 -18 m 128,-1,1
 392 -18 392 -18 306.5 16 c 128,-1,2
 221 50 221 50 171 112 c 128,-1,3
 121 174 121 174 96.5 253.5 c 128,-1,4
 72 333 72 333 72 430 c 2,5,-1
 72 1189 l 2,6,7
 72 1388 72 1388 179.5 1497.5 c 128,-1,8
 287 1607 287 1607 506 1607 c 128,-1,9
 725 1607 725 1607 832.5 1497.5 c 128,-1,10
 940 1388 940 1388 940 1189 c 2,11,-1
 940 430 l 2,12,13
 940 333 940 333 915.5 253.5 c 128,-1,14
 891 174 891 174 841 112 c 128,-1,15
 791 50 791 50 705.5 16 c 128,-1,0
 620 -18 620 -18 506 -18 c 128,-1,1
506 297 m 0,16,17
 525 297 525 297 539.5 304.5 c 128,-1,18
 554 312 554 312 562.5 327.5 c 128,-1,19
 571 343 571 343 576 357 c 128,-1,20
 581 371 581 371 583 394.5 c 128,-1,21
 585 418 585 418 585.5 430.5 c 128,-1,22
 586 443 586 443 586 465 c 0,23,24
 586 470 586 470 586 473 c 2,25,-1
 586 1113 l 2,26,27
 586 1119 586 1119 586.5 1137 c 128,-1,28
 587 1155 587 1155 586.5 1164 c 128,-1,29
 586 1173 586 1173 585.5 1190.5 c 128,-1,30
 585 1208 585 1208 582.5 1217.5 c 128,-1,31
 580 1227 580 1227 576.5 1241.5 c 128,-1,32
 573 1256 573 1256 567 1263.5 c 128,-1,33
 561 1271 561 1271 553 1279.5 c 128,-1,34
 545 1288 545 1288 533 1291.5 c 128,-1,35
 521 1295 521 1295 506 1295 c 0,36,37
 485 1295 485 1295 469.5 1288 c 128,-1,38
 454 1281 454 1281 445 1265.5 c 128,-1,39
 436 1250 436 1250 430 1237.5 c 128,-1,40
 424 1225 424 1225 422 1200.5 c 128,-1,41
 420 1176 420 1176 420 1165.5 c 128,-1,42
 420 1155 420 1155 420 1130 c 0,43,44
 420 1126 420 1126 420 1123 c 128,-1,45
 420 1120 420 1120 420 1117 c 2,46,-1
 420 477 l 2,47,48
 420 455 420 455 420.5 442 c 128,-1,49
 421 429 421 429 423 404 c 128,-1,50
 425 379 425 379 430.5 363.5 c 128,-1,51
 436 348 436 348 445 331 c 128,-1,52
 454 314 454 314 469.5 305.5 c 128,-1,53
 485 297 485 297 506 297 c 0,16,17
238 1645 m 1,54,-1
 238 1868 l 1,55,-1
 713 2086 l 1,56,-1
 713 1739 l 1,57,-1
 238 1645 l 1,54,-1
EndSplineSet
EndChar

StartChar: Ocircumflex
Encoding: 150 212 40
Width: 1004
VWidth: 0
Flags: W
HStem: -18 315<440.147 568.785> 1295 312<438.401 572.825> 1683 403<298 416 588 706> 1968 118<298 706>
VStem: 72 348<310.224 1282.91> 586 354<307.556 1288.34 1683 1695.63>
LayerCount: 2
Fore
SplineSet
506 -18 m 128,-1,1
 392 -18 392 -18 306.5 16 c 128,-1,2
 221 50 221 50 171 112 c 128,-1,3
 121 174 121 174 96.5 253.5 c 128,-1,4
 72 333 72 333 72 430 c 2,5,-1
 72 1189 l 2,6,7
 72 1388 72 1388 179.5 1497.5 c 128,-1,8
 287 1607 287 1607 506 1607 c 128,-1,9
 725 1607 725 1607 832.5 1497.5 c 128,-1,10
 940 1388 940 1388 940 1189 c 2,11,-1
 940 430 l 2,12,13
 940 333 940 333 915.5 253.5 c 128,-1,14
 891 174 891 174 841 112 c 128,-1,15
 791 50 791 50 705.5 16 c 128,-1,0
 620 -18 620 -18 506 -18 c 128,-1,1
506 297 m 0,16,17
 525 297 525 297 539.5 304.5 c 128,-1,18
 554 312 554 312 562.5 327.5 c 128,-1,19
 571 343 571 343 576 357 c 128,-1,20
 581 371 581 371 583 394.5 c 128,-1,21
 585 418 585 418 585.5 430.5 c 128,-1,22
 586 443 586 443 586 465 c 0,23,24
 586 470 586 470 586 473 c 2,25,-1
 586 1113 l 2,26,27
 586 1119 586 1119 586.5 1137 c 128,-1,28
 587 1155 587 1155 586.5 1164 c 128,-1,29
 586 1173 586 1173 585.5 1190.5 c 128,-1,30
 585 1208 585 1208 582.5 1217.5 c 128,-1,31
 580 1227 580 1227 576.5 1241.5 c 128,-1,32
 573 1256 573 1256 567 1263.5 c 128,-1,33
 561 1271 561 1271 553 1279.5 c 128,-1,34
 545 1288 545 1288 533 1291.5 c 128,-1,35
 521 1295 521 1295 506 1295 c 0,36,37
 485 1295 485 1295 469.5 1288 c 128,-1,38
 454 1281 454 1281 445 1265.5 c 128,-1,39
 436 1250 436 1250 430 1237.5 c 128,-1,40
 424 1225 424 1225 422 1200.5 c 128,-1,41
 420 1176 420 1176 420 1165.5 c 128,-1,42
 420 1155 420 1155 420 1130 c 0,43,44
 420 1126 420 1126 420 1123 c 128,-1,45
 420 1120 420 1120 420 1117 c 2,46,-1
 420 477 l 2,47,48
 420 455 420 455 420.5 442 c 128,-1,49
 421 429 421 429 423 404 c 128,-1,50
 425 379 425 379 430.5 363.5 c 128,-1,51
 436 348 436 348 445 331 c 128,-1,52
 454 314 454 314 469.5 305.5 c 128,-1,53
 485 297 485 297 506 297 c 0,16,17
706 2086 m 1,54,-1
 947 1683 l 1,55,-1
 588 1683 l 1,56,-1
 502 1968 l 1,57,-1
 416 1683 l 1,58,-1
 57 1683 l 1,59,-1
 298 2086 l 1,60,-1
 706 2086 l 1,54,-1
EndSplineSet
EndChar

StartChar: Odieresis
Encoding: 152 214 41
Width: 1004
VWidth: 0
Flags: W
HStem: -18 315<440.147 568.785> 1295 312<438.401 572.825> 1683 298<81 439 565 923>
VStem: 72 348<310.224 1282.91> 81 358<1683 1981> 565 358<298.144 951.812 1683 1981> 586 354<307.556 1288.34>
LayerCount: 2
Fore
SplineSet
506 -18 m 128,-1,1
 392 -18 392 -18 306.5 16 c 128,-1,2
 221 50 221 50 171 112 c 128,-1,3
 121 174 121 174 96.5 253.5 c 128,-1,4
 72 333 72 333 72 430 c 2,5,-1
 72 1189 l 2,6,7
 72 1388 72 1388 179.5 1497.5 c 128,-1,8
 287 1607 287 1607 506 1607 c 128,-1,9
 725 1607 725 1607 832.5 1497.5 c 128,-1,10
 940 1388 940 1388 940 1189 c 2,11,-1
 940 430 l 2,12,13
 940 333 940 333 915.5 253.5 c 128,-1,14
 891 174 891 174 841 112 c 128,-1,15
 791 50 791 50 705.5 16 c 128,-1,0
 620 -18 620 -18 506 -18 c 128,-1,1
506 297 m 0,16,17
 525 297 525 297 539.5 304.5 c 128,-1,18
 554 312 554 312 562.5 327.5 c 128,-1,19
 571 343 571 343 576 357 c 128,-1,20
 581 371 581 371 583 394.5 c 128,-1,21
 585 418 585 418 585.5 430.5 c 128,-1,22
 586 443 586 443 586 465 c 0,23,24
 586 470 586 470 586 473 c 2,25,-1
 586 1113 l 2,26,27
 586 1119 586 1119 586.5 1137 c 128,-1,28
 587 1155 587 1155 586.5 1164 c 128,-1,29
 586 1173 586 1173 585.5 1190.5 c 128,-1,30
 585 1208 585 1208 582.5 1217.5 c 128,-1,31
 580 1227 580 1227 576.5 1241.5 c 128,-1,32
 573 1256 573 1256 567 1263.5 c 128,-1,33
 561 1271 561 1271 553 1279.5 c 128,-1,34
 545 1288 545 1288 533 1291.5 c 128,-1,35
 521 1295 521 1295 506 1295 c 0,36,37
 485 1295 485 1295 469.5 1288 c 128,-1,38
 454 1281 454 1281 445 1265.5 c 128,-1,39
 436 1250 436 1250 430 1237.5 c 128,-1,40
 424 1225 424 1225 422 1200.5 c 128,-1,41
 420 1176 420 1176 420 1165.5 c 128,-1,42
 420 1155 420 1155 420 1130 c 0,43,44
 420 1126 420 1126 420 1123 c 128,-1,45
 420 1120 420 1120 420 1117 c 2,46,-1
 420 477 l 2,47,48
 420 455 420 455 420.5 442 c 128,-1,49
 421 429 421 429 423 404 c 128,-1,50
 425 379 425 379 430.5 363.5 c 128,-1,51
 436 348 436 348 445 331 c 128,-1,52
 454 314 454 314 469.5 305.5 c 128,-1,53
 485 297 485 297 506 297 c 0,16,17
81 1683 m 1,54,-1
 81 1981 l 1,55,-1
 439 1981 l 1,56,-1
 439 1683 l 1,57,-1
 81 1683 l 1,54,-1
565 1683 m 1,58,-1
 565 1981 l 1,59,-1
 923 1981 l 1,60,-1
 923 1683 l 1,61,-1
 565 1683 l 1,58,-1
EndSplineSet
EndChar

StartChar: Ograve
Encoding: 148 210 42
Width: 1004
VWidth: 0
Flags: W
HStem: -18 315<440.147 568.785> 1295 312<438.401 572.825>
VStem: 72 348<310.224 1282.91> 586 354<307.556 1288.34>
LayerCount: 2
Fore
SplineSet
506 -18 m 128,-1,1
 392 -18 392 -18 306.5 16 c 128,-1,2
 221 50 221 50 171 112 c 128,-1,3
 121 174 121 174 96.5 253.5 c 128,-1,4
 72 333 72 333 72 430 c 2,5,-1
 72 1189 l 2,6,7
 72 1388 72 1388 179.5 1497.5 c 128,-1,8
 287 1607 287 1607 506 1607 c 128,-1,9
 725 1607 725 1607 832.5 1497.5 c 128,-1,10
 940 1388 940 1388 940 1189 c 2,11,-1
 940 430 l 2,12,13
 940 333 940 333 915.5 253.5 c 128,-1,14
 891 174 891 174 841 112 c 128,-1,15
 791 50 791 50 705.5 16 c 128,-1,0
 620 -18 620 -18 506 -18 c 128,-1,1
506 297 m 0,16,17
 525 297 525 297 539.5 304.5 c 128,-1,18
 554 312 554 312 562.5 327.5 c 128,-1,19
 571 343 571 343 576 357 c 128,-1,20
 581 371 581 371 583 394.5 c 128,-1,21
 585 418 585 418 585.5 430.5 c 128,-1,22
 586 443 586 443 586 465 c 0,23,24
 586 470 586 470 586 473 c 2,25,-1
 586 1113 l 2,26,27
 586 1119 586 1119 586.5 1137 c 128,-1,28
 587 1155 587 1155 586.5 1164 c 128,-1,29
 586 1173 586 1173 585.5 1190.5 c 128,-1,30
 585 1208 585 1208 582.5 1217.5 c 128,-1,31
 580 1227 580 1227 576.5 1241.5 c 128,-1,32
 573 1256 573 1256 567 1263.5 c 128,-1,33
 561 1271 561 1271 553 1279.5 c 128,-1,34
 545 1288 545 1288 533 1291.5 c 128,-1,35
 521 1295 521 1295 506 1295 c 0,36,37
 485 1295 485 1295 469.5 1288 c 128,-1,38
 454 1281 454 1281 445 1265.5 c 128,-1,39
 436 1250 436 1250 430 1237.5 c 128,-1,40
 424 1225 424 1225 422 1200.5 c 128,-1,41
 420 1176 420 1176 420 1165.5 c 128,-1,42
 420 1155 420 1155 420 1130 c 0,43,44
 420 1126 420 1126 420 1123 c 128,-1,45
 420 1120 420 1120 420 1117 c 2,46,-1
 420 477 l 2,47,48
 420 455 420 455 420.5 442 c 128,-1,49
 421 429 421 429 423 404 c 128,-1,50
 425 379 425 379 430.5 363.5 c 128,-1,51
 436 348 436 348 445 331 c 128,-1,52
 454 314 454 314 469.5 305.5 c 128,-1,53
 485 297 485 297 506 297 c 0,16,17
723 1645 m 1,54,-1
 248 1739 l 1,55,-1
 248 2086 l 1,56,-1
 723 1868 l 1,57,-1
 723 1645 l 1,54,-1
EndSplineSet
EndChar

StartChar: Oslash
Encoding: 154 216 43
Width: 1004
VWidth: 0
Flags: W
HStem: -18 315<444.245 568.785> 1295 312<438.401 572.295> 1679 20G<708.435 786.143>
VStem: 72 348<639 1282.91> 586 354<307.556 846>
DStem2: 217 -92 317 -120 0.267894 0.963449<0 127.843 758.663 1002.57 1738.22 1858.68>
LayerCount: 2
Fore
SplineSet
506 -18 m 0,0,1
 422 -18 422 -18 351 1 c 1,2,-1
 317 -120 l 1,3,-1
 217 -92 l 1,4,-1
 254 42 l 1,5,6
 72 151 72 151 72 430 c 2,7,-1
 72 1189 l 2,8,9
 72 1388 72 1388 179.5 1497.5 c 128,-1,10
 287 1607 287 1607 506 1607 c 0,11,12
 604 1607 604 1607 682 1584 c 1,13,-1
 714 1699 l 1,14,-1
 815 1671 l 1,15,-1
 778 1540 l 1,16,17
 940 1437 940 1437 940 1189 c 2,18,-1
 940 430 l 2,19,20
 940 333 940 333 915.5 253.5 c 128,-1,21
 891 174 891 174 841 112 c 128,-1,22
 791 50 791 50 705.5 16 c 128,-1,23
 620 -18 620 -18 506 -18 c 0,0,1
506 1295 m 0,24,25
 485 1295 485 1295 469.5 1288 c 128,-1,26
 454 1281 454 1281 445 1265.5 c 128,-1,27
 436 1250 436 1250 430 1237.5 c 128,-1,28
 424 1225 424 1225 422 1200.5 c 128,-1,29
 420 1176 420 1176 420 1165.5 c 128,-1,30
 420 1155 420 1155 420 1130 c 0,31,32
 420 1126 420 1126 420 1123 c 128,-1,33
 420 1120 420 1120 420 1117 c 2,34,-1
 420 639 l 1,35,-1
 582 1222 l 1,36,37
 568 1295 568 1295 506 1295 c 0,24,25
506 297 m 0,38,39
 525 297 525 297 539.5 304.5 c 128,-1,40
 554 312 554 312 562.5 327.5 c 128,-1,41
 571 343 571 343 576 357 c 128,-1,42
 581 371 581 371 583 394.5 c 128,-1,43
 585 418 585 418 585.5 430.5 c 128,-1,44
 586 443 586 443 586 465 c 0,45,46
 586 470 586 470 586 473 c 2,47,-1
 586 846 l 1,48,-1
 443 333 l 1,49,50
 464 297 464 297 506 297 c 0,38,39
EndSplineSet
EndChar

StartChar: Otilde
Encoding: 151 213 44
Width: 1004
VWidth: 0
Flags: W
HStem: -18 315<440.147 568.785> 1295 312<438.401 572.825> 1694 278<504.779 653.281> 1715 21G<265.113 320> 1804 276<323.094 463>
VStem: 72 348<310.224 1282.91> 586 354<307.556 1288.34>
LayerCount: 2
Fore
SplineSet
506 -18 m 128,-1,1
 392 -18 392 -18 306.5 16 c 128,-1,2
 221 50 221 50 171 112 c 128,-1,3
 121 174 121 174 96.5 253.5 c 128,-1,4
 72 333 72 333 72 430 c 2,5,-1
 72 1189 l 2,6,7
 72 1388 72 1388 179.5 1497.5 c 128,-1,8
 287 1607 287 1607 506 1607 c 128,-1,9
 725 1607 725 1607 832.5 1497.5 c 128,-1,10
 940 1388 940 1388 940 1189 c 2,11,-1
 940 430 l 2,12,13
 940 333 940 333 915.5 253.5 c 128,-1,14
 891 174 891 174 841 112 c 128,-1,15
 791 50 791 50 705.5 16 c 128,-1,0
 620 -18 620 -18 506 -18 c 128,-1,1
506 297 m 0,16,17
 525 297 525 297 539.5 304.5 c 128,-1,18
 554 312 554 312 562.5 327.5 c 128,-1,19
 571 343 571 343 576 357 c 128,-1,20
 581 371 581 371 583 394.5 c 128,-1,21
 585 418 585 418 585.5 430.5 c 128,-1,22
 586 443 586 443 586 465 c 0,23,24
 586 470 586 470 586 473 c 2,25,-1
 586 1113 l 2,26,27
 586 1119 586 1119 586.5 1137 c 128,-1,28
 587 1155 587 1155 586.5 1164 c 128,-1,29
 586 1173 586 1173 585.5 1190.5 c 128,-1,30
 585 1208 585 1208 582.5 1217.5 c 128,-1,31
 580 1227 580 1227 576.5 1241.5 c 128,-1,32
 573 1256 573 1256 567 1263.5 c 128,-1,33
 561 1271 561 1271 553 1279.5 c 128,-1,34
 545 1288 545 1288 533 1291.5 c 128,-1,35
 521 1295 521 1295 506 1295 c 0,36,37
 485 1295 485 1295 469.5 1288 c 128,-1,38
 454 1281 454 1281 445 1265.5 c 128,-1,39
 436 1250 436 1250 430 1237.5 c 128,-1,40
 424 1225 424 1225 422 1200.5 c 128,-1,41
 420 1176 420 1176 420 1165.5 c 128,-1,42
 420 1155 420 1155 420 1130 c 0,43,44
 420 1126 420 1126 420 1123 c 128,-1,45
 420 1120 420 1120 420 1117 c 2,46,-1
 420 477 l 2,47,48
 420 455 420 455 420.5 442 c 128,-1,49
 421 429 421 429 423 404 c 128,-1,50
 425 379 425 379 430.5 363.5 c 128,-1,51
 436 348 436 348 445 331 c 128,-1,52
 454 314 454 314 469.5 305.5 c 128,-1,53
 485 297 485 297 506 297 c 0,16,17
365 1804 m 0,54,55
 333 1804 333 1804 307 1715 c 1,56,-1
 85 1821 l 1,57,58
 138 1951 138 1951 205.5 2015.5 c 128,-1,59
 273 2080 273 2080 365 2080 c 0,60,61
 403 2080 403 2080 447 2053 c 128,-1,62
 491 2026 491 2026 533 1999 c 128,-1,63
 575 1972 575 1972 608 1972 c 128,-1,64
 641 1972 641 1972 667 2051 c 1,65,-1
 899 1995 l 1,66,67
 844 1845 844 1845 773 1769.5 c 128,-1,68
 702 1694 702 1694 607 1694 c 0,69,70
 572 1694 572 1694 536 1711 c 128,-1,71
 500 1728 500 1728 475.5 1749 c 128,-1,72
 451 1770 451 1770 420.5 1787 c 128,-1,73
 390 1804 390 1804 365 1804 c 0,54,55
EndSplineSet
EndChar

StartChar: P
Encoding: 53 80 45
Width: 981
VWidth: 0
Flags: W
HStem: 0 21G<80 426> 631 287<426 562.958> 1303 290<426 559.631>
VStem: 80 346<0 631 918 1303> 588 348<936.26 1269.28>
LayerCount: 2
Fore
SplineSet
80 0 m 1,0,-1
 80 1593 l 1,1,-1
 545 1593 l 2,2,3
 637 1593 637 1593 706 1569 c 128,-1,4
 775 1545 775 1545 828 1491 c 128,-1,5
 881 1437 881 1437 908.5 1341.5 c 128,-1,6
 936 1246 936 1246 936 1110 c 0,7,8
 936 993 936 993 919.5 909.5 c 128,-1,9
 903 826 903 826 863 761 c 128,-1,10
 823 696 823 696 749.5 663.5 c 128,-1,11
 676 631 676 631 569 631 c 2,12,-1
 426 631 l 1,13,-1
 426 0 l 1,14,-1
 80 0 l 1,0,-1
426 1303 m 1,15,-1
 426 918 l 1,16,-1
 446 918 l 2,17,18
 474 918 474 918 488.5 919.5 c 128,-1,19
 503 921 503 921 522.5 926.5 c 128,-1,20
 542 932 542 932 551.5 944.5 c 128,-1,21
 561 957 561 957 571 978.5 c 128,-1,22
 581 1000 581 1000 584.5 1034 c 128,-1,23
 588 1068 588 1068 588 1116 c 0,24,25
 588 1221 588 1221 560.5 1262 c 128,-1,26
 533 1303 533 1303 465 1303 c 2,27,-1
 426 1303 l 1,15,-1
EndSplineSet
EndChar

StartChar: Q
Encoding: 54 81 46
Width: 1063
VWidth: 0
Flags: W
HStem: -18 317<440.169 569.294> 1292 314<433.858 572.16>
VStem: 72 348<312.194 1279.97> 586 354<342.14 1279.97>
LayerCount: 2
Fore
SplineSet
506 -18 m 0,0,1
 392 -18 392 -18 307 14 c 128,-1,2
 222 46 222 46 171.5 105.5 c 128,-1,3
 121 165 121 165 96.5 243 c 128,-1,4
 72 321 72 321 72 418 c 2,5,-1
 72 1186 l 2,6,7
 72 1385 72 1385 180 1495.5 c 128,-1,8
 288 1606 288 1606 506 1606 c 128,-1,9
 724 1606 724 1606 832 1495.5 c 128,-1,10
 940 1385 940 1385 940 1186 c 2,11,-1
 940 418 l 2,12,13
 940 222 940 222 842 109 c 1,14,-1
 993 20 l 1,15,-1
 874 -170 l 1,16,-1
 594 -8 l 1,17,18
 526 -18 526 -18 506 -18 c 0,0,1
506 299 m 0,19,20
 550 299 550 299 569 341 c 0,21,22
 586 377 586 377 586 475 c 2,23,-1
 586 1110 l 2,24,25
 586 1113 586 1113 586 1133.5 c 128,-1,26
 586 1154 586 1154 586 1160.5 c 128,-1,27
 586 1167 586 1167 585 1186.5 c 128,-1,28
 584 1206 584 1206 581.5 1214.5 c 128,-1,29
 579 1223 579 1223 575.5 1238 c 128,-1,30
 572 1253 572 1253 565.5 1260.5 c 128,-1,31
 559 1268 559 1268 551 1276.5 c 128,-1,32
 543 1285 543 1285 531 1288.5 c 128,-1,33
 519 1292 519 1292 504 1292 c 128,-1,34
 489 1292 489 1292 476.5 1288.5 c 128,-1,35
 464 1285 464 1285 455.5 1276.5 c 128,-1,36
 447 1268 447 1268 440.5 1260 c 128,-1,37
 434 1252 434 1252 430.5 1237.5 c 128,-1,38
 427 1223 427 1223 424.5 1214 c 128,-1,39
 422 1205 422 1205 421 1187 c 128,-1,40
 420 1169 420 1169 420 1161.5 c 128,-1,41
 420 1154 420 1154 420 1135.5 c 128,-1,42
 420 1117 420 1117 420 1114 c 2,43,-1
 420 479 l 2,44,45
 420 457 420 457 420.5 444 c 128,-1,46
 421 431 421 431 423 406 c 128,-1,47
 425 381 425 381 430.5 365.5 c 128,-1,48
 436 350 436 350 445 333 c 128,-1,49
 454 316 454 316 469.5 307.5 c 128,-1,50
 485 299 485 299 506 299 c 0,19,20
EndSplineSet
EndChar

StartChar: R
Encoding: 55 82 47
Width: 1001
VWidth: 0
Flags: W
HStem: 0 21G<72 428 561 907> 1573 20G<72 653.5>
VStem: 72 356<0 725 1001 1298> 561 348<0 715.185> 588 344<1007.02 1270.14>
LayerCount: 2
Fore
SplineSet
428 725 m 1,0,1
 428 0 l 1,2,-1
 72 0 l 1,3,-1
 72 1593 l 1,4,-1
 612 1593 l 2,5,6
 695 1593 695 1593 754 1570.5 c 128,-1,7
 813 1548 813 1548 847 1511.5 c 128,-1,8
 881 1475 881 1475 900.5 1414.5 c 128,-1,9
 920 1354 920 1354 926 1293.5 c 128,-1,10
 932 1233 932 1233 932 1147 c 0,11,12
 932 1102 932 1102 930.5 1073.5 c 128,-1,13
 929 1045 929 1045 919.5 1001.5 c 128,-1,14
 910 958 910 958 893 929 c 128,-1,15
 876 900 876 900 841.5 872 c 128,-1,16
 807 844 807 844 758 829 c 1,17,18
 807 820 807 820 839 795.5 c 128,-1,19
 871 771 871 771 885 735 c 128,-1,20
 899 699 899 699 904 668.5 c 128,-1,21
 909 638 909 638 909 600 c 0,22,23
 909 205 909 205 905 0 c 1,24,-1
 561 0 l 1,25,-1
 561 621 l 2,26,27
 561 658 561 658 553.5 680 c 128,-1,28
 546 702 546 702 525.5 711.5 c 128,-1,29
 505 721 505 721 486 723 c 128,-1,30
 467 725 467 725 428 725 c 1,0,1
430 1298 m 1,31,-1
 430 1001 l 1,32,-1
 518 1001 l 2,33,34
 588 1001 588 1001 588 1147 c 0,35,36
 588 1244 588 1244 560.5 1271 c 128,-1,37
 533 1298 533 1298 449 1298 c 2,38,-1
 430 1298 l 1,31,-1
EndSplineSet
EndChar

StartChar: S
Encoding: 56 83 48
Width: 995
VWidth: 0
Flags: W
HStem: -18 317<432.761 562.662> 1300 307<428.268 552.498>
VStem: 66 337<324.295 596 1127.12 1282.52> 582 348<329.942 566.169>
DStem2: 715 903 246 838 0.77801 -0.628252<-435.579 115.117>
LayerCount: 2
Fore
SplineSet
520 -18 m 0,0,1
 275 -18 275 -18 170.5 94 c 128,-1,2
 66 206 66 206 66 440 c 2,3,-1
 66 596 l 1,4,-1
 414 596 l 1,5,-1
 414 453 l 2,6,7
 414 299 414 299 498 299 c 0,8,9
 537 299 537 299 559.5 329 c 128,-1,10
 582 359 582 359 582 408 c 0,11,12
 582 472 582 472 564.5 516 c 128,-1,13
 547 560 547 560 511.5 599.5 c 128,-1,14
 476 639 476 639 395 709 c 2,15,-1
 246 838 l 2,16,17
 66 993 66 993 66 1188 c 0,18,19
 66 1400 66 1400 174.5 1503.5 c 128,-1,20
 283 1607 283 1607 473 1607 c 0,21,22
 478 1607 478 1607 482 1607 c 128,-1,23
 486 1607 486 1607 490 1607 c 0,24,25
 584 1607 584 1607 660 1585 c 0,26,27
 738 1562 738 1562 798 1509.5 c 128,-1,28
 858 1457 858 1457 888 1363.5 c 128,-1,29
 918 1270 918 1270 918 1135 c 1,30,-1
 561 1135 l 1,31,-1
 559 1231 l 2,32,33
 558 1258 558 1258 536 1279 c 128,-1,34
 514 1300 514 1300 487 1300 c 0,35,36
 452 1300 452 1300 427.5 1278.5 c 128,-1,37
 403 1257 403 1257 403 1223 c 0,38,39
 403 1155 403 1155 502 1075 c 2,40,-1
 715 903 l 2,41,42
 767 861 767 861 805.5 817.5 c 128,-1,43
 844 774 844 774 866.5 731.5 c 128,-1,44
 889 689 889 689 903 654.5 c 128,-1,45
 917 620 917 620 922.5 579.5 c 128,-1,46
 928 539 928 539 929 518.5 c 128,-1,47
 930 498 930 498 930 465 c 0,48,49
 930 381 930 381 919 312.5 c 128,-1,50
 908 244 908 244 880 180.5 c 128,-1,51
 852 117 852 117 806.5 74.5 c 128,-1,52
 761 32 761 32 688.5 7 c 128,-1,53
 616 -18 616 -18 520 -18 c 0,0,1
EndSplineSet
EndChar

StartChar: Scaron
Encoding: 196 352 49
Width: 995
VWidth: 0
Flags: W
HStem: -18 317<432.761 562.662> 1300 307<428.268 552.874> 1683 403<293 411 583 701> 1683 118<293 701>
VStem: 66 337<324.295 596 1127.12 1282.52 2085.4 2086> 582 348<329.942 566.169 2081.89 2086>
DStem2: 715 903 246 838 0.77801 -0.628252<-435.579 115.117>
LayerCount: 2
Fore
SplineSet
520 -18 m 0,0,1
 275 -18 275 -18 170.5 94 c 128,-1,2
 66 206 66 206 66 440 c 2,3,-1
 66 596 l 1,4,-1
 414 596 l 1,5,-1
 414 453 l 2,6,7
 414 299 414 299 498 299 c 0,8,9
 537 299 537 299 559.5 329 c 128,-1,10
 582 359 582 359 582 408 c 0,11,12
 582 472 582 472 564.5 516 c 128,-1,13
 547 560 547 560 511.5 599.5 c 128,-1,14
 476 639 476 639 395 709 c 2,15,-1
 246 838 l 2,16,17
 66 993 66 993 66 1188 c 0,18,19
 66 1400 66 1400 174.5 1503.5 c 128,-1,20
 283 1607 283 1607 473 1607 c 0,21,22
 581 1608 581 1608 659.5 1585 c 128,-1,23
 738 1562 738 1562 798 1509.5 c 128,-1,24
 858 1457 858 1457 888 1363.5 c 128,-1,25
 918 1270 918 1270 918 1135 c 1,26,-1
 561 1135 l 1,27,-1
 559 1231 l 2,28,29
 558 1258 558 1258 536 1279 c 128,-1,30
 514 1300 514 1300 487 1300 c 0,31,32
 452 1300 452 1300 427.5 1278.5 c 128,-1,33
 403 1257 403 1257 403 1223 c 0,34,35
 403 1155 403 1155 502 1075 c 2,36,-1
 715 903 l 2,37,38
 767 861 767 861 805.5 817.5 c 128,-1,39
 844 774 844 774 866.5 731.5 c 128,-1,40
 889 689 889 689 903 654.5 c 128,-1,41
 917 620 917 620 922.5 579.5 c 128,-1,42
 928 539 928 539 929 518.5 c 128,-1,43
 930 498 930 498 930 465 c 0,44,45
 930 381 930 381 919 312.5 c 128,-1,46
 908 244 908 244 880 180.5 c 128,-1,47
 852 117 852 117 806.5 74.5 c 128,-1,48
 761 32 761 32 688.5 7 c 128,-1,49
 616 -18 616 -18 520 -18 c 0,0,1
701 1683 m 1,50,-1
 293 1683 l 1,51,-1
 52 2086 l 1,52,-1
 411 2086 l 1,53,-1
 497 1801 l 1,54,-1
 583 2086 l 1,55,-1
 942 2086 l 1,56,-1
 701 1683 l 1,50,-1
EndSplineSet
EndChar

StartChar: T
Encoding: 57 84 50
Width: 903
VWidth: 0
Flags: W
HStem: 0 21G<275 627> 1286 307<66 275 627 836>
VStem: 275 352<0 1286>
LayerCount: 2
Fore
SplineSet
66 1593 m 1,0,-1
 836 1593 l 1,1,-1
 836 1286 l 1,2,-1
 627 1286 l 1,3,-1
 627 0 l 1,4,-1
 275 0 l 1,5,-1
 275 1286 l 1,6,-1
 66 1286 l 1,7,-1
 66 1593 l 1,0,-1
EndSplineSet
EndChar

StartChar: Thorn
Encoding: 159 222 51
Width: 942
VWidth: 0
Flags: W
HStem: 0 21G<67 413> 336 287<413 546.337> 1573 20G<67 412>
VStem: 67 346<0 336 623 1128 1418 1593> 575 348<647.612 1072.81>
LayerCount: 2
Fore
SplineSet
67 0 m 1,0,-1
 67 1593 l 1,1,-1
 412 1593 l 1,2,-1
 412 1418 l 1,3,-1
 532 1418 l 2,4,5
 624 1418 624 1418 693 1391.5 c 128,-1,6
 762 1365 762 1365 815 1304.5 c 128,-1,7
 868 1244 868 1244 895.5 1136 c 128,-1,8
 923 1028 923 1028 923 875 c 0,9,10
 923 771 923 771 913 691.5 c 128,-1,11
 903 612 903 612 878 543 c 128,-1,12
 853 474 853 474 812 430 c 128,-1,13
 771 386 771 386 706.5 361 c 128,-1,14
 642 336 642 336 556 336 c 2,15,-1
 413 336 l 1,16,-1
 413 0 l 1,17,-1
 67 0 l 1,0,-1
413 1128 m 1,18,-1
 413 623 l 1,19,-1
 433 623 l 2,20,21
 467 623 467 623 483.5 625.5 c 128,-1,22
 500 628 500 628 521.5 641 c 128,-1,23
 543 654 543 654 552 680.5 c 128,-1,24
 561 707 561 707 568 756.5 c 128,-1,25
 575 806 575 806 575 881 c 0,26,27
 575 1021 575 1021 547.5 1074.5 c 128,-1,28
 520 1128 520 1128 452 1128 c 2,29,-1
 413 1128 l 1,18,-1
EndSplineSet
EndChar

StartChar: U
Encoding: 58 85 52
Width: 1014
VWidth: 0
Flags: W
HStem: -18 303<435.509 572.215> 1573 20G<76 418 590 932>
VStem: 76 342<297.156 1593> 590 342<297.156 1593>
LayerCount: 2
Fore
SplineSet
504 -18 m 128,-1,1
 283 -18 283 -18 179.5 94 c 128,-1,2
 76 206 76 206 76 422 c 2,3,-1
 76 1593 l 1,4,-1
 418 1593 l 1,5,-1
 418 453 l 2,6,7
 418 451 418 451 418 446 c 0,8,9
 418 420 418 420 418.5 405 c 128,-1,10
 419 390 419 390 423.5 364 c 128,-1,11
 428 338 428 338 436.5 323 c 128,-1,12
 445 308 445 308 462 296.5 c 128,-1,13
 479 285 479 285 504 285 c 0,14,15
 525 285 525 285 540.5 292 c 128,-1,16
 556 299 556 299 565 313.5 c 128,-1,17
 574 328 574 328 579.5 341.5 c 128,-1,18
 585 355 585 355 587 377.5 c 128,-1,19
 589 400 589 400 589.5 412 c 128,-1,20
 590 424 590 424 590 446 c 0,21,22
 590 451 590 451 590 453 c 2,23,-1
 590 1593 l 1,24,-1
 932 1593 l 1,25,-1
 932 422 l 2,26,27
 932 206 932 206 828.5 94 c 128,-1,0
 725 -18 725 -18 504 -18 c 128,-1,1
EndSplineSet
EndChar

StartChar: Uacute
Encoding: 156 218 53
Width: 1014
VWidth: 0
Flags: W
HStem: -18 303<435.509 572.215> 1573 20G<76 418 590 932>
VStem: 76 342<297.156 1593> 590 342<297.156 1593>
LayerCount: 2
Fore
SplineSet
504 -18 m 128,-1,1
 283 -18 283 -18 179.5 94 c 128,-1,2
 76 206 76 206 76 422 c 2,3,-1
 76 1593 l 1,4,-1
 418 1593 l 1,5,-1
 418 453 l 2,6,7
 418 451 418 451 418 446 c 0,8,9
 418 420 418 420 418.5 405 c 128,-1,10
 419 390 419 390 423.5 364 c 128,-1,11
 428 338 428 338 436.5 323 c 128,-1,12
 445 308 445 308 462 296.5 c 128,-1,13
 479 285 479 285 504 285 c 0,14,15
 525 285 525 285 540.5 292 c 128,-1,16
 556 299 556 299 565 313.5 c 128,-1,17
 574 328 574 328 579.5 341.5 c 128,-1,18
 585 355 585 355 587 377.5 c 128,-1,19
 589 400 589 400 589.5 412 c 128,-1,20
 590 424 590 424 590 446 c 0,21,22
 590 451 590 451 590 453 c 2,23,-1
 590 1593 l 1,24,-1
 932 1593 l 1,25,-1
 932 422 l 2,26,27
 932 206 932 206 828.5 94 c 128,-1,0
 725 -18 725 -18 504 -18 c 128,-1,1
243 1645 m 1,28,-1
 243 1868 l 1,29,-1
 718 2086 l 1,30,-1
 718 1739 l 1,31,-1
 243 1645 l 1,28,-1
EndSplineSet
EndChar

StartChar: Ucircumflex
Encoding: 157 219 54
Width: 1014
VWidth: 0
Flags: W
HStem: -18 303<435.509 572.215> 1573 20G<76 418 590 932> 1683 403<303 421 593 711> 1968 118<303 711>
VStem: 76 342<297.156 1593 1683 1683.6> 590 342<297.156 1593>
LayerCount: 2
Fore
SplineSet
504 -18 m 128,-1,1
 283 -18 283 -18 179.5 94 c 128,-1,2
 76 206 76 206 76 422 c 2,3,-1
 76 1593 l 1,4,-1
 418 1593 l 1,5,-1
 418 453 l 2,6,7
 418 451 418 451 418 446 c 0,8,9
 418 420 418 420 418.5 405 c 128,-1,10
 419 390 419 390 423.5 364 c 128,-1,11
 428 338 428 338 436.5 323 c 128,-1,12
 445 308 445 308 462 296.5 c 128,-1,13
 479 285 479 285 504 285 c 0,14,15
 525 285 525 285 540.5 292 c 128,-1,16
 556 299 556 299 565 313.5 c 128,-1,17
 574 328 574 328 579.5 341.5 c 128,-1,18
 585 355 585 355 587 377.5 c 128,-1,19
 589 400 589 400 589.5 412 c 128,-1,20
 590 424 590 424 590 446 c 0,21,22
 590 451 590 451 590 453 c 2,23,-1
 590 1593 l 1,24,-1
 932 1593 l 1,25,-1
 932 422 l 2,26,27
 932 206 932 206 828.5 94 c 128,-1,0
 725 -18 725 -18 504 -18 c 128,-1,1
711 2086 m 1,28,-1
 952 1683 l 1,29,-1
 593 1683 l 1,30,-1
 507 1968 l 1,31,-1
 421 1683 l 1,32,-1
 62 1683 l 1,33,-1
 303 2086 l 1,34,-1
 711 2086 l 1,28,-1
EndSplineSet
EndChar

StartChar: Udieresis
Encoding: 158 220 55
Width: 1014
VWidth: 0
Flags: W
HStem: -18 303<435.509 572.215> 1573 20G<76 418 590 932> 1683 298<86 444 570 928>
VStem: 76 342<297.156 1593> 86 358<1683 1981> 570 358<1683 1981> 590 342<297.156 1593>
LayerCount: 2
Fore
SplineSet
504 -18 m 128,-1,1
 283 -18 283 -18 179.5 94 c 128,-1,2
 76 206 76 206 76 422 c 2,3,-1
 76 1593 l 1,4,-1
 418 1593 l 1,5,-1
 418 453 l 2,6,7
 418 451 418 451 418 446 c 0,8,9
 418 420 418 420 418.5 405 c 128,-1,10
 419 390 419 390 423.5 364 c 128,-1,11
 428 338 428 338 436.5 323 c 128,-1,12
 445 308 445 308 462 296.5 c 128,-1,13
 479 285 479 285 504 285 c 0,14,15
 525 285 525 285 540.5 292 c 128,-1,16
 556 299 556 299 565 313.5 c 128,-1,17
 574 328 574 328 579.5 341.5 c 128,-1,18
 585 355 585 355 587 377.5 c 128,-1,19
 589 400 589 400 589.5 412 c 128,-1,20
 590 424 590 424 590 446 c 0,21,22
 590 451 590 451 590 453 c 2,23,-1
 590 1593 l 1,24,-1
 932 1593 l 1,25,-1
 932 422 l 2,26,27
 932 206 932 206 828.5 94 c 128,-1,0
 725 -18 725 -18 504 -18 c 128,-1,1
86 1683 m 1,28,-1
 86 1981 l 1,29,-1
 444 1981 l 1,30,-1
 444 1683 l 1,31,-1
 86 1683 l 1,28,-1
570 1683 m 1,32,-1
 570 1981 l 1,33,-1
 928 1981 l 1,34,-1
 928 1683 l 1,35,-1
 570 1683 l 1,32,-1
EndSplineSet
EndChar

StartChar: Ugrave
Encoding: 155 217 56
Width: 1014
VWidth: 0
Flags: W
HStem: -18 303<435.509 572.215> 1573 20G<76 418 590 932>
VStem: 76 342<297.156 1593> 590 342<297.156 1593>
LayerCount: 2
Fore
SplineSet
504 -18 m 128,-1,1
 283 -18 283 -18 179.5 94 c 128,-1,2
 76 206 76 206 76 422 c 2,3,-1
 76 1593 l 1,4,-1
 418 1593 l 1,5,-1
 418 453 l 2,6,7
 418 451 418 451 418 446 c 0,8,9
 418 420 418 420 418.5 405 c 128,-1,10
 419 390 419 390 423.5 364 c 128,-1,11
 428 338 428 338 436.5 323 c 128,-1,12
 445 308 445 308 462 296.5 c 128,-1,13
 479 285 479 285 504 285 c 0,14,15
 525 285 525 285 540.5 292 c 128,-1,16
 556 299 556 299 565 313.5 c 128,-1,17
 574 328 574 328 579.5 341.5 c 128,-1,18
 585 355 585 355 587 377.5 c 128,-1,19
 589 400 589 400 589.5 412 c 128,-1,20
 590 424 590 424 590 446 c 0,21,22
 590 451 590 451 590 453 c 2,23,-1
 590 1593 l 1,24,-1
 932 1593 l 1,25,-1
 932 422 l 2,26,27
 932 206 932 206 828.5 94 c 128,-1,0
 725 -18 725 -18 504 -18 c 128,-1,1
728 1645 m 1,28,-1
 253 1739 l 1,29,-1
 253 2086 l 1,30,-1
 728 1868 l 1,31,-1
 728 1645 l 1,28,-1
EndSplineSet
EndChar

StartChar: V
Encoding: 59 86 57
Width: 1028
VWidth: 0
Flags: W
HStem: 0 21G<273.276 758.724> 1573 20G<59 415.875 616.011 973>
VStem: 59 355<1238 1593> 618 355<1238 1593>
LayerCount: 2
Fore
SplineSet
756 0 m 1,0,-1
 276 0 l 1,1,-1
 59 1593 l 1,2,-1
 414 1593 l 1,3,-1
 513 537 l 1,4,-1
 618 1593 l 1,5,-1
 973 1593 l 1,6,-1
 756 0 l 1,0,-1
EndSplineSet
EndChar

StartChar: W
Encoding: 60 87 58
Width: 1532
VWidth: 0
Flags: W
HStem: 0 588<560 1570> 1573 20G<64 409.93 602.03 933.871 1118.13 1468>
VStem: 64 344<1249 1593> 1120 348<1245 1593>
DStem2: 408 1593 64 1593 0.117818 -0.993035<0 1009.43>
LayerCount: 2
Fore
SplineSet
505 588 m 1,0,-1
 604 1593 l 1,1,-1
 932 1593 l 1,2,-1
 1026 588 l 1,3,-1
 1120 1593 l 1,4,-1
 1468 1593 l 1,5,-1
 1276 0 l 1,6,-1
 854 0 l 1,7,-1
 766 768 l 1,8,-1
 682 0 l 1,9,-1
 253 0 l 1,10,-1
 64 1593 l 1,11,-1
 408 1593 l 1,12,-1
 505 588 l 1,0,-1
EndSplineSet
EndChar

StartChar: X
Encoding: 61 88 59
Width: 1067
VWidth: 0
Flags: W
HStem: 0 21G<63 423.66 641.437 1001> 1573 20G<102 449.346 615.022 963>
VStem: 63 357<0 357> 102 344<1249 1593> 618 345<1248 1593> 645 356<0 356>
DStem2: 446 1593 102 1593 0.196873 -0.980429<0 551.269>
LayerCount: 2
Fore
SplineSet
534 623 m 1,0,-1
 420 0 l 1,1,-1
 63 0 l 1,2,-1
 252 846 l 1,3,-1
 102 1593 l 1,4,-1
 446 1593 l 1,5,-1
 537 1049 l 1,6,-1
 618 1593 l 1,7,-1
 963 1593 l 1,8,-1
 813 846 l 1,9,-1
 1001 0 l 1,10,-1
 645 0 l 1,11,-1
 534 623 l 1,0,-1
EndSplineSet
EndChar

StartChar: Y
Encoding: 62 89 60
Width: 1022
VWidth: 0
Flags: W
HStem: 0 21G<342 674> 1573 20G<61 413.63 602.37 954>
VStem: 342 332<0 578.538>
LayerCount: 2
Fore
SplineSet
674 0 m 1,0,-1
 342 0 l 1,1,-1
 342 524 l 1,2,-1
 61 1593 l 1,3,-1
 410 1593 l 1,4,-1
 508 1053 l 1,5,-1
 606 1593 l 1,6,-1
 954 1593 l 1,7,-1
 674 524 l 1,8,-1
 674 0 l 1,0,-1
EndSplineSet
EndChar

StartChar: Ydieresis
Encoding: 198 376 61
Width: 1022
VWidth: 0
Flags: W
HStem: 0 21G<342 674> 1573 20G<61 413.63 602.37 954> 1683 298<90 448 574 932>
VStem: 90 358<1683 1981> 342 332<0 578.538> 574 358<1683 1981>
LayerCount: 2
Fore
SplineSet
674 0 m 1,0,-1
 342 0 l 1,1,-1
 342 524 l 1,2,-1
 61 1593 l 1,3,-1
 410 1593 l 1,4,-1
 508 1053 l 1,5,-1
 606 1593 l 1,6,-1
 954 1593 l 1,7,-1
 674 524 l 1,8,-1
 674 0 l 1,0,-1
90 1683 m 1,9,-1
 90 1981 l 1,10,-1
 448 1981 l 1,11,-1
 448 1683 l 1,12,-1
 90 1683 l 1,9,-1
574 1683 m 1,13,-1
 574 1981 l 1,14,-1
 932 1981 l 1,15,-1
 932 1683 l 1,16,-1
 574 1683 l 1,13,-1
EndSplineSet
EndChar

StartChar: Z
Encoding: 63 90 62
Width: 954
VWidth: 0
Flags: W
HStem: 0 307<453 866> 1284 309<109 492>
DStem2: 70 303 453 307 0.398726 0.91707<156.38 1067.91>
LayerCount: 2
Fore
SplineSet
70 0 m 1,0,-1
 70 303 l 1,1,-1
 492 1284 l 1,2,-1
 109 1284 l 1,3,-1
 109 1593 l 1,4,-1
 883 1593 l 1,5,-1
 883 1296 l 1,6,-1
 453 307 l 1,7,-1
 866 307 l 1,8,-1
 866 0 l 1,9,-1
 70 0 l 1,0,-1
EndSplineSet
EndChar

StartChar: Zcaron
Encoding: 199 381 63
Width: 954
VWidth: 0
Flags: W
HStem: 0 307<453 866> 1284 309<109 492> 1683 403<273 391 563 681> 1683 118<273 681>
DStem2: 70 303 453 307 0.398726 0.91707<156.38 1067.91>
LayerCount: 2
Fore
SplineSet
70 0 m 1,0,-1
 70 303 l 1,1,-1
 492 1284 l 1,2,-1
 109 1284 l 1,3,-1
 109 1593 l 1,4,-1
 883 1593 l 1,5,-1
 883 1296 l 1,6,-1
 453 307 l 1,7,-1
 866 307 l 1,8,-1
 866 0 l 1,9,-1
 70 0 l 1,0,-1
681 1683 m 1,10,-1
 273 1683 l 1,11,-1
 32 2086 l 1,12,-1
 391 2086 l 1,13,-1
 477 1801 l 1,14,-1
 563 2086 l 1,15,-1
 922 2086 l 1,16,-1
 681 1683 l 1,10,-1
EndSplineSet
EndChar

StartChar: a
Encoding: 70 97 64
Width: 1018
VWidth: 0
Flags: W
HStem: -18 280<338 517> 0 21G<588 944> 1239 279<438.385 567.577>
VStem: 61 365<271.827 685.949> 83 349<1056 1233.11> 582 362<0 156 269.62 774 966.154 1231.81>
LayerCount: 2
Fore
SplineSet
61 430 m 0,0,1
 61 629 61 629 120 729 c 0,2,3
 171 815 171 815 297 874 c 0,4,5
 361 904 361 904 583 980 c 0,6,7
 583 981 583 981 583 983 c 0,8,9
 583 1015 583 1015 582.5 1035 c 128,-1,10
 582 1055 582 1055 581.5 1080 c 128,-1,11
 581 1105 581 1105 580 1120 c 128,-1,12
 579 1135 579 1135 577 1153 c 128,-1,13
 575 1171 575 1171 572.5 1180.5 c 128,-1,14
 570 1190 570 1190 565.5 1201.5 c 128,-1,15
 561 1213 561 1213 555.5 1219 c 128,-1,16
 550 1225 550 1225 543 1230 c 128,-1,17
 536 1235 536 1235 526.5 1237 c 128,-1,18
 517 1239 517 1239 506 1239 c 0,19,20
 432 1239 432 1239 432 1157 c 2,21,-1
 432 1056 l 1,22,-1
 84 1056 l 1,23,24
 83 1073 83 1073 83 1105 c 0,25,26
 83 1319 83 1319 184.5 1418.5 c 128,-1,27
 286 1518 286 1518 524 1518 c 0,28,29
 601 1518 601 1518 673 1496.5 c 128,-1,30
 745 1475 745 1475 807 1432.5 c 128,-1,31
 869 1390 869 1390 906.5 1315 c 128,-1,32
 944 1240 944 1240 944 1143 c 2,33,-1
 944 0 l 1,34,-1
 588 0 l 1,35,-1
 588 156 l 1,36,37
 570 90 570 90 505 36 c 128,-1,38
 440 -18 440 -18 365 -18 c 0,39,40
 311 -18 311 -18 270 -8.5 c 128,-1,41
 229 1 229 1 188 30 c 128,-1,42
 147 59 147 59 120.5 107.5 c 128,-1,43
 94 156 94 156 77.5 237.5 c 128,-1,44
 61 319 61 319 61 430 c 0,0,1
426 570 m 2,45,46
 426 395 l 2,47,48
 426 262 426 262 506 262 c 0,49,50
 528 262 528 262 544 274 c 128,-1,51
 560 286 560 286 568 305 c 128,-1,52
 576 324 576 324 579 342 c 128,-1,53
 582 360 582 360 582 379 c 2,54,-1
 582 774 l 1,55,56
 490 737 490 737 458 687.5 c 128,-1,57
 426 638 426 638 426 570 c 2,45,46
EndSplineSet
EndChar

StartChar: aacute
Encoding: 162 225 65
Width: 1018
VWidth: 0
Flags: W
HStem: -18 280<338 517> 0 21G<588 944> 1239 279<438.385 567.577>
VStem: 61 365<271.827 685.949> 83 349<1056 1233.11> 582 362<0 156 269.62 774 966.154 1231.81>
LayerCount: 2
Fore
SplineSet
61 430 m 0,0,1
 61 629 61 629 120 729 c 0,2,3
 171 815 171 815 297 874 c 0,4,5
 361 904 361 904 583 980 c 0,6,7
 583 981 583 981 583 983 c 0,8,9
 583 1015 583 1015 582.5 1035 c 128,-1,10
 582 1055 582 1055 581.5 1080 c 128,-1,11
 581 1105 581 1105 580 1120 c 128,-1,12
 579 1135 579 1135 577 1153 c 128,-1,13
 575 1171 575 1171 572.5 1180.5 c 128,-1,14
 570 1190 570 1190 565.5 1201.5 c 128,-1,15
 561 1213 561 1213 555.5 1219 c 128,-1,16
 550 1225 550 1225 543 1230 c 128,-1,17
 536 1235 536 1235 526.5 1237 c 128,-1,18
 517 1239 517 1239 506 1239 c 0,19,20
 432 1239 432 1239 432 1157 c 2,21,-1
 432 1056 l 1,22,-1
 84 1056 l 1,23,24
 83 1073 83 1073 83 1105 c 0,25,26
 83 1319 83 1319 184.5 1418.5 c 128,-1,27
 286 1518 286 1518 524 1518 c 0,28,29
 601 1518 601 1518 673 1496.5 c 128,-1,30
 745 1475 745 1475 807 1432.5 c 128,-1,31
 869 1390 869 1390 906.5 1315 c 128,-1,32
 944 1240 944 1240 944 1143 c 2,33,-1
 944 0 l 1,34,-1
 588 0 l 1,35,-1
 588 156 l 1,36,37
 570 90 570 90 505 36 c 128,-1,38
 440 -18 440 -18 365 -18 c 0,39,40
 311 -18 311 -18 270 -8.5 c 128,-1,41
 229 1 229 1 188 30 c 128,-1,42
 147 59 147 59 120.5 107.5 c 128,-1,43
 94 156 94 156 77.5 237.5 c 128,-1,44
 61 319 61 319 61 430 c 0,0,1
426 570 m 2,45,46
 426 395 l 2,47,48
 426 262 426 262 506 262 c 0,49,50
 528 262 528 262 544 274 c 128,-1,51
 560 286 560 286 568 305 c 128,-1,52
 576 324 576 324 579 342 c 128,-1,53
 582 360 582 360 582 379 c 2,54,-1
 582 774 l 1,55,56
 490 737 490 737 458 687.5 c 128,-1,57
 426 638 426 638 426 570 c 2,45,46
245 1553 m 1,58,-1
 245 1776 l 1,59,-1
 720 1994 l 1,60,-1
 720 1647 l 1,61,-1
 245 1553 l 1,58,-1
EndSplineSet
EndChar

StartChar: acircumflex
Encoding: 163 226 66
Width: 1018
VWidth: 0
Flags: W
HStem: -18 280<338 517> 0 21G<588 944> 1239 279<438.385 567.577> 1591 403<305 423 595 713> 1876 118<305 713>
VStem: 61 365<271.827 685.949 1591 1614.68> 83 349<1056 1233.11> 582 362<0 156 269.62 774 966.154 1231.81 1591 1596.22>
LayerCount: 2
Fore
SplineSet
61 430 m 0,0,1
 61 629 61 629 120 729 c 0,2,3
 171 815 171 815 297 874 c 0,4,5
 361 904 361 904 583 980 c 0,6,7
 583 981 583 981 583 983 c 0,8,9
 583 1015 583 1015 582.5 1035 c 128,-1,10
 582 1055 582 1055 581.5 1080 c 128,-1,11
 581 1105 581 1105 580 1120 c 128,-1,12
 579 1135 579 1135 577 1153 c 128,-1,13
 575 1171 575 1171 572.5 1180.5 c 128,-1,14
 570 1190 570 1190 565.5 1201.5 c 128,-1,15
 561 1213 561 1213 555.5 1219 c 128,-1,16
 550 1225 550 1225 543 1230 c 128,-1,17
 536 1235 536 1235 526.5 1237 c 128,-1,18
 517 1239 517 1239 506 1239 c 0,19,20
 432 1239 432 1239 432 1157 c 2,21,-1
 432 1056 l 1,22,-1
 84 1056 l 1,23,24
 83 1073 83 1073 83 1105 c 0,25,26
 83 1319 83 1319 184.5 1418.5 c 128,-1,27
 286 1518 286 1518 524 1518 c 0,28,29
 601 1518 601 1518 673 1496.5 c 128,-1,30
 745 1475 745 1475 807 1432.5 c 128,-1,31
 869 1390 869 1390 906.5 1315 c 128,-1,32
 944 1240 944 1240 944 1143 c 2,33,-1
 944 0 l 1,34,-1
 588 0 l 1,35,-1
 588 156 l 1,36,37
 570 90 570 90 505 36 c 128,-1,38
 440 -18 440 -18 365 -18 c 0,39,40
 311 -18 311 -18 270 -8.5 c 128,-1,41
 229 1 229 1 188 30 c 128,-1,42
 147 59 147 59 120.5 107.5 c 128,-1,43
 94 156 94 156 77.5 237.5 c 128,-1,44
 61 319 61 319 61 430 c 0,0,1
426 570 m 2,45,46
 426 395 l 2,47,48
 426 262 426 262 506 262 c 0,49,50
 528 262 528 262 544 274 c 128,-1,51
 560 286 560 286 568 305 c 128,-1,52
 576 324 576 324 579 342 c 128,-1,53
 582 360 582 360 582 379 c 2,54,-1
 582 774 l 1,55,56
 490 737 490 737 458 687.5 c 128,-1,57
 426 638 426 638 426 570 c 2,45,46
713 1994 m 1,58,-1
 954 1591 l 1,59,-1
 595 1591 l 1,60,-1
 509 1876 l 1,61,-1
 423 1591 l 1,62,-1
 64 1591 l 1,63,-1
 305 1994 l 1,64,-1
 713 1994 l 1,58,-1
EndSplineSet
EndChar

StartChar: acute
Encoding: 119 180 67
Width: 650
VWidth: 0
Flags: W
HStem: 1553 441
VStem: 41 475<1647 1776>
LayerCount: 2
Fore
SplineSet
41 1553 m 1,0,-1
 41 1776 l 1,1,-1
 516 1994 l 1,2,-1
 516 1647 l 1,3,-1
 41 1553 l 1,0,-1
EndSplineSet
EndChar

StartChar: adieresis
Encoding: 165 228 68
Width: 1018
VWidth: 0
Flags: W
HStem: -18 280<338 517> 0 21G<588 944> 1239 279<438.385 567.577> 1591 298<88 446 572 930>
VStem: 61 365<271.827 685.949> 88 358<1056 1233.11 1591 1889> 572 358<1591 1889> 582 362<0 156 269.62 774 966.154 1231.81>
LayerCount: 2
Fore
SplineSet
61 430 m 0,0,1
 61 629 61 629 120 729 c 0,2,3
 171 815 171 815 297 874 c 0,4,5
 361 904 361 904 583 980 c 0,6,7
 583 981 583 981 583 983 c 0,8,9
 583 1015 583 1015 582.5 1035 c 128,-1,10
 582 1055 582 1055 581.5 1080 c 128,-1,11
 581 1105 581 1105 580 1120 c 128,-1,12
 579 1135 579 1135 577 1153 c 128,-1,13
 575 1171 575 1171 572.5 1180.5 c 128,-1,14
 570 1190 570 1190 565.5 1201.5 c 128,-1,15
 561 1213 561 1213 555.5 1219 c 128,-1,16
 550 1225 550 1225 543 1230 c 128,-1,17
 536 1235 536 1235 526.5 1237 c 128,-1,18
 517 1239 517 1239 506 1239 c 0,19,20
 432 1239 432 1239 432 1157 c 2,21,-1
 432 1056 l 1,22,-1
 84 1056 l 1,23,24
 83 1073 83 1073 83 1105 c 0,25,26
 83 1319 83 1319 184.5 1418.5 c 128,-1,27
 286 1518 286 1518 524 1518 c 0,28,29
 601 1518 601 1518 673 1496.5 c 128,-1,30
 745 1475 745 1475 807 1432.5 c 128,-1,31
 869 1390 869 1390 906.5 1315 c 128,-1,32
 944 1240 944 1240 944 1143 c 2,33,-1
 944 0 l 1,34,-1
 588 0 l 1,35,-1
 588 156 l 1,36,37
 570 90 570 90 505 36 c 128,-1,38
 440 -18 440 -18 365 -18 c 0,39,40
 311 -18 311 -18 270 -8.5 c 128,-1,41
 229 1 229 1 188 30 c 128,-1,42
 147 59 147 59 120.5 107.5 c 128,-1,43
 94 156 94 156 77.5 237.5 c 128,-1,44
 61 319 61 319 61 430 c 0,0,1
426 570 m 2,45,46
 426 395 l 2,47,48
 426 262 426 262 506 262 c 0,49,50
 528 262 528 262 544 274 c 128,-1,51
 560 286 560 286 568 305 c 128,-1,52
 576 324 576 324 579 342 c 128,-1,53
 582 360 582 360 582 379 c 2,54,-1
 582 774 l 1,55,56
 490 737 490 737 458 687.5 c 128,-1,57
 426 638 426 638 426 570 c 2,45,46
88 1591 m 1,58,-1
 88 1889 l 1,59,-1
 446 1889 l 1,60,-1
 446 1591 l 1,61,-1
 88 1591 l 1,58,-1
572 1591 m 1,62,-1
 572 1889 l 1,63,-1
 930 1889 l 1,64,-1
 930 1591 l 1,65,-1
 572 1591 l 1,62,-1
EndSplineSet
EndChar

StartChar: ae
Encoding: 167 230 69
Width: 1524
VWidth: 0
Flags: W
HStem: -18 280<435.543 562.946 966.052 1087.64> 704 227<939 1108> 1239 279<433.385 560.978 956.955 1089.04>
VStem: 56 365<272.474 685.949> 78 349<1056 1233.11> 577 362<278.746 704 966.154 1207.73> 1108 356<272.471 579 931 1236.77>
LayerCount: 2
Fore
SplineSet
1054 -18 m 0,0,1
 993 -18 993 -18 940.5 0 c 128,-1,2
 888 18 888 18 858 40 c 128,-1,3
 828 62 828 62 804.5 90.5 c 128,-1,4
 781 119 781 119 775 130 c 128,-1,5
 769 141 769 141 766 148 c 1,6,-1
 758 131 l 2,7,8
 750 114 750 114 727 90 c 0,9,10
 705 66 705 66 673 41 c 128,-1,11
 641 16 641 16 586.5 -1 c 128,-1,12
 532 -18 532 -18 467 -18 c 0,13,14
 417 -18 417 -18 368 -8.5 c 128,-1,15
 319 1 319 1 260.5 30.5 c 128,-1,16
 202 60 202 60 158.5 107 c 128,-1,17
 115 154 115 154 85.5 237.5 c 128,-1,18
 56 321 56 321 56 430 c 0,19,20
 56 630 56 630 115 729 c 0,21,22
 166 815 166 815 292 874 c 0,23,24
 356 904 356 904 578 980 c 0,25,26
 578 981 578 981 578 983 c 0,27,28
 578 1015 578 1015 577.5 1035 c 128,-1,29
 577 1055 577 1055 576.5 1080 c 128,-1,30
 576 1105 576 1105 575 1120 c 128,-1,31
 574 1135 574 1135 572 1153 c 128,-1,32
 570 1171 570 1171 567.5 1180.5 c 128,-1,33
 565 1190 565 1190 560.5 1201.5 c 128,-1,34
 556 1213 556 1213 550.5 1219 c 128,-1,35
 545 1225 545 1225 538 1230 c 128,-1,36
 531 1235 531 1235 521.5 1237 c 128,-1,37
 512 1239 512 1239 501 1239 c 0,38,39
 427 1239 427 1239 427 1157 c 2,40,-1
 427 1056 l 1,41,-1
 79 1056 l 1,42,43
 78 1073 78 1073 78 1105 c 0,44,45
 78 1319 78 1319 179.5 1418.5 c 128,-1,46
 281 1518 281 1518 519 1518 c 0,47,48
 683 1518 683 1518 765 1396 c 1,49,50
 845 1518 845 1518 1032 1518 c 0,51,52
 1464 1518 1464 1518 1464 1092 c 2,53,-1
 1464 983 l 2,54,55
 1464 780 1464 780 1460 704 c 1,56,-1
 939 704 l 1,57,-1
 939 494 l 2,58,59
 939 260 939 260 1026 260 c 0,60,61
 1045 260 1045 260 1060 269.5 c 128,-1,62
 1075 279 1075 279 1084 298 c 128,-1,63
 1093 317 1093 317 1098.5 336.5 c 128,-1,64
 1104 356 1104 356 1106.5 385 c 128,-1,65
 1109 414 1109 414 1109.5 434 c 128,-1,66
 1110 454 1110 454 1110 483 c 0,67,68
 1110 571 1110 571 1108 579 c 1,69,-1
 1464 579 l 1,70,-1
 1464 494 l 2,71,72
 1464 395 1464 395 1454 320.5 c 128,-1,73
 1444 246 1444 246 1416.5 179.5 c 128,-1,74
 1389 113 1389 113 1343.5 71.5 c 128,-1,75
 1298 30 1298 30 1225.5 6 c 128,-1,76
 1153 -18 1153 -18 1054 -18 c 0,0,1
421 570 m 2,77,78
 421 395 l 2,79,80
 421 262 421 262 501 262 c 0,81,82
 523 262 523 262 539 274 c 128,-1,83
 555 286 555 286 563 305 c 128,-1,84
 571 324 571 324 574 342 c 128,-1,85
 577 360 577 360 577 379 c 2,86,-1
 577 774 l 1,87,88
 485 737 485 737 453 687.5 c 128,-1,89
 421 638 421 638 421 570 c 2,77,78
1028 1249 m 0,90,91
 977 1249 977 1249 958 1209 c 128,-1,92
 939 1169 939 1169 939 1052 c 2,93,-1
 939 931 l 1,94,-1
 1108 931 l 1,95,-1
 1108 1087 l 2,96,97
 1108 1249 1108 1249 1028 1249 c 0,90,91
EndSplineSet
EndChar

StartChar: agrave
Encoding: 161 224 70
Width: 1018
VWidth: 0
Flags: W
HStem: -18 280<338 517> 0 21G<588 944> 1239 279<438.385 567.577>
VStem: 61 365<271.827 685.949> 83 349<1056 1233.11> 582 362<0 156 269.62 774 966.154 1231.81>
LayerCount: 2
Fore
SplineSet
61 430 m 0,0,1
 61 629 61 629 120 729 c 0,2,3
 171 815 171 815 297 874 c 0,4,5
 361 904 361 904 583 980 c 0,6,7
 583 981 583 981 583 983 c 0,8,9
 583 1015 583 1015 582.5 1035 c 128,-1,10
 582 1055 582 1055 581.5 1080 c 128,-1,11
 581 1105 581 1105 580 1120 c 128,-1,12
 579 1135 579 1135 577 1153 c 128,-1,13
 575 1171 575 1171 572.5 1180.5 c 128,-1,14
 570 1190 570 1190 565.5 1201.5 c 128,-1,15
 561 1213 561 1213 555.5 1219 c 128,-1,16
 550 1225 550 1225 543 1230 c 128,-1,17
 536 1235 536 1235 526.5 1237 c 128,-1,18
 517 1239 517 1239 506 1239 c 0,19,20
 432 1239 432 1239 432 1157 c 2,21,-1
 432 1056 l 1,22,-1
 84 1056 l 1,23,24
 83 1073 83 1073 83 1105 c 0,25,26
 83 1319 83 1319 184.5 1418.5 c 128,-1,27
 286 1518 286 1518 524 1518 c 0,28,29
 601 1518 601 1518 673 1496.5 c 128,-1,30
 745 1475 745 1475 807 1432.5 c 128,-1,31
 869 1390 869 1390 906.5 1315 c 128,-1,32
 944 1240 944 1240 944 1143 c 2,33,-1
 944 0 l 1,34,-1
 588 0 l 1,35,-1
 588 156 l 1,36,37
 570 90 570 90 505 36 c 128,-1,38
 440 -18 440 -18 365 -18 c 0,39,40
 311 -18 311 -18 270 -8.5 c 128,-1,41
 229 1 229 1 188 30 c 128,-1,42
 147 59 147 59 120.5 107.5 c 128,-1,43
 94 156 94 156 77.5 237.5 c 128,-1,44
 61 319 61 319 61 430 c 0,0,1
426 570 m 2,45,46
 426 395 l 2,47,48
 426 262 426 262 506 262 c 0,49,50
 528 262 528 262 544 274 c 128,-1,51
 560 286 560 286 568 305 c 128,-1,52
 576 324 576 324 579 342 c 128,-1,53
 582 360 582 360 582 379 c 2,54,-1
 582 774 l 1,55,56
 490 737 490 737 458 687.5 c 128,-1,57
 426 638 426 638 426 570 c 2,45,46
730 1553 m 1,58,-1
 255 1647 l 1,59,-1
 255 1994 l 1,60,-1
 730 1776 l 1,61,-1
 730 1553 l 1,58,-1
EndSplineSet
EndChar

StartChar: ampersand
Encoding: 11 38 71
Width: 1110
VWidth: 0
Flags: W
HStem: -21 256<360 522.002> 0 21G<674.371 1022> 1336 246<542.322 643.286>
VStem: 70 306<253.566 616.984> 208 324<1113.11 1325.74> 645 256<1137.84 1333.84>
LayerCount: 2
Fore
SplineSet
70 386 m 0,0,1
 70 432 70 432 71 460 c 128,-1,2
 72 488 72 488 76.5 534 c 128,-1,3
 81 580 81 580 90 613 c 128,-1,4
 99 646 99 646 116.5 690 c 128,-1,5
 134 734 134 734 158.5 770 c 128,-1,6
 183 806 183 806 221 845.5 c 128,-1,7
 259 885 259 885 308 921 c 1,8,9
 265 1006 265 1006 236.5 1098.5 c 128,-1,10
 208 1191 208 1191 208 1262 c 0,11,12
 208 1416 208 1416 308 1499 c 128,-1,13
 408 1582 408 1582 556 1582 c 0,14,15
 621 1582 621 1582 681 1563.5 c 128,-1,16
 741 1545 741 1545 791 1508.5 c 128,-1,17
 841 1472 841 1472 871 1411 c 128,-1,18
 901 1350 901 1350 901 1273 c 0,19,20
 901 1063 901 1063 666 875 c 1,21,-1
 729 726 l 1,22,23
 788 878 788 878 901 961 c 1,24,-1
 1040 744 l 1,25,26
 923 651 923 651 843 432 c 1,27,-1
 1022 0 l 1,28,-1
 682 0 l 1,29,-1
 645 97 l 1,30,31
 600 41 600 41 532 10 c 128,-1,32
 464 -21 464 -21 391 -21 c 0,33,34
 329 -21 329 -21 273 2.5 c 128,-1,35
 217 26 217 26 171 73 c 128,-1,36
 125 120 125 120 97.5 200.5 c 128,-1,37
 70 281 70 281 70 386 c 0,0,1
376 423 m 0,38,39
 376 420 376 420 376 413 c 0,40,41
 376 380 376 380 377 359.5 c 128,-1,42
 378 339 378 339 384 305 c 128,-1,43
 390 271 390 271 406 253 c 128,-1,44
 422 235 422 235 447 235 c 0,45,46
 468 235 468 235 486.5 245.5 c 128,-1,47
 505 256 505 256 515 269 c 128,-1,48
 525 282 525 282 534 299.5 c 128,-1,49
 543 317 543 317 545 323.5 c 128,-1,50
 547 330 547 330 548 334 c 1,51,-1
 426 625 l 1,52,-1
 414 606 l 2,53,54
 401 588 401 588 388.5 537.5 c 128,-1,55
 376 487 376 487 376 423 c 0,38,39
532 1273 m 0,56,57
 532 1219 532 1219 575 1110 c 1,58,-1
 592 1128 l 2,59,60
 610 1147 610 1147 627.5 1188 c 128,-1,61
 645 1229 645 1229 645 1273 c 0,62,63
 645 1336 645 1336 586 1336 c 0,64,65
 561 1336 561 1336 546.5 1317.5 c 128,-1,66
 532 1299 532 1299 532 1273 c 0,56,57
EndSplineSet
EndChar

StartChar: approxequal
Encoding: 267 8776 72
Width: 1015
VWidth: 0
Flags: W
HStem: 776 446
LayerCount: 2
Fore
SplineSet
360 886 m 0,0,1
 316 886 316 886 282 807 c 1,2,-1
 40 923 l 1,3,4
 161 1222 161 1222 370 1222 c 0,5,6
 415 1222 415 1222 466.5 1195 c 128,-1,7
 518 1168 518 1168 566.5 1141 c 128,-1,8
 615 1114 615 1114 653 1114 c 0,9,10
 697 1114 697 1114 732 1193 c 1,11,-1
 974 1077 l 1,12,13
 851 776 851 776 642 776 c 0,14,15
 601 776 601 776 559.5 793 c 128,-1,16
 518 810 518 810 489 831 c 128,-1,17
 460 852 460 852 424.5 869 c 128,-1,18
 389 886 389 886 360 886 c 0,0,1
360 886 m 0,19,20
 389 886 389 886 424.5 869 c 128,-1,21
 460 852 460 852 489 831 c 128,-1,22
 518 810 518 810 559.5 793 c 128,-1,23
 601 776 601 776 642 776 c 0,24,25
 851 776 851 776 974 1077 c 1,26,-1
 732 1193 l 1,27,28
 697 1114 697 1114 653 1114 c 0,29,30
 615 1114 615 1114 566.5 1141 c 128,-1,31
 518 1168 518 1168 466.5 1195 c 128,-1,32
 415 1222 415 1222 370 1222 c 0,33,34
 161 1222 161 1222 40 923 c 1,35,-1
 282 807 l 1,36,37
 316 886 316 886 360 886 c 0,19,20
EndSplineSet
EndChar

StartChar: aring
Encoding: 166 229 73
Width: 1018
VWidth: 0
Flags: W
HStem: -18 280<338 517> 0 21G<588 944> 1239 279<438.385 567.577> 1640 181<422.574 625.957> 2135 181<422.574 625.93>
VStem: 61 365<271.827 685.949> 83 349<1056 1233.11> 170 212<1865.73 2090.27> 582 362<0 156 269.62 774 966.154 1231.81> 666 211.5<1869.47 2086.53>
LayerCount: 2
Fore
SplineSet
61 430 m 0,0,1
 61 629 61 629 120 729 c 0,2,3
 171 815 171 815 297 874 c 0,4,5
 361 904 361 904 583 980 c 0,6,7
 583 981 583 981 583 983 c 0,8,9
 583 1015 583 1015 582.5 1035 c 128,-1,10
 582 1055 582 1055 581.5 1080 c 128,-1,11
 581 1105 581 1105 580 1120 c 128,-1,12
 579 1135 579 1135 577 1153 c 128,-1,13
 575 1171 575 1171 572.5 1180.5 c 128,-1,14
 570 1190 570 1190 565.5 1201.5 c 128,-1,15
 561 1213 561 1213 555.5 1219 c 128,-1,16
 550 1225 550 1225 543 1230 c 128,-1,17
 536 1235 536 1235 526.5 1237 c 128,-1,18
 517 1239 517 1239 506 1239 c 0,19,20
 432 1239 432 1239 432 1157 c 2,21,-1
 432 1056 l 1,22,-1
 84 1056 l 1,23,24
 83 1073 83 1073 83 1105 c 0,25,26
 83 1319 83 1319 184.5 1418.5 c 128,-1,27
 286 1518 286 1518 524 1518 c 0,28,29
 601 1518 601 1518 673 1496.5 c 128,-1,30
 745 1475 745 1475 807 1432.5 c 128,-1,31
 869 1390 869 1390 906.5 1315 c 128,-1,32
 944 1240 944 1240 944 1143 c 2,33,-1
 944 0 l 1,34,-1
 588 0 l 1,35,-1
 588 156 l 1,36,37
 570 90 570 90 505 36 c 128,-1,38
 440 -18 440 -18 365 -18 c 0,39,40
 311 -18 311 -18 270 -8.5 c 128,-1,41
 229 1 229 1 188 30 c 128,-1,42
 147 59 147 59 120.5 107.5 c 128,-1,43
 94 156 94 156 77.5 237.5 c 128,-1,44
 61 319 61 319 61 430 c 0,0,1
426 570 m 2,45,46
 426 395 l 2,47,48
 426 262 426 262 506 262 c 0,49,50
 528 262 528 262 544 274 c 128,-1,51
 560 286 560 286 568 305 c 128,-1,52
 576 324 576 324 579 342 c 128,-1,53
 582 360 582 360 582 379 c 2,54,-1
 582 774 l 1,55,56
 490 737 490 737 458 687.5 c 128,-1,57
 426 638 426 638 426 570 c 2,45,46
382 1978 m 128,-1,59
 382 1915 382 1915 419 1868 c 128,-1,60
 456 1821 456 1821 525 1821 c 128,-1,61
 594 1821 594 1821 630 1868 c 128,-1,62
 666 1915 666 1915 666 1978 c 128,-1,63
 666 2041 666 2041 630 2088 c 128,-1,64
 594 2135 594 2135 525 2135 c 128,-1,65
 456 2135 456 2135 419 2088 c 128,-1,58
 382 2041 382 2041 382 1978 c 128,-1,59
170 1978 m 128,-1,67
 170 2134 170 2134 265 2225 c 128,-1,68
 360 2316 360 2316 524 2316 c 128,-1,69
 688 2316 688 2316 782.5 2225 c 128,-1,70
 877 2134 877 2134 877.5 1978 c 128,-1,71
 878 1822 878 1822 783 1731 c 128,-1,72
 688 1640 688 1640 524 1640 c 128,-1,73
 360 1640 360 1640 265 1731 c 128,-1,66
 170 1822 170 1822 170 1978 c 128,-1,67
EndSplineSet
EndChar

StartChar: asciicircum
Encoding: 67 94 74
Width: 970
VWidth: 0
Flags: W
HStem: 1027 328<281 689>
LayerCount: 2
Fore
SplineSet
689 1355 m 1,0,-1
 930 432 l 1,1,-1
 571 432 l 1,2,-1
 485 1027 l 1,3,-1
 399 432 l 1,4,-1
 40 432 l 1,5,-1
 281 1355 l 1,6,-1
 689 1355 l 1,0,-1
EndSplineSet
EndChar

StartChar: asciitilde
Encoding: 99 126 75
Width: 1015
VWidth: 0
Flags: W
HStem: 776 338<533.649 712.62> 886 336<300.19 474.203>
LayerCount: 2
Fore
SplineSet
360 886 m 0,0,1
 316 886 316 886 282 807 c 1,2,-1
 40 923 l 1,3,4
 161 1222 161 1222 370 1222 c 0,5,6
 415 1222 415 1222 466.5 1195 c 128,-1,7
 518 1168 518 1168 566.5 1141 c 128,-1,8
 615 1114 615 1114 653 1114 c 0,9,10
 697 1114 697 1114 732 1193 c 1,11,-1
 974 1077 l 1,12,13
 851 776 851 776 642 776 c 0,14,15
 601 776 601 776 559.5 793 c 128,-1,16
 518 810 518 810 489 831 c 128,-1,17
 460 852 460 852 424.5 869 c 128,-1,18
 389 886 389 886 360 886 c 0,0,1
EndSplineSet
EndChar

StartChar: asterisk
Encoding: 15 42 76
Width: 922
VWidth: 0
Flags: W
HStem: 1573 20G<345 577>
LayerCount: 2
Fore
SplineSet
150 1480 m 1,0,-1
 388 1301 l 1,1,-1
 345 1593 l 1,2,-1
 577 1593 l 1,3,-1
 542 1307 l 1,4,-1
 772 1480 l 1,5,-1
 888 1280 l 1,6,-1
 613 1171 l 1,7,-1
 888 1054 l 1,8,-1
 772 854 l 1,9,-1
 541 1036 l 1,10,-1
 577 741 l 1,11,-1
 345 741 l 1,12,-1
 389 1043 l 1,13,-1
 150 854 l 1,14,-1
 34 1054 l 1,15,-1
 308 1171 l 1,16,-1
 34 1280 l 1,17,-1
 150 1480 l 1,0,-1
EndSplineSet
EndChar

StartChar: at
Encoding: 37 64 77
Width: 1833
VWidth: 0
Flags: W
HStem: -64 270<600.753 1163.11> 268 229<1328.78 1446.46> 326 244<732.5 923.934> 1365 265<670.084 1259.02>
VStem: 51 317<437.19 1048.28> 497 335<609.196 938.22> 988 322<578.242 972> 1505 286<574.947 1118.66>
LayerCount: 2
Fore
SplineSet
832 718 m 0,0,1
 832 646 832 646 853 608 c 128,-1,2
 874 570 874 570 912 570 c 0,3,4
 934 570 934 570 950 582 c 128,-1,5
 966 594 966 594 974 613 c 128,-1,6
 982 632 982 632 985 650 c 128,-1,7
 988 668 988 668 988 687 c 2,8,-1
 988 972 l 1,9,10
 955 972 955 972 930.5 965.5 c 128,-1,11
 906 959 906 959 889 950 c 128,-1,12
 872 941 872 941 861 920.5 c 128,-1,13
 850 900 850 900 844 885 c 128,-1,14
 838 870 838 870 835.5 836.5 c 128,-1,15
 833 803 833 803 832.5 782.5 c 128,-1,16
 832 762 832 762 832 718 c 0,0,1
1161 224 m 1,17,18
 1205 -37 l 1,19,20
 1018 -64 1018 -64 880 -64 c 0,21,22
 456 -64 456 -64 253.5 134.5 c 128,-1,23
 51 333 51 333 51 726 c 0,24,25
 51 878 51 878 74.5 1002.5 c 128,-1,26
 98 1127 98 1127 140.5 1220 c 128,-1,27
 183 1313 183 1313 248.5 1383.5 c 128,-1,28
 314 1454 314 1454 393 1501 c 128,-1,29
 472 1548 472 1548 573.5 1577 c 128,-1,30
 675 1606 675 1606 783 1618 c 128,-1,31
 891 1630 891 1630 1022 1630 c 0,32,33
 1186 1630 1186 1630 1318.5 1586 c 128,-1,34
 1451 1542 1451 1542 1537.5 1468.5 c 128,-1,35
 1624 1395 1624 1395 1682.5 1295 c 128,-1,36
 1741 1195 1741 1195 1766 1088.5 c 128,-1,37
 1791 982 1791 982 1791 867 c 0,38,39
 1791 577 1791 577 1682.5 422.5 c 128,-1,40
 1574 268 1574 268 1375 268 c 0,41,42
 1223 268 1223 268 1136.5 322 c 128,-1,43
 1050 376 1050 376 1014 494 c 1,44,45
 954 326 954 326 758 326 c 0,46,47
 707 326 707 326 662.5 347 c 128,-1,48
 618 368 618 368 579.5 411.5 c 128,-1,49
 541 455 541 455 519 534 c 128,-1,50
 497 613 497 613 497 718 c 0,51,52
 497 963 497 963 577.5 1086 c 128,-1,53
 658 1209 658 1209 796 1209 c 0,54,55
 901 1209 901 1209 1009 1114 c 1,56,-1
 1049 1226 l 1,57,-1
 1310 1226 l 1,58,-1
 1310 621 l 2,59,60
 1310 566 1310 566 1335 531.5 c 128,-1,61
 1360 497 1360 497 1391 497 c 0,62,63
 1441 497 1441 497 1473 612 c 128,-1,64
 1505 727 1505 727 1505 888 c 0,65,66
 1505 959 1505 959 1492 1023 c 128,-1,67
 1479 1087 1479 1087 1445 1151 c 128,-1,68
 1411 1215 1411 1215 1359 1261 c 128,-1,69
 1307 1307 1307 1307 1221 1336 c 128,-1,70
 1135 1365 1135 1365 1025 1365 c 0,71,72
 962 1365 962 1365 915.5 1363 c 128,-1,73
 869 1361 869 1361 810 1354 c 128,-1,74
 751 1347 751 1347 708 1334 c 128,-1,75
 665 1321 665 1321 616.5 1297 c 128,-1,76
 568 1273 568 1273 533.5 1240.5 c 128,-1,77
 499 1208 499 1208 466 1159 c 128,-1,78
 433 1110 433 1110 413 1048.5 c 128,-1,79
 393 987 393 987 380.5 904.5 c 128,-1,80
 368 822 368 822 368 723 c 0,81,82
 368 569 368 569 401 466.5 c 128,-1,83
 434 364 434 364 503 307.5 c 128,-1,84
 572 251 572 251 662.5 228.5 c 128,-1,85
 753 206 753 206 885 206 c 0,86,87
 996 206 996 206 1161 224 c 1,17,18
EndSplineSet
EndChar

StartChar: atilde
Encoding: 164 227 78
Width: 1018
VWidth: 0
Flags: W
HStem: -18 280<338 517> 0 21G<588 944> 1239 279<438.385 567.577> 1602 278<511.779 660.281> 1712 276<330.094 470>
VStem: 61 365<271.827 685.949> 83 349<1056 1233.11> 582 362<0 156 269.62 774 966.154 1231.81>
LayerCount: 2
Fore
SplineSet
61 430 m 0,0,1
 61 629 61 629 120 729 c 0,2,3
 171 815 171 815 297 874 c 0,4,5
 361 904 361 904 583 980 c 0,6,7
 583 981 583 981 583 983 c 0,8,9
 583 1015 583 1015 582.5 1035 c 128,-1,10
 582 1055 582 1055 581.5 1080 c 128,-1,11
 581 1105 581 1105 580 1120 c 128,-1,12
 579 1135 579 1135 577 1153 c 128,-1,13
 575 1171 575 1171 572.5 1180.5 c 128,-1,14
 570 1190 570 1190 565.5 1201.5 c 128,-1,15
 561 1213 561 1213 555.5 1219 c 128,-1,16
 550 1225 550 1225 543 1230 c 128,-1,17
 536 1235 536 1235 526.5 1237 c 128,-1,18
 517 1239 517 1239 506 1239 c 0,19,20
 432 1239 432 1239 432 1157 c 2,21,-1
 432 1056 l 1,22,-1
 84 1056 l 1,23,24
 83 1073 83 1073 83 1105 c 0,25,26
 83 1319 83 1319 184.5 1418.5 c 128,-1,27
 286 1518 286 1518 524 1518 c 0,28,29
 601 1518 601 1518 673 1496.5 c 128,-1,30
 745 1475 745 1475 807 1432.5 c 128,-1,31
 869 1390 869 1390 906.5 1315 c 128,-1,32
 944 1240 944 1240 944 1143 c 2,33,-1
 944 0 l 1,34,-1
 588 0 l 1,35,-1
 588 156 l 1,36,37
 570 90 570 90 505 36 c 128,-1,38
 440 -18 440 -18 365 -18 c 0,39,40
 311 -18 311 -18 270 -8.5 c 128,-1,41
 229 1 229 1 188 30 c 128,-1,42
 147 59 147 59 120.5 107.5 c 128,-1,43
 94 156 94 156 77.5 237.5 c 128,-1,44
 61 319 61 319 61 430 c 0,0,1
426 570 m 2,45,46
 426 395 l 2,47,48
 426 262 426 262 506 262 c 0,49,50
 528 262 528 262 544 274 c 128,-1,51
 560 286 560 286 568 305 c 128,-1,52
 576 324 576 324 579 342 c 128,-1,53
 582 360 582 360 582 379 c 2,54,-1
 582 774 l 1,55,56
 490 737 490 737 458 687.5 c 128,-1,57
 426 638 426 638 426 570 c 2,45,46
372 1712 m 0,58,59
 340 1712 340 1712 314 1623 c 1,60,-1
 92 1729 l 1,61,62
 145 1859 145 1859 212.5 1923.5 c 128,-1,63
 280 1988 280 1988 372 1988 c 0,64,65
 410 1988 410 1988 454 1961 c 128,-1,66
 498 1934 498 1934 540 1907 c 128,-1,67
 582 1880 582 1880 615 1880 c 128,-1,68
 648 1880 648 1880 674 1959 c 1,69,-1
 906 1903 l 1,70,71
 851 1753 851 1753 780 1677.5 c 128,-1,72
 709 1602 709 1602 614 1602 c 0,73,74
 579 1602 579 1602 543 1619 c 128,-1,75
 507 1636 507 1636 482.5 1657 c 128,-1,76
 458 1678 458 1678 427.5 1695 c 128,-1,77
 397 1712 397 1712 372 1712 c 0,58,59
EndSplineSet
EndChar

StartChar: b
Encoding: 71 98 79
Width: 1008
VWidth: 0
Flags: W
HStem: -18 281<520.79 656> 0 21G<67 435> 1239 280<492.427 653.007> 1749 20G<67 435>
VStem: 67 368<0 160 304.783 1205.99 1427 1769> 599 363<302.207 1205.47>
LayerCount: 2
Fore
SplineSet
435 160 m 1,0,1
 435 0 l 1,2,-1
 67 0 l 1,3,-1
 67 1769 l 1,4,-1
 435 1769 l 1,5,-1
 435 1427 l 1,6,7
 525 1519 525 1519 635 1519 c 0,8,9
 656 1519 656 1519 671.5 1518.5 c 128,-1,10
 687 1518 687 1518 714.5 1514 c 128,-1,11
 742 1510 742 1510 762.5 1502.5 c 128,-1,12
 783 1495 783 1495 810 1481 c 128,-1,13
 837 1467 837 1467 857 1447 c 128,-1,14
 877 1427 877 1427 898 1396 c 128,-1,15
 919 1365 919 1365 932 1326 c 128,-1,16
 945 1287 945 1287 953.5 1232.5 c 128,-1,17
 962 1178 962 1178 962 1114 c 2,18,-1
 962 391 l 2,19,20
 962 312 962 312 948 248 c 128,-1,21
 934 184 934 184 912.5 142.5 c 128,-1,22
 891 101 891 101 860 69.5 c 128,-1,23
 829 38 829 38 801 22 c 128,-1,24
 773 6 773 6 740 -3.5 c 128,-1,25
 707 -13 707 -13 686.5 -15.5 c 128,-1,26
 666 -18 666 -18 646 -18 c 0,27,28
 501 -18 501 -18 435 160 c 1,0,1
435 1085 m 2,29,-1
 435 457 l 2,30,31
 435 344 435 344 457.5 303.5 c 128,-1,32
 480 263 480 263 525 263 c 0,33,34
 569 263 569 263 584 301 c 128,-1,35
 599 339 599 339 599 457 c 2,36,-1
 599 1081 l 2,37,38
 599 1174 599 1174 580 1206.5 c 128,-1,39
 561 1239 561 1239 523 1239 c 0,40,41
 484 1239 484 1239 459.5 1207 c 128,-1,42
 435 1175 435 1175 435 1085 c 2,29,-1
EndSplineSet
EndChar

StartChar: backslash
Encoding: 65 92 80
Width: 812
VWidth: 0
Flags: W
HStem: 0 21G<425.348 793> 1747 20G<19 387.641>
VStem: 19 364<1403 1767> 430 363<0 363>
DStem2: 383 1767 19 1767 0.22655 -0.974<0 1731.71>
LayerCount: 2
Fore
SplineSet
430 0 m 1,0,-1
 19 1767 l 1,1,-1
 383 1767 l 1,2,-1
 793 0 l 1,3,-1
 430 0 l 1,0,-1
EndSplineSet
EndChar

StartChar: bar
Encoding: 97 124 81
Width: 457
VWidth: 0
Flags: W
VStem: 67 319<-84 1683>
LayerCount: 2
Fore
SplineSet
386 -84 m 1,0,-1
 67 -84 l 1,1,-1
 67 1683 l 1,2,-1
 386 1683 l 1,3,-1
 386 -84 l 1,0,-1
EndSplineSet
EndChar

StartChar: braceleft
Encoding: 96 123 82
Width: 720
VWidth: 0
Flags: W
HStem: -18 267<528.501 654> 1356 267<528.501 654>
VStem: 163 352<271.932 631.309 973.618 1335.49>
LayerCount: 2
Fore
SplineSet
163 1225 m 0,0,1
 163 1416 163 1416 289 1516 c 128,-1,2
 415 1616 415 1616 654 1623 c 1,3,-1
 654 1356 l 1,4,5
 606 1353 606 1353 575.5 1344.5 c 128,-1,6
 545 1336 545 1336 533 1322.5 c 128,-1,7
 521 1309 521 1309 518 1299 c 128,-1,8
 515 1289 515 1289 515 1272 c 0,9,10
 515 1179 515 1179 507 1110 c 128,-1,11
 499 1041 499 1041 488 998.5 c 128,-1,12
 477 956 477 956 451 917.5 c 128,-1,13
 425 879 425 879 406 859 c 128,-1,14
 387 839 387 839 345 802 c 1,15,16
 386 766 386 766 406 746 c 128,-1,17
 426 726 426 726 451.5 688 c 128,-1,18
 477 650 477 650 488 608 c 128,-1,19
 499 566 499 566 507 498 c 128,-1,20
 515 430 515 430 515 338 c 0,21,22
 514 323 514 323 515 316 c 128,-1,23
 516 309 516 309 523 295 c 128,-1,24
 530 281 530 281 543.5 274 c 128,-1,25
 557 267 557 267 585 259.5 c 128,-1,26
 613 252 613 252 654 249 c 1,27,-1
 654 -18 l 1,28,29
 415 -11 415 -11 289 86 c 128,-1,30
 163 183 163 183 163 370 c 0,31,32
 163 376 163 376 163 387 c 0,33,34
 163 427 163 427 163 444.5 c 128,-1,35
 163 462 163 462 162 491.5 c 128,-1,36
 161 521 161 521 159.5 532.5 c 128,-1,37
 158 544 158 544 154.5 565 c 128,-1,38
 151 586 151 586 146 594 c 128,-1,39
 141 602 141 602 133 615.5 c 128,-1,40
 125 629 125 629 115.5 634 c 128,-1,41
 106 639 106 639 92 647.5 c 128,-1,42
 78 656 78 656 61.5 660.5 c 128,-1,43
 45 665 45 665 24 669 c 1,44,-1
 24 936 l 1,45,46
 51 941 51 941 70 946.5 c 128,-1,47
 89 952 89 952 104.5 963 c 128,-1,48
 120 974 120 974 129.5 981.5 c 128,-1,49
 139 989 139 989 146 1008.5 c 128,-1,50
 153 1028 153 1028 156 1041 c 128,-1,51
 159 1054 159 1054 161 1086 c 128,-1,52
 163 1118 163 1118 163 1139.5 c 128,-1,53
 163 1161 163 1161 163 1208 c 0,54,55
 163 1219 163 1219 163 1225 c 0,0,1
EndSplineSet
EndChar

StartChar: braceright
Encoding: 98 125 83
Width: 721
VWidth: 0
Flags: W
HStem: -18 267<67 192.499> 1356 267<67 192.499>
VStem: 206 352<271.932 631.309 973.618 1335.49>
LayerCount: 2
Fore
SplineSet
558 1225 m 0,0,1
 558 1219 558 1219 558 1208 c 0,2,3
 558 1161 558 1161 558 1139.5 c 128,-1,4
 558 1118 558 1118 560 1086 c 128,-1,5
 562 1054 562 1054 565 1041 c 128,-1,6
 568 1028 568 1028 575 1008.5 c 128,-1,7
 582 989 582 989 591.5 981.5 c 128,-1,8
 601 974 601 974 616.5 963 c 128,-1,9
 632 952 632 952 651 946.5 c 128,-1,10
 670 941 670 941 697 936 c 1,11,-1
 697 669 l 1,12,13
 676 665 676 665 659.5 660.5 c 128,-1,14
 643 656 643 656 629 647.5 c 128,-1,15
 615 639 615 639 605.5 634 c 128,-1,16
 596 629 596 629 588 615.5 c 128,-1,17
 580 602 580 602 575 594 c 128,-1,18
 570 586 570 586 566.5 565 c 128,-1,19
 563 544 563 544 561.5 532.5 c 128,-1,20
 560 521 560 521 559 491.5 c 128,-1,21
 558 462 558 462 558 444.5 c 128,-1,22
 558 427 558 427 558 387 c 0,23,24
 558 376 558 376 558 370 c 0,25,26
 558 183 558 183 432 86 c 128,-1,27
 306 -11 306 -11 67 -18 c 1,28,-1
 67 249 l 1,29,30
 108 252 108 252 136 259.5 c 128,-1,31
 164 267 164 267 177.5 274 c 128,-1,32
 191 281 191 281 198 295 c 128,-1,33
 205 309 205 309 205.5 316 c 128,-1,34
 206 323 206 323 206 338 c 0,35,36
 206 430 206 430 214 498 c 128,-1,37
 222 566 222 566 233 608 c 128,-1,38
 244 650 244 650 269.5 688 c 128,-1,39
 295 726 295 726 315 746 c 128,-1,40
 335 766 335 766 376 802 c 1,41,42
 334 839 334 839 315 859 c 128,-1,43
 296 879 296 879 270 917.5 c 128,-1,44
 244 956 244 956 233 998.5 c 128,-1,45
 222 1041 222 1041 214 1110 c 128,-1,46
 206 1179 206 1179 206 1272 c 0,47,48
 206 1289 206 1289 203 1299 c 128,-1,49
 200 1309 200 1309 188 1322.5 c 128,-1,50
 176 1336 176 1336 145.5 1344.5 c 128,-1,51
 115 1353 115 1353 67 1356 c 1,52,-1
 67 1623 l 1,53,54
 306 1616 306 1616 432 1516 c 128,-1,55
 558 1416 558 1416 558 1225 c 0,0,1
EndSplineSet
EndChar

StartChar: bracketleft
Encoding: 64 91 84
Width: 688
VWidth: 0
Flags: W
HStem: 0 281<419 621> 1312 281<419 621>
VStem: 67 554<0 281 1312 1593> 67 352<281 1312>
LayerCount: 2
Fore
SplineSet
419 1312 m 1,0,-1
 419 281 l 1,1,-1
 621 281 l 1,2,-1
 621 0 l 1,3,-1
 67 0 l 1,4,-1
 67 1593 l 1,5,-1
 621 1593 l 1,6,-1
 621 1312 l 1,7,-1
 419 1312 l 1,0,-1
EndSplineSet
EndChar

StartChar: bracketright
Encoding: 66 93 85
Width: 688
VWidth: 0
Flags: W
HStem: 0 281<67 269> 1312 281<67 269>
VStem: 67 554<0 281 1312 1593> 269 352<281 1312>
LayerCount: 2
Fore
SplineSet
269 1312 m 1,0,-1
 67 1312 l 1,1,-1
 67 1593 l 1,2,-1
 621 1593 l 1,3,-1
 621 0 l 1,4,-1
 67 0 l 1,5,-1
 67 281 l 1,6,-1
 269 281 l 1,7,-1
 269 1312 l 1,0,-1
EndSplineSet
EndChar

StartChar: breve
Encoding: 232 728 86
Width: 1015
VWidth: 0
Flags: W
HStem: 1592 240<412.706 592.154>
LayerCount: 2
Fore
SplineSet
503 1832 m 128,-1,1
 556 1832 556 1832 587 1859 c 128,-1,2
 618 1886 618 1886 618 1944 c 0,3,4
 618 1945 618 1945 934 1945 c 1,5,6
 936 1921 936 1921 936 1910 c 0,7,8
 936 1762 936 1762 821.5 1677 c 128,-1,9
 707 1592 707 1592 501 1592 c 0,10,11
 299 1592 299 1592 184 1675.5 c 128,-1,12
 69 1759 69 1759 69 1903 c 0,13,14
 69 1924 69 1924 72 1945 c 1,15,-1
 388 1944 l 1,16,17
 388 1886 388 1886 419 1859 c 128,-1,0
 450 1832 450 1832 503 1832 c 128,-1,1
EndSplineSet
EndChar

StartChar: brokenbar
Encoding: 106 166 87
Width: 457
VWidth: 0
Flags: W
VStem: 67 319<-84 676 923 1683>
LayerCount: 2
Fore
SplineSet
386 -84 m 1,0,-1
 67 -84 l 1,1,-1
 67 676 l 1,2,-1
 386 676 l 1,3,-1
 386 -84 l 1,0,-1
386 923 m 1,4,-1
 67 923 l 1,5,-1
 67 1683 l 1,6,-1
 386 1683 l 1,7,-1
 386 923 l 1,4,-1
EndSplineSet
EndChar

StartChar: bullet
Encoding: 250 8226 88
Width: 725
VWidth: 0
Flags: W
HStem: 403 676<187.587 536.661>
VStem: 49 627<550.329 931.671>
LayerCount: 2
Fore
SplineSet
49 741 m 128,-1,1
 49 897 49 897 132.5 988 c 128,-1,2
 216 1079 216 1079 362 1079 c 128,-1,3
 508 1079 508 1079 592 988 c 128,-1,4
 676 897 676 897 676 741 c 128,-1,5
 676 585 676 585 592 494 c 128,-1,6
 508 403 508 403 362 403 c 128,-1,7
 216 403 216 403 132.5 494 c 128,-1,0
 49 585 49 585 49 741 c 128,-1,1
EndSplineSet
EndChar

StartChar: c
Encoding: 72 99 89
Width: 1036
VWidth: 0
Flags: W
HStem: -18 282<450.701 587.29> 1239 279<447.749 582.917>
VStem: 72 360<303.705 1227.89> 600 365<276.119 614 879 1204.45>
LayerCount: 2
Fore
SplineSet
72 492 m 2,0,1
 72 954 l 2,2,3
 72 1258 72 1258 177 1388 c 128,-1,4
 282 1518 282 1518 530 1518 c 0,5,6
 723 1518 723 1518 844 1416 c 128,-1,7
 965 1314 965 1314 965 1135 c 2,8,-1
 965 879 l 1,9,-1
 600 879 l 1,10,-1
 600 1116 l 2,11,12
 600 1172 600 1172 583.5 1205.5 c 128,-1,13
 567 1239 567 1239 520 1239 c 0,14,15
 432 1239 432 1239 432 1114 c 2,16,-1
 432 387 l 2,17,18
 432 341 432 341 452 302.5 c 128,-1,19
 472 264 472 264 518 264 c 0,20,21
 531 264 531 264 543.5 269 c 128,-1,22
 556 274 556 274 570.5 286 c 128,-1,23
 585 298 585 298 593.5 324.5 c 128,-1,24
 602 351 602 351 602 389 c 2,25,-1
 600 614 l 1,26,-1
 965 614 l 1,27,-1
 965 379 l 2,28,29
 965 194 965 194 845.5 88 c 128,-1,30
 726 -18 726 -18 535 -18 c 0,31,32
 447 -18 447 -18 376 -1 c 128,-1,33
 305 16 305 16 257.5 43.5 c 128,-1,34
 210 71 210 71 175 113 c 128,-1,35
 140 155 140 155 120.5 197 c 128,-1,36
 101 239 101 239 89.5 293.5 c 128,-1,37
 78 348 78 348 75 392.5 c 128,-1,38
 72 437 72 437 72 492 c 2,0,1
EndSplineSet
EndChar

StartChar: caron
Encoding: 231 711 90
Width: 970
VWidth: 0
Flags: W
HStem: 1591 403<281 399 571 689> 1591 118<281 689>
LayerCount: 2
Fore
SplineSet
689 1591 m 1,0,-1
 281 1591 l 1,1,-1
 40 1994 l 1,2,-1
 399 1994 l 1,3,-1
 485 1709 l 1,4,-1
 571 1994 l 1,5,-1
 930 1994 l 1,6,-1
 689 1591 l 1,0,-1
EndSplineSet
EndChar

StartChar: ccedilla
Encoding: 168 231 91
Width: 1036
VWidth: 0
Flags: W
HStem: -631 240<247.53 450.352> -106 106<316 411.793> 1239 279<447.749 582.917>
VStem: 72 360<303.705 392.5 954 1227.89> 316 211<-83.4685 -1> 476 315<-367.585 -194.18> 600 365<276.119 389 1116 1204.45>
LayerCount: 2
Fore
SplineSet
72 492 m 2,0,1
 72 437 72 437 75 392.5 c 128,-1,2
 78 348 78 348 89.5 293.5 c 128,-1,3
 101 239 101 239 120.5 197 c 128,-1,4
 140 155 140 155 175 113 c 128,-1,5
 210 71 210 71 257.5 43.5 c 128,-1,6
 305 16 305 16 376 -1 c 128,-1,7
 447 -18 447 -18 535 -18 c 0,8,9
 726 -18 726 -18 845.5 88 c 128,-1,10
 965 194 965 194 965 379 c 2,11,-1
 965 614 l 1,12,-1
 600 614 l 1,13,-1
 602 389 l 2,14,15
 602 351 602 351 593.5 324.5 c 128,-1,16
 585 298 585 298 570.5 286 c 128,-1,17
 556 274 556 274 543.5 269 c 128,-1,18
 531 264 531 264 518 264 c 0,19,20
 472 264 472 264 452 302.5 c 128,-1,21
 432 341 432 341 432 387 c 2,22,-1
 432 1114 l 2,23,24
 432 1239 432 1239 520 1239 c 0,25,26
 567 1239 567 1239 583.5 1205.5 c 128,-1,27
 600 1172 600 1172 600 1116 c 2,28,-1
 600 879 l 1,29,-1
 965 879 l 1,30,-1
 965 1135 l 2,31,32
 965 1314 965 1314 844 1416 c 128,-1,33
 723 1518 723 1518 530 1518 c 0,34,35
 282 1518 282 1518 177 1388 c 128,-1,36
 72 1258 72 1258 72 954 c 2,37,-1
 72 492 l 2,0,1
245 -591 m 1,38,39
 245 -368 l 1,40,41
 311 -391 311 -391 361 -391 c 0,42,43
 414 -391 414 -391 445 -364 c 128,-1,44
 476 -337 476 -337 476 -279 c 0,45,46
 476 -223 476 -223 433.5 -172.5 c 128,-1,47
 391 -122 391 -122 316 -106 c 1,48,-1
 316 0 l 1,49,-1
 527 0 l 1,50,-1
 527 -76 l 1,51,52
 654 -93 654 -93 722.5 -165 c 128,-1,53
 791 -237 791 -237 791 -330 c 0,54,55
 791 -469 791 -469 690.5 -550 c 128,-1,56
 590 -631 590 -631 443 -631 c 0,57,58
 341 -631 341 -631 245 -591 c 1,38,39
EndSplineSet
EndChar

StartChar: cedilla
Encoding: 123 184 92
Width: 1015
VWidth: 0
Flags: W
HStem: -631 240<308.53 511.352> -106 106<377 472.793>
VStem: 377 211<-83.4685 0> 537 315<-367.585 -194.18>
LayerCount: 2
Fore
SplineSet
306 -591 m 1,0,1
 306 -368 l 1,2,3
 372 -391 372 -391 422 -391 c 0,4,5
 475 -391 475 -391 506 -364 c 128,-1,6
 537 -337 537 -337 537 -279 c 0,7,8
 537 -223 537 -223 494.5 -172.5 c 128,-1,9
 452 -122 452 -122 377 -106 c 1,10,-1
 377 0 l 1,11,-1
 588 0 l 1,12,-1
 588 -76 l 1,13,14
 715 -93 715 -93 783.5 -165 c 128,-1,15
 852 -237 852 -237 852 -330 c 0,16,17
 852 -469 852 -469 751.5 -550 c 128,-1,18
 651 -631 651 -631 504 -631 c 0,19,20
 402 -631 402 -631 306 -591 c 1,0,1
EndSplineSet
EndChar

StartChar: cent
Encoding: 102 162 93
Width: 1036
VWidth: 0
Flags: W
HStem: -113 377<452.631 587.276> 1239 368<446.523 582.977>
VStem: 72 360<303.705 1226.31> 446 173<-113 -7.16309 1508.3 1607> 600 365<278.491 614 879 1204.45>
LayerCount: 2
Fore
SplineSet
446 -113 m 1,0,-1
 446 -13 l 1,1,2
 375 -5 375 -5 318 16.5 c 128,-1,3
 261 38 261 38 222.5 67 c 128,-1,4
 184 96 184 96 155.5 137 c 128,-1,5
 127 178 127 178 111.5 217.5 c 128,-1,6
 96 257 96 257 86.5 308 c 128,-1,7
 77 359 77 359 74.5 400 c 128,-1,8
 72 441 72 441 72 492 c 2,9,-1
 72 954 l 2,10,11
 72 1232 72 1232 158.5 1363 c 128,-1,12
 245 1494 245 1494 446 1514 c 1,13,-1
 446 1607 l 1,14,-1
 619 1607 l 1,15,-1
 619 1511 l 1,16,17
 776 1489 776 1489 870.5 1390.5 c 128,-1,18
 965 1292 965 1292 965 1135 c 2,19,-1
 965 879 l 1,20,-1
 600 879 l 1,21,-1
 600 1116 l 2,22,23
 600 1172 600 1172 583.5 1205.5 c 128,-1,24
 567 1239 567 1239 520 1239 c 0,25,26
 432 1239 432 1239 432 1114 c 2,27,-1
 432 387 l 2,28,29
 432 341 432 341 452 302.5 c 128,-1,30
 472 264 472 264 518 264 c 0,31,32
 531 264 531 264 543.5 269 c 128,-1,33
 556 274 556 274 570.5 286 c 128,-1,34
 585 298 585 298 593.5 324.5 c 128,-1,35
 602 351 602 351 602 389 c 2,36,-1
 600 614 l 1,37,-1
 965 614 l 1,38,-1
 965 379 l 2,39,40
 965 216 965 216 870.5 113 c 128,-1,41
 776 10 776 10 619 -12 c 1,42,-1
 619 -113 l 1,43,-1
 446 -113 l 1,0,-1
EndSplineSet
EndChar

StartChar: circumflex
Encoding: 230 710 94
Width: 970
VWidth: 0
Flags: W
HStem: 1591 403<281 399 571 689> 1876 118<281 689>
LayerCount: 2
Fore
SplineSet
689 1994 m 1,0,-1
 930 1591 l 1,1,-1
 571 1591 l 1,2,-1
 485 1876 l 1,3,-1
 399 1591 l 1,4,-1
 40 1591 l 1,5,-1
 281 1994 l 1,6,-1
 689 1994 l 1,0,-1
EndSplineSet
EndChar

StartChar: colon
Encoding: 31 58 95
Width: 491
VWidth: 0
Flags: W
HStem: 237 298<67 425> 976 298<67 425>
VStem: 67 358<237 535 976 1274>
LayerCount: 2
Fore
SplineSet
67 237 m 1,0,-1
 67 535 l 1,1,-1
 425 535 l 1,2,-1
 425 237 l 1,3,-1
 67 237 l 1,0,-1
67 976 m 1,4,-1
 67 1274 l 1,5,-1
 425 1274 l 1,6,-1
 425 976 l 1,7,-1
 67 976 l 1,4,-1
EndSplineSet
EndChar

StartChar: comma
Encoding: 17 44 96
Width: 479
VWidth: 0
Flags: W
HStem: -235 534<-195 -50>
VStem: 52 374<10 299>
LayerCount: 2
Fore
SplineSet
52 1 m 1,0,-1
 52 299 l 1,1,-1
 426 299 l 1,2,-1
 426 10 l 1,3,-1
 324 -235 l 1,4,-1
 113 -235 l 1,5,-1
 179 1 l 1,6,-1
 52 1 l 1,0,-1
EndSplineSet
EndChar

StartChar: copyright
Encoding: 109 169 97
Width: 1406
VWidth: 0
Flags: W
HStem: 205 129<504.982 901.018> 424 168<659.574 743.034> 1130 175<663.541 744.208> 1390 129<504.982 901.018>
VStem: 46 159<643.983 1080.02> 467 190<594.153 1112.47> 747 193<597.714 806 952 1128.99> 1201 159<643.983 1080.02>
LayerCount: 2
Fore
SplineSet
205 862 m 128,-1,1
 205 719 205 719 272 597.5 c 128,-1,2
 339 476 339 476 453.5 405 c 128,-1,3
 568 334 568 334 703 334 c 128,-1,4
 838 334 838 334 952.5 405 c 128,-1,5
 1067 476 1067 476 1134 597.5 c 128,-1,6
 1201 719 1201 719 1201 862 c 128,-1,7
 1201 1005 1201 1005 1134 1126.5 c 128,-1,8
 1067 1248 1067 1248 952.5 1319 c 128,-1,9
 838 1390 838 1390 703 1390 c 128,-1,10
 568 1390 568 1390 453.5 1319 c 128,-1,11
 339 1248 339 1248 272 1126.5 c 128,-1,0
 205 1005 205 1005 205 862 c 128,-1,1
46 862 m 128,-1,13
 46 1041 46 1041 134 1192 c 128,-1,14
 222 1343 222 1343 373 1431 c 128,-1,15
 524 1519 524 1519 703 1519 c 128,-1,16
 882 1519 882 1519 1033 1431 c 128,-1,17
 1184 1343 1184 1343 1272 1192 c 128,-1,18
 1360 1041 1360 1041 1360 862 c 128,-1,19
 1360 683 1360 683 1272 532 c 128,-1,20
 1184 381 1184 381 1033 293 c 128,-1,21
 882 205 882 205 703 205 c 128,-1,22
 524 205 524 205 373 293 c 128,-1,23
 222 381 222 381 134 532 c 128,-1,12
 46 683 46 683 46 862 c 128,-1,13
940 806 m 1,24,-1
 940 643 l 2,25,26
 940 424 940 424 697 424 c 0,27,28
 595 424 595 424 531 482 c 128,-1,29
 467 540 467 540 467 648 c 2,30,-1
 467 1049 l 2,31,32
 467 1178 467 1178 523.5 1241.5 c 128,-1,33
 580 1305 580 1305 701 1305 c 0,34,35
 804 1305 804 1305 870 1254.5 c 128,-1,36
 936 1204 936 1204 936 1105 c 2,37,-1
 936 952 l 1,38,-1
 747 952 l 1,39,-1
 747 1053 l 2,40,41
 747 1130 747 1130 701 1130 c 0,42,43
 674 1130 674 1130 665.5 1113 c 128,-1,44
 657 1096 657 1096 657 1066 c 2,45,-1
 657 657 l 2,46,47
 657 631 657 631 669.5 611.5 c 128,-1,48
 682 592 682 592 701 592 c 0,49,50
 747 592 747 592 747 657 c 2,51,-1
 747 806 l 1,52,-1
 940 806 l 1,24,-1
EndSplineSet
EndChar

StartChar: currency
Encoding: 104 164 98
Width: 1017
VWidth: 0
Flags: W
HStem: 545 196<377.881 638.038> 1186 199<376.626 642.269>
VStem: 92 208<822.249 1105.49> 717 210<823.628 1109.04>
LayerCount: 2
Fore
SplineSet
508 545 m 0,0,1
 384 545 384 545 292 598 c 1,2,-1
 203 509 l 1,3,-1
 54 659 l 1,4,-1
 145 750 l 1,5,6
 92 848 92 848 92 964 c 0,7,8
 92 1081 92 1081 144 1178 c 1,9,-1
 54 1268 l 1,10,-1
 203 1418 l 1,11,-1
 290 1330 l 1,12,13
 387 1385 387 1385 508 1385 c 0,14,15
 628 1385 628 1385 726 1331 c 1,16,-1
 813 1418 l 1,17,-1
 963 1269 l 1,18,-1
 873 1179 l 1,19,20
 927 1082 927 1082 927 964 c 128,-1,21
 927 846 927 846 873 748 c 1,22,-1
 963 658 l 1,23,-1
 813 509 l 1,24,-1
 724 597 l 1,25,26
 631 545 631 545 508 545 c 0,0,1
508 1186 m 0,27,28
 410 1186 410 1186 355 1120 c 128,-1,29
 300 1054 300 1054 300 964 c 0,30,31
 300 873 300 873 355 807 c 128,-1,32
 410 741 410 741 508 741 c 128,-1,33
 606 741 606 741 661.5 808 c 128,-1,34
 717 875 717 875 717 966 c 0,35,36
 717 1059 717 1059 662 1122.5 c 128,-1,37
 607 1186 607 1186 508 1186 c 0,27,28
EndSplineSet
EndChar

StartChar: d
Encoding: 73 100 99
Width: 1030
VWidth: 0
Flags: W
HStem: -18 282<349 512.606> 0 21G<598 956> 1239 279<343 542.11> 1747 20G<598 956>
VStem: 68 358<279.367 1227.38> 598 358<0 159 278.506 1226.9 1419 1767>
LayerCount: 2
Fore
SplineSet
68 477 m 2,0,1
 72 1153 l 2,2,3
 72 1225 72 1225 91 1289.5 c 128,-1,4
 110 1354 110 1354 147 1405.5 c 128,-1,5
 184 1457 184 1457 244.5 1487.5 c 128,-1,6
 305 1518 305 1518 381 1518 c 0,7,8
 524 1518 524 1518 598 1419 c 1,9,-1
 598 1767 l 1,10,-1
 956 1767 l 1,11,-1
 956 0 l 1,12,-1
 598 0 l 1,13,-1
 598 159 l 1,14,15
 560 58 560 58 503.5 20 c 128,-1,16
 447 -18 447 -18 375 -18 c 0,17,18
 323 -18 323 -18 280.5 -8.5 c 128,-1,19
 238 1 238 1 207.5 21.5 c 128,-1,20
 177 42 177 42 153.5 66.5 c 128,-1,21
 130 91 130 91 115 128 c 128,-1,22
 100 165 100 165 90.5 200.5 c 128,-1,23
 81 236 81 236 76 285.5 c 128,-1,24
 71 335 71 335 69.5 377.5 c 128,-1,25
 68 420 68 420 68 477 c 2,0,1
426 1083 m 2,26,-1
 426 520 l 2,27,28
 426 515 426 515 426 494 c 0,29,30
 426 466 426 466 426 460 c 0,31,32
 426 458 426 458 426 456 c 128,-1,33
 426 454 426 454 426 452 c 0,34,35
 426 264 426 264 512 264 c 0,36,37
 528 264 528 264 540.5 270 c 128,-1,38
 553 276 553 276 562 288.5 c 128,-1,39
 571 301 571 301 577.5 313 c 128,-1,40
 584 325 584 325 588 346 c 128,-1,41
 592 367 592 367 594.5 381.5 c 128,-1,42
 597 396 597 396 597.5 420.5 c 128,-1,43
 598 445 598 445 598.5 456.5 c 128,-1,44
 599 468 599 468 598.5 491.5 c 128,-1,45
 598 515 598 515 598 520 c 2,46,-1
 598 1083 l 2,47,48
 598 1106 598 1106 595.5 1128 c 128,-1,49
 593 1150 593 1150 585 1177.5 c 128,-1,50
 577 1205 577 1205 559 1222 c 128,-1,51
 541 1239 541 1239 514 1239 c 0,52,53
 486 1239 486 1239 467 1225 c 128,-1,54
 448 1211 448 1211 440 1185.5 c 128,-1,55
 432 1160 432 1160 429 1137 c 128,-1,56
 426 1114 426 1114 426 1083 c 2,26,-1
EndSplineSet
EndChar

StartChar: dagger
Encoding: 248 8224 100
Width: 780
VWidth: 0
Flags: W
HStem: 0 21G<209 573> 996 296<26 209 573 753> 1572 20G<209 573>
VStem: 209 364<0 996 1292 1592>
LayerCount: 2
Fore
SplineSet
573 0 m 1,0,-1
 209 0 l 1,1,-1
 209 996 l 1,2,-1
 26 996 l 1,3,-1
 26 1292 l 1,4,-1
 209 1292 l 1,5,-1
 209 1592 l 1,6,-1
 573 1592 l 1,7,-1
 573 1292 l 1,8,-1
 753 1292 l 1,9,-1
 753 996 l 1,10,-1
 573 996 l 1,11,-1
 573 0 l 1,0,-1
EndSplineSet
EndChar

StartChar: daggerdbl
Encoding: 249 8225 101
Width: 795
VWidth: 0
Flags: W
HStem: 0 21G<217 581> 350 296<34 217 581 761> 940 296<34 217 581 761> 1572 20G<217 581>
VStem: 34 727<350 646 940 1236> 217 364<0 350 646 940 1236 1592>
LayerCount: 2
Fore
SplineSet
581 1592 m 1,0,-1
 581 1236 l 1,1,-1
 761 1236 l 1,2,-1
 761 940 l 1,3,-1
 581 940 l 1,4,-1
 581 646 l 1,5,-1
 761 646 l 1,6,-1
 761 350 l 1,7,-1
 581 350 l 1,8,-1
 581 0 l 1,9,-1
 217 0 l 1,10,-1
 217 350 l 1,11,-1
 34 350 l 1,12,-1
 34 646 l 1,13,-1
 217 646 l 1,14,-1
 217 940 l 1,15,-1
 34 940 l 1,16,-1
 34 1236 l 1,17,-1
 217 1236 l 1,18,-1
 217 1592 l 1,19,-1
 581 1592 l 1,0,-1
EndSplineSet
EndChar

StartChar: degree
Encoding: 115 176 102
Width: 804
VWidth: 0
Flags: W
HStem: 931 181<300.835 506.392> 1426 181<300.835 506.392>
VStem: 49 212<1156.73 1381.27> 545 211<1156.73 1381.27>
LayerCount: 2
Fore
SplineSet
261 1269 m 128,-1,1
 261 1206 261 1206 297.5 1159 c 128,-1,2
 334 1112 334 1112 403 1112 c 128,-1,3
 472 1112 472 1112 508.5 1159 c 128,-1,4
 545 1206 545 1206 545 1269 c 128,-1,5
 545 1332 545 1332 508.5 1379 c 128,-1,6
 472 1426 472 1426 403 1426 c 128,-1,7
 334 1426 334 1426 297.5 1379 c 128,-1,0
 261 1332 261 1332 261 1269 c 128,-1,1
49 1269 m 128,-1,9
 49 1425 49 1425 143.5 1516 c 128,-1,10
 238 1607 238 1607 402 1607 c 128,-1,11
 566 1607 566 1607 661 1516 c 128,-1,12
 756 1425 756 1425 756 1269 c 128,-1,13
 756 1113 756 1113 661 1022 c 128,-1,14
 566 931 566 931 402 931 c 128,-1,15
 238 931 238 931 143.5 1022 c 128,-1,8
 49 1113 49 1113 49 1269 c 128,-1,9
EndSplineSet
EndChar

StartChar: dieresis
Encoding: 108 168 103
Width: 976
VWidth: 0
Flags: W
HStem: 1591 298<67 425 551 909>
VStem: 67 358<1591 1889> 551 358<1591 1889>
LayerCount: 2
Fore
SplineSet
67 1591 m 1,0,-1
 67 1889 l 1,1,-1
 425 1889 l 1,2,-1
 425 1591 l 1,3,-1
 67 1591 l 1,0,-1
551 1591 m 1,4,-1
 551 1889 l 1,5,-1
 909 1889 l 1,6,-1
 909 1591 l 1,7,-1
 551 1591 l 1,4,-1
EndSplineSet
EndChar

StartChar: divide
Encoding: 183 247 104
Width: 683
VWidth: 0
Flags: W
HStem: 237 298<193 491> 638 232<34 650> 976 298<193 491>
VStem: 193 298<237 535 976 1274>
LayerCount: 2
Fore
SplineSet
34 638 m 1,0,-1
 34 870 l 1,1,-1
 650 870 l 1,2,-1
 650 638 l 1,3,-1
 34 638 l 1,0,-1
193 237 m 1,4,-1
 193 535 l 1,5,-1
 491 535 l 1,6,-1
 491 237 l 1,7,-1
 193 237 l 1,4,-1
193 976 m 1,8,-1
 193 1274 l 1,9,-1
 491 1274 l 1,10,-1
 491 976 l 1,11,-1
 193 976 l 1,8,-1
EndSplineSet
EndChar

StartChar: dollar
Encoding: 9 36 105
Width: 949
VWidth: 0
Flags: W
HStem: 1259 420<408.268 542.181>
VStem: 36 348<366.994 543> 54 329<1094.38 1243.15> 386 173<-113 40.9028 1554.26 1679> 562 351<368.182 538.578 1105 1239.15>
DStem2: 762 758 212 849 0.70588 -0.708331<-566.729 71.9487>
LayerCount: 2
Fore
SplineSet
386 -113 m 1,0,-1
 386 36 l 1,1,2
 198 58 198 58 117 168.5 c 128,-1,3
 36 279 36 279 36 488 c 2,4,-1
 36 543 l 1,5,-1
 384 543 l 1,6,-1
 384 501 l 2,7,8
 384 347 384 347 478 347 c 0,9,10
 517 347 517 347 539.5 377 c 128,-1,11
 562 407 562 407 562 456 c 0,12,13
 562 491 562 491 500 560 c 1,14,-1
 212 849 l 2,15,16
 54 1007 54 1007 54 1192 c 0,17,18
 54 1327 54 1327 143.5 1429 c 128,-1,19
 233 1531 233 1531 386 1558 c 1,20,-1
 386 1679 l 1,21,-1
 559 1679 l 1,22,-1
 559 1561 l 1,23,24
 725 1540 725 1540 816.5 1423.5 c 128,-1,25
 908 1307 908 1307 908 1105 c 1,26,-1
 551 1105 l 1,27,-1
 549 1190 l 1,28,29
 547 1218 547 1218 522.5 1238.5 c 128,-1,30
 498 1259 498 1259 467 1259 c 0,31,32
 432 1259 432 1259 407.5 1237.5 c 128,-1,33
 383 1216 383 1216 383 1182 c 0,34,35
 383 1132 383 1132 482 1034 c 2,36,-1
 762 758 l 2,37,38
 836 685 836 685 874.5 594.5 c 128,-1,39
 913 504 913 504 913 413 c 0,40,41
 913 319 913 319 874 239 c 128,-1,42
 835 159 835 159 753.5 103 c 128,-1,43
 672 47 672 47 559 34 c 1,44,-1
 559 -113 l 1,45,-1
 386 -113 l 1,0,-1
EndSplineSet
EndChar

StartChar: dotaccent
Encoding: 233 729 106
Width: 491
VWidth: 0
Flags: W
HStem: 1592 298<67 425>
VStem: 67 358<1592 1890>
LayerCount: 2
Fore
SplineSet
67 1592 m 1,0,-1
 67 1890 l 1,1,-1
 425 1890 l 1,2,-1
 425 1592 l 1,3,-1
 67 1592 l 1,0,-1
EndSplineSet
EndChar

StartChar: dotlessi
Encoding: 191 305 107
Width: 514
VWidth: 0
Flags: W
HStem: 0 21G<78 436> 1480 20G<78 436>
VStem: 78 358<0 1500>
LayerCount: 2
Fore
SplineSet
78 0 m 1,0,-1
 78 1500 l 1,1,-1
 436 1500 l 1,2,-1
 436 0 l 1,3,-1
 78 0 l 1,0,-1
EndSplineSet
EndChar

StartChar: e
Encoding: 74 101 108
Width: 996
VWidth: 0
Flags: W
HStem: -18 278<432.085 555.406> 704 227<416 584> 1249 269<435.849 562.771>
VStem: 58 357<272.05 704 931 1233.54> 584 356<281.145 579 931 1236.77>
LayerCount: 2
Fore
SplineSet
490 -18 m 0,0,1
 410 -18 410 -18 345 -1.5 c 128,-1,2
 280 15 280 15 235.5 41.5 c 128,-1,3
 191 68 191 68 158.5 108.5 c 128,-1,4
 126 149 126 149 107 191 c 128,-1,5
 88 233 88 233 76.5 287 c 128,-1,6
 65 341 65 341 61.5 387 c 128,-1,7
 58 433 58 433 58 489 c 2,8,-1
 58 1092 l 2,9,10
 58 1299 58 1299 176.5 1408.5 c 128,-1,11
 295 1518 295 1518 508 1518 c 0,12,13
 940 1518 940 1518 940 1092 c 2,14,-1
 940 983 l 2,15,16
 940 780 940 780 936 704 c 1,17,-1
 416 704 l 1,18,-1
 416 494 l 2,19,20
 416 484 416 484 415.5 461.5 c 128,-1,21
 415 439 415 439 415 427 c 0,22,23
 415 391 415 391 418 365.5 c 128,-1,24
 421 340 421 340 429 313.5 c 128,-1,25
 437 287 437 287 455.5 273.5 c 128,-1,26
 474 260 474 260 502 260 c 0,27,28
 531 260 531 260 549 280.5 c 128,-1,29
 567 301 567 301 574.5 339.5 c 128,-1,30
 582 378 582 378 584 408 c 128,-1,31
 586 438 586 438 586 483 c 0,32,33
 586 571 586 571 584 579 c 1,34,-1
 940 579 l 1,35,-1
 940 494 l 2,36,37
 940 369 940 369 921 281 c 128,-1,38
 902 193 902 193 853.5 122.5 c 128,-1,39
 805 52 805 52 715 17 c 128,-1,40
 625 -18 625 -18 490 -18 c 0,0,1
504 1249 m 0,41,42
 476 1249 476 1249 457 1234.5 c 128,-1,43
 438 1220 438 1220 429 1191 c 128,-1,44
 420 1162 420 1162 417 1131.5 c 128,-1,45
 414 1101 414 1101 414 1057 c 0,46,47
 414 1036 414 1036 415 994 c 128,-1,48
 416 952 416 952 416 931 c 1,49,-1
 584 931 l 1,50,-1
 584 1087 l 2,51,52
 584 1249 584 1249 504 1249 c 0,41,42
EndSplineSet
EndChar

StartChar: eacute
Encoding: 170 233 109
Width: 996
VWidth: 0
Flags: W
HStem: -18 278<432.085 555.406> 704 227<416 584> 1249 269<435.849 562.771>
VStem: 58 357<272.05 704 931 1233.54> 584 356<281.145 579 931 1236.77>
LayerCount: 2
Fore
SplineSet
490 -18 m 0,0,1
 410 -18 410 -18 345 -1.5 c 128,-1,2
 280 15 280 15 235.5 41.5 c 128,-1,3
 191 68 191 68 158.5 108.5 c 128,-1,4
 126 149 126 149 107 191 c 128,-1,5
 88 233 88 233 76.5 287 c 128,-1,6
 65 341 65 341 61.5 387 c 128,-1,7
 58 433 58 433 58 489 c 2,8,-1
 58 1092 l 2,9,10
 58 1299 58 1299 176.5 1408.5 c 128,-1,11
 295 1518 295 1518 508 1518 c 0,12,13
 940 1518 940 1518 940 1092 c 2,14,-1
 940 983 l 2,15,16
 940 780 940 780 936 704 c 1,17,-1
 416 704 l 1,18,-1
 416 494 l 2,19,20
 416 484 416 484 415.5 461.5 c 128,-1,21
 415 439 415 439 415 427 c 0,22,23
 415 391 415 391 418 365.5 c 128,-1,24
 421 340 421 340 429 313.5 c 128,-1,25
 437 287 437 287 455.5 273.5 c 128,-1,26
 474 260 474 260 502 260 c 0,27,28
 531 260 531 260 549 280.5 c 128,-1,29
 567 301 567 301 574.5 339.5 c 128,-1,30
 582 378 582 378 584 408 c 128,-1,31
 586 438 586 438 586 483 c 0,32,33
 586 571 586 571 584 579 c 1,34,-1
 940 579 l 1,35,-1
 940 494 l 2,36,37
 940 369 940 369 921 281 c 128,-1,38
 902 193 902 193 853.5 122.5 c 128,-1,39
 805 52 805 52 715 17 c 128,-1,40
 625 -18 625 -18 490 -18 c 0,0,1
504 1249 m 0,41,42
 476 1249 476 1249 457 1234.5 c 128,-1,43
 438 1220 438 1220 429 1191 c 128,-1,44
 420 1162 420 1162 417 1131.5 c 128,-1,45
 414 1101 414 1101 414 1057 c 0,46,47
 414 1036 414 1036 415 994 c 128,-1,48
 416 952 416 952 416 931 c 1,49,-1
 584 931 l 1,50,-1
 584 1087 l 2,51,52
 584 1249 584 1249 504 1249 c 0,41,42
234 1553 m 1,53,-1
 234 1776 l 1,54,-1
 709 1994 l 1,55,-1
 709 1647 l 1,56,-1
 234 1553 l 1,53,-1
EndSplineSet
EndChar

StartChar: ecircumflex
Encoding: 171 234 110
Width: 996
VWidth: 0
Flags: W
HStem: -18 278<432.085 555.406> 704 227<416 584> 1249 269<435.849 562.771> 1591 403<294 412 584 702> 1876 118<294 702>
VStem: 58 357<272.05 704 931 1233.54 1591 1606.94> 584 356<281.145 579 931 1236.77 1591 1610.19>
LayerCount: 2
Fore
SplineSet
490 -18 m 0,0,1
 410 -18 410 -18 345 -1.5 c 128,-1,2
 280 15 280 15 235.5 41.5 c 128,-1,3
 191 68 191 68 158.5 108.5 c 128,-1,4
 126 149 126 149 107 191 c 128,-1,5
 88 233 88 233 76.5 287 c 128,-1,6
 65 341 65 341 61.5 387 c 128,-1,7
 58 433 58 433 58 489 c 2,8,-1
 58 1092 l 2,9,10
 58 1299 58 1299 176.5 1408.5 c 128,-1,11
 295 1518 295 1518 508 1518 c 0,12,13
 940 1518 940 1518 940 1092 c 2,14,-1
 940 983 l 2,15,16
 940 780 940 780 936 704 c 1,17,-1
 416 704 l 1,18,-1
 416 494 l 2,19,20
 416 484 416 484 415.5 461.5 c 128,-1,21
 415 439 415 439 415 427 c 0,22,23
 415 391 415 391 418 365.5 c 128,-1,24
 421 340 421 340 429 313.5 c 128,-1,25
 437 287 437 287 455.5 273.5 c 128,-1,26
 474 260 474 260 502 260 c 0,27,28
 531 260 531 260 549 280.5 c 128,-1,29
 567 301 567 301 574.5 339.5 c 128,-1,30
 582 378 582 378 584 408 c 128,-1,31
 586 438 586 438 586 483 c 0,32,33
 586 571 586 571 584 579 c 1,34,-1
 940 579 l 1,35,-1
 940 494 l 2,36,37
 940 369 940 369 921 281 c 128,-1,38
 902 193 902 193 853.5 122.5 c 128,-1,39
 805 52 805 52 715 17 c 128,-1,40
 625 -18 625 -18 490 -18 c 0,0,1
504 1249 m 0,41,42
 476 1249 476 1249 457 1234.5 c 128,-1,43
 438 1220 438 1220 429 1191 c 128,-1,44
 420 1162 420 1162 417 1131.5 c 128,-1,45
 414 1101 414 1101 414 1057 c 0,46,47
 414 1036 414 1036 415 994 c 128,-1,48
 416 952 416 952 416 931 c 1,49,-1
 584 931 l 1,50,-1
 584 1087 l 2,51,52
 584 1249 584 1249 504 1249 c 0,41,42
702 1994 m 1,53,-1
 943 1591 l 1,54,-1
 584 1591 l 1,55,-1
 498 1876 l 1,56,-1
 412 1591 l 1,57,-1
 53 1591 l 1,58,-1
 294 1994 l 1,59,-1
 702 1994 l 1,53,-1
EndSplineSet
EndChar

StartChar: edieresis
Encoding: 172 235 111
Width: 996
VWidth: 0
Flags: W
HStem: -18 278<432.085 555.406> 704 227<416 584> 1249 269<435.849 562.771> 1591 298<77 435 561 919>
VStem: 58 357<272.05 704 931 1233.54> 77 358<263.949 425.878 1591 1889> 561 358<281.145 481.597 1591 1889> 584 356<281.145 579 931 1236.77>
LayerCount: 2
Fore
SplineSet
490 -18 m 0,0,1
 410 -18 410 -18 345 -1.5 c 128,-1,2
 280 15 280 15 235.5 41.5 c 128,-1,3
 191 68 191 68 158.5 108.5 c 128,-1,4
 126 149 126 149 107 191 c 128,-1,5
 88 233 88 233 76.5 287 c 128,-1,6
 65 341 65 341 61.5 387 c 128,-1,7
 58 433 58 433 58 489 c 2,8,-1
 58 1092 l 2,9,10
 58 1299 58 1299 176.5 1408.5 c 128,-1,11
 295 1518 295 1518 508 1518 c 0,12,13
 940 1518 940 1518 940 1092 c 2,14,-1
 940 983 l 2,15,16
 940 780 940 780 936 704 c 1,17,-1
 416 704 l 1,18,-1
 416 494 l 2,19,20
 416 484 416 484 415.5 461.5 c 128,-1,21
 415 439 415 439 415 427 c 0,22,23
 415 391 415 391 418 365.5 c 128,-1,24
 421 340 421 340 429 313.5 c 128,-1,25
 437 287 437 287 455.5 273.5 c 128,-1,26
 474 260 474 260 502 260 c 0,27,28
 531 260 531 260 549 280.5 c 128,-1,29
 567 301 567 301 574.5 339.5 c 128,-1,30
 582 378 582 378 584 408 c 128,-1,31
 586 438 586 438 586 483 c 0,32,33
 586 571 586 571 584 579 c 1,34,-1
 940 579 l 1,35,-1
 940 494 l 2,36,37
 940 369 940 369 921 281 c 128,-1,38
 902 193 902 193 853.5 122.5 c 128,-1,39
 805 52 805 52 715 17 c 128,-1,40
 625 -18 625 -18 490 -18 c 0,0,1
504 1249 m 0,41,42
 476 1249 476 1249 457 1234.5 c 128,-1,43
 438 1220 438 1220 429 1191 c 128,-1,44
 420 1162 420 1162 417 1131.5 c 128,-1,45
 414 1101 414 1101 414 1057 c 0,46,47
 414 1036 414 1036 415 994 c 128,-1,48
 416 952 416 952 416 931 c 1,49,-1
 584 931 l 1,50,-1
 584 1087 l 2,51,52
 584 1249 584 1249 504 1249 c 0,41,42
77 1591 m 1,53,-1
 77 1889 l 1,54,-1
 435 1889 l 1,55,-1
 435 1591 l 1,56,-1
 77 1591 l 1,53,-1
561 1591 m 1,57,-1
 561 1889 l 1,58,-1
 919 1889 l 1,59,-1
 919 1591 l 1,60,-1
 561 1591 l 1,57,-1
EndSplineSet
EndChar

StartChar: egrave
Encoding: 169 232 112
Width: 996
VWidth: 0
Flags: W
HStem: -18 278<432.085 555.406> 704 227<416 584> 1249 269<435.849 562.771>
VStem: 58 357<272.05 704 931 1233.54> 584 356<281.145 579 931 1236.77>
LayerCount: 2
Fore
SplineSet
490 -18 m 0,0,1
 410 -18 410 -18 345 -1.5 c 128,-1,2
 280 15 280 15 235.5 41.5 c 128,-1,3
 191 68 191 68 158.5 108.5 c 128,-1,4
 126 149 126 149 107 191 c 128,-1,5
 88 233 88 233 76.5 287 c 128,-1,6
 65 341 65 341 61.5 387 c 128,-1,7
 58 433 58 433 58 489 c 2,8,-1
 58 1092 l 2,9,10
 58 1299 58 1299 176.5 1408.5 c 128,-1,11
 295 1518 295 1518 508 1518 c 0,12,13
 940 1518 940 1518 940 1092 c 2,14,-1
 940 983 l 2,15,16
 940 780 940 780 936 704 c 1,17,-1
 416 704 l 1,18,-1
 416 494 l 2,19,20
 416 484 416 484 415.5 461.5 c 128,-1,21
 415 439 415 439 415 427 c 0,22,23
 415 391 415 391 418 365.5 c 128,-1,24
 421 340 421 340 429 313.5 c 128,-1,25
 437 287 437 287 455.5 273.5 c 128,-1,26
 474 260 474 260 502 260 c 0,27,28
 531 260 531 260 549 280.5 c 128,-1,29
 567 301 567 301 574.5 339.5 c 128,-1,30
 582 378 582 378 584 408 c 128,-1,31
 586 438 586 438 586 483 c 0,32,33
 586 571 586 571 584 579 c 1,34,-1
 940 579 l 1,35,-1
 940 494 l 2,36,37
 940 369 940 369 921 281 c 128,-1,38
 902 193 902 193 853.5 122.5 c 128,-1,39
 805 52 805 52 715 17 c 128,-1,40
 625 -18 625 -18 490 -18 c 0,0,1
504 1249 m 0,41,42
 476 1249 476 1249 457 1234.5 c 128,-1,43
 438 1220 438 1220 429 1191 c 128,-1,44
 420 1162 420 1162 417 1131.5 c 128,-1,45
 414 1101 414 1101 414 1057 c 0,46,47
 414 1036 414 1036 415 994 c 128,-1,48
 416 952 416 952 416 931 c 1,49,-1
 584 931 l 1,50,-1
 584 1087 l 2,51,52
 584 1249 584 1249 504 1249 c 0,41,42
719 1553 m 1,53,-1
 244 1647 l 1,54,-1
 244 1994 l 1,55,-1
 719 1776 l 1,56,-1
 719 1553 l 1,53,-1
EndSplineSet
EndChar

StartChar: eight
Encoding: 29 56 113
Width: 1069
VWidth: 0
Flags: W
HStem: -18 337<463.051 608.949> 791 310<467.726 587.857> 1416 314<465.52 605.02>
VStem: 75 366<335.818 771.292 1118.55 1396.8> 629 367<335.818 769.855 1116.92 1394.47>
LayerCount: 2
Fore
SplineSet
536 791 m 0,0,1
 519 791 519 791 504.5 784 c 128,-1,2
 490 777 490 777 480.5 765.5 c 128,-1,3
 471 754 471 754 463.5 738 c 128,-1,4
 456 722 456 722 452 704 c 128,-1,5
 448 686 448 686 445.5 666.5 c 128,-1,6
 443 647 443 647 442.5 627.5 c 128,-1,7
 442 608 442 608 441 590 c 128,-1,8
 440 572 440 572 441 558 c 0,9,10
 441 548 441 548 441 544 c 0,11,12
 441 538 441 538 440.5 519 c 128,-1,13
 440 500 440 500 440 488 c 0,14,15
 440 319 440 319 536 319 c 128,-1,16
 632 319 632 319 632 488 c 0,17,18
 632 508 632 508 631.5 534.5 c 128,-1,19
 631 561 631 561 631 575 c 0,20,21
 631 615 631 615 628.5 645 c 128,-1,22
 626 675 626 675 617.5 712.5 c 128,-1,23
 609 750 609 750 588.5 770.5 c 128,-1,24
 568 791 568 791 536 791 c 0,0,1
536 1730 m 0,25,26
 761 1730 761 1730 878.5 1626.5 c 128,-1,27
 996 1523 996 1523 996 1283 c 0,28,29
 996 1239 996 1239 994.5 1210.5 c 128,-1,30
 993 1182 993 1182 985 1137.5 c 128,-1,31
 977 1093 977 1093 962.5 1062.5 c 128,-1,32
 948 1032 948 1032 918.5 1002 c 128,-1,33
 889 972 889 972 847 955 c 1,34,35
 875 942 875 942 897 925.5 c 128,-1,36
 919 909 919 909 934.5 889.5 c 128,-1,37
 950 870 950 870 961 847.5 c 128,-1,38
 972 825 972 825 979 799.5 c 128,-1,39
 986 774 986 774 990 745.5 c 128,-1,40
 994 717 994 717 995 686.5 c 128,-1,41
 996 656 996 656 997 622 c 128,-1,42
 998 588 998 588 998 552 c 0,43,44
 998 524 998 524 997 510 c 0,45,46
 997 387 997 387 973 293.5 c 128,-1,47
 949 200 949 200 908.5 141.5 c 128,-1,48
 868 83 868 83 807.5 46.5 c 128,-1,49
 747 10 747 10 682 -4 c 128,-1,50
 617 -18 617 -18 536 -18 c 128,-1,51
 455 -18 455 -18 390 -4 c 128,-1,52
 325 10 325 10 264.5 46.5 c 128,-1,53
 204 83 204 83 163.5 141.5 c 128,-1,54
 123 200 123 200 99 293.5 c 128,-1,55
 75 387 75 387 75 510 c 0,56,57
 75 524 75 524 75 552 c 0,58,59
 75 600 75 600 75 623.5 c 128,-1,60
 75 647 75 647 76.5 687 c 128,-1,61
 78 727 78 727 82 747.5 c 128,-1,62
 86 768 86 768 93 799 c 128,-1,63
 100 830 100 830 111 848.5 c 128,-1,64
 122 867 122 867 137.5 889 c 128,-1,65
 153 911 153 911 175 927 c 128,-1,66
 197 943 197 943 225 957 c 1,67,68
 197 968 197 968 175 983 c 128,-1,69
 153 998 153 998 137.5 1019.5 c 128,-1,70
 122 1041 122 1041 111 1059.5 c 128,-1,71
 100 1078 100 1078 93.5 1107.5 c 128,-1,72
 87 1137 87 1137 83 1154.5 c 128,-1,73
 79 1172 79 1172 77.5 1205 c 128,-1,74
 76 1238 76 1238 76 1251 c 128,-1,75
 76 1264 76 1264 76 1296 c 0,76,77
 76 1415 76 1415 108.5 1500.5 c 128,-1,78
 141 1586 141 1586 203 1635.5 c 128,-1,79
 265 1685 265 1685 347 1707.5 c 128,-1,80
 429 1730 429 1730 536 1730 c 0,25,26
536 1101 m 128,-1,82
 629 1101 629 1101 629 1264 c 0,83,84
 629 1301 629 1301 622 1332.5 c 128,-1,85
 615 1364 615 1364 593 1390 c 128,-1,86
 571 1416 571 1416 536 1416 c 128,-1,87
 501 1416 501 1416 479 1390 c 128,-1,88
 457 1364 457 1364 450 1332.5 c 128,-1,89
 443 1301 443 1301 443 1264 c 0,90,81
 443 1101 443 1101 536 1101 c 128,-1,82
EndSplineSet
EndChar

StartChar: ellipsis
Encoding: 251 8230 114
Width: 1473
VWidth: 0
Flags: W
HStem: 1 298<67 425 558 916 1049 1407>
VStem: 67 358<1 299> 558 358<1 299> 1049 358<1 299>
CounterMasks: 1 70
LayerCount: 2
Fore
SplineSet
67 1 m 1,0,-1
 67 299 l 1,1,-1
 425 299 l 1,2,-1
 425 1 l 1,3,-1
 67 1 l 1,0,-1
558 1 m 1,4,-1
 558 299 l 1,5,-1
 916 299 l 1,6,-1
 916 1 l 1,7,-1
 558 1 l 1,4,-1
1049 1 m 1,8,-1
 1049 299 l 1,9,-1
 1407 299 l 1,10,-1
 1407 1 l 1,11,-1
 1049 1 l 1,8,-1
EndSplineSet
EndChar

StartChar: emdash
Encoding: 241 8212 115
Width: 1166
VWidth: 0
Flags: W
HStem: 509 232<67 1099>
LayerCount: 2
Fore
SplineSet
67 741 m 1,0,-1
 1099 741 l 1,1,-1
 1099 509 l 1,2,-1
 67 509 l 1,3,-1
 67 741 l 1,0,-1
EndSplineSet
EndChar

StartChar: endash
Encoding: 240 8211 116
Width: 650
VWidth: 0
Flags: W
HStem: 509 232<67 583>
VStem: 67 516<509 741>
LayerCount: 2
Fore
SplineSet
67 509 m 1,0,-1
 67 741 l 1,1,-1
 583 741 l 1,2,-1
 583 509 l 1,3,-1
 67 509 l 1,0,-1
EndSplineSet
EndChar

StartChar: equal
Encoding: 34 61 117
Width: 648
VWidth: 0
Flags: W
HStem: 509 232<67 581> 892 224<67 581>
VStem: 67 514<509 741 892 1116>
LayerCount: 2
Fore
SplineSet
67 509 m 1,0,-1
 67 741 l 1,1,-1
 581 741 l 1,2,-1
 581 509 l 1,3,-1
 67 509 l 1,0,-1
67 892 m 1,4,-1
 67 1116 l 1,5,-1
 581 1116 l 1,6,-1
 581 892 l 1,7,-1
 67 892 l 1,4,-1
EndSplineSet
EndChar

StartChar: exclam
Encoding: 6 33 118
Width: 487
VWidth: 0
Flags: W
HStem: 1 298<65 423> 1573 20G<65 423>
VStem: 65 358<1 299> 135 218<439 675.339>
LayerCount: 2
Fore
SplineSet
65 1593 m 1,0,-1
 423 1593 l 1,1,-1
 353 439 l 1,2,-1
 135 439 l 1,3,-1
 65 1593 l 1,0,-1
65 1 m 1,4,-1
 65 299 l 1,5,-1
 423 299 l 1,6,-1
 423 1 l 1,7,-1
 65 1 l 1,4,-1
EndSplineSet
EndChar

StartChar: exclamdown
Encoding: 101 161 119
Width: 487
VWidth: 0
Flags: W
HStem: 1 21G<65 423> 1295 298<65 423>
VStem: 65 358<1295 1593> 135 218<918.661 1155>
LayerCount: 2
Fore
SplineSet
65 1 m 1,0,-1
 135 1155 l 1,1,-1
 353 1155 l 1,2,-1
 423 1 l 1,3,-1
 65 1 l 1,0,-1
65 1593 m 1,4,-1
 423 1593 l 1,5,-1
 423 1295 l 1,6,-1
 65 1295 l 1,7,-1
 65 1593 l 1,4,-1
EndSplineSet
EndChar

StartChar: f
Encoding: 75 102 120
Width: 635
VWidth: 0
Flags: W
HStem: 0 21G<137 492> 1157 277<76 137 492 563> 1533 245<258 546.158>
VStem: 137 355<0 1157 1434 1513.4>
LayerCount: 2
Fore
SplineSet
137 0 m 1,0,-1
 137 1161 l 1,1,-1
 72 1161 l 1,2,3
 72 1208 72 1208 76 1434 c 1,4,-1
 137 1434 l 1,5,-1
 137 1536 l 2,6,7
 137 1778 137 1778 379 1778 c 0,8,9
 494 1778 494 1778 563 1749 c 1,10,-1
 563 1528 l 1,11,12
 541 1533 541 1533 530 1533 c 0,13,14
 502 1533 502 1533 493.5 1514 c 128,-1,15
 485 1495 485 1495 485 1453 c 2,16,-1
 485 1434 l 1,17,-1
 563 1434 l 1,18,-1
 563 1157 l 1,19,-1
 492 1157 l 1,20,-1
 492 0 l 1,21,-1
 137 0 l 1,0,-1
EndSplineSet
EndChar

StartChar: uniFB01
Encoding: 273 64257 121
Width: 1149
VWidth: 0
Flags: W
HStem: 0 21G<137 492 700 1058> 1157 277<76 137 492 563> 1480 20G<700 1058> 1533 245<315.385 528.158> 1567 202<700 1058>
VStem: 137 355<0 1157 1434 1513.4> 700 358<0 1500 1567 1769>
LayerCount: 2
Fore
SplineSet
137 0 m 1,0,-1
 137 1161 l 1,1,-1
 72 1161 l 1,2,3
 72 1208 72 1208 76 1434 c 1,4,-1
 137 1434 l 1,5,-1
 137 1536 l 2,6,7
 137 1778 137 1778 379 1778 c 0,8,9
 494 1778 494 1778 563 1749 c 1,10,-1
 563 1528 l 1,11,12
 541 1533 541 1533 530 1533 c 0,13,14
 502 1533 502 1533 493.5 1514 c 128,-1,15
 485 1495 485 1495 485 1453 c 2,16,-1
 485 1434 l 1,17,-1
 563 1434 l 1,18,-1
 563 1157 l 1,19,-1
 492 1157 l 1,20,-1
 492 0 l 1,21,-1
 137 0 l 1,0,-1
700 0 m 1,22,-1
 700 1500 l 1,23,-1
 1058 1500 l 1,24,-1
 1058 0 l 1,25,-1
 700 0 l 1,22,-1
700 1567 m 1,26,-1
 700 1769 l 1,27,-1
 1058 1769 l 1,28,-1
 1058 1567 l 1,29,-1
 700 1567 l 1,26,-1
EndSplineSet
EndChar

StartChar: five
Encoding: 26 53 122
Width: 1069
VWidth: 0
Flags: W
HStem: -24 319<458.754 605.372> 942 285<451.074 663> 1370 320<443 948>
VStem: 70 366<313.53 627> 109 323<801 925.339 1178 1370> 623 378<331.616 925.099>
LayerCount: 2
Fore
SplineSet
530 -24 m 0,0,1
 321 -24 321 -24 195.5 75.5 c 128,-1,2
 70 175 70 175 70 373 c 2,3,-1
 70 627 l 1,4,-1
 436 627 l 1,5,-1
 436 481 l 2,6,7
 436 429 436 429 442.5 392.5 c 128,-1,8
 449 356 449 356 458 337.5 c 128,-1,9
 467 319 467 319 481.5 308.5 c 128,-1,10
 496 298 496 298 506 296.5 c 128,-1,11
 516 295 516 295 530 295 c 0,12,13
 584 295 584 295 603.5 330.5 c 128,-1,14
 623 366 623 366 623 428 c 2,15,-1
 623 764 l 2,16,17
 623 789 623 789 622 806.5 c 128,-1,18
 621 824 621 824 616.5 852 c 128,-1,19
 612 880 612 880 603 897.5 c 128,-1,20
 594 915 594 915 575.5 928.5 c 128,-1,21
 557 942 557 942 532 942 c 0,22,23
 432 942 432 942 432 801 c 1,24,25
 109 801 l 1,26,-1
 109 1690 l 1,27,-1
 948 1690 l 1,28,-1
 948 1370 l 1,29,-1
 443 1370 l 1,30,-1
 444 1178 l 1,31,32
 498 1227 498 1227 618 1227 c 0,33,34
 708 1227 708 1227 775.5 1199 c 128,-1,35
 843 1171 843 1171 886 1122.5 c 128,-1,36
 929 1074 929 1074 955 999.5 c 128,-1,37
 981 925 981 925 991 841 c 128,-1,38
 1001 757 1001 757 1001 649 c 0,39,40
 1001 576 1001 576 1000.5 539 c 128,-1,41
 1000 502 1000 502 996 434 c 128,-1,42
 992 366 992 366 984 329 c 128,-1,43
 976 292 976 292 959.5 236 c 128,-1,44
 943 180 943 180 920 148.5 c 128,-1,45
 897 117 897 117 861.5 79.5 c 128,-1,46
 826 42 826 42 779.5 22.5 c 128,-1,47
 733 3 733 3 670 -10.5 c 128,-1,48
 607 -24 607 -24 530 -24 c 0,0,1
EndSplineSet
EndChar

StartChar: uniFB02
Encoding: 274 64258 123
Width: 1145
VWidth: 0
Flags: W
HStem: 0 21G<137 492 707 1071> 1157 277<76 137 492 563> 1533 245<315.385 528.158>
VStem: 137 355<0 1157 1434 1513.4> 707 364<0 1767>
LayerCount: 2
Fore
SplineSet
137 0 m 1,0,-1
 137 1161 l 1,1,-1
 72 1161 l 1,2,3
 72 1208 72 1208 76 1434 c 1,4,-1
 137 1434 l 1,5,-1
 137 1536 l 2,6,7
 137 1778 137 1778 379 1778 c 0,8,9
 494 1778 494 1778 563 1749 c 1,10,-1
 563 1528 l 1,11,12
 541 1533 541 1533 530 1533 c 0,13,14
 502 1533 502 1533 493.5 1514 c 128,-1,15
 485 1495 485 1495 485 1453 c 2,16,-1
 485 1434 l 1,17,-1
 563 1434 l 1,18,-1
 563 1157 l 1,19,-1
 492 1157 l 1,20,-1
 492 0 l 1,21,-1
 137 0 l 1,0,-1
1071 0 m 1,22,-1
 707 0 l 1,23,-1
 707 1767 l 1,24,-1
 1071 1767 l 1,25,-1
 1071 0 l 1,22,-1
EndSplineSet
EndChar

StartChar: florin
Encoding: 201 402 124
Width: 627
VWidth: 0
Flags: W
HStem: -47 245<48.6451 372> 986 277<53 138 493 584> 1362 245<259 582.355>
VStem: 138 355<218.115 986 1263 1341.89>
LayerCount: 2
Fore
SplineSet
493 986 m 1,0,-1
 493 195 l 2,1,2
 493 -47 493 -47 251 -47 c 0,3,4
 124 -47 124 -47 47 -18 c 1,5,-1
 47 203 l 1,6,7
 75 198 75 198 90 198 c 0,8,9
 124 198 124 198 134.5 217.5 c 128,-1,10
 145 237 145 237 145 279 c 2,11,-1
 145 297 l 1,12,-1
 138 986 l 1,13,-1
 53 986 l 1,14,-1
 53 1263 l 1,15,-1
 138 1263 l 1,16,-1
 138 1365 l 2,17,18
 138 1607 138 1607 380 1607 c 0,19,20
 507 1607 507 1607 584 1578 c 1,21,-1
 584 1357 l 1,22,23
 556 1362 556 1362 541 1362 c 0,24,25
 507 1362 507 1362 496.5 1342.5 c 128,-1,26
 486 1323 486 1323 486 1281 c 2,27,-1
 486 1263 l 1,28,-1
 584 1263 l 1,29,-1
 584 986 l 1,30,-1
 493 986 l 1,0,-1
EndSplineSet
EndChar

StartChar: four
Encoding: 25 52 125
Width: 1122
VWidth: 0
Flags: W
HStem: -1 21G<612 981> 270 305<414 612 981 1051> 1572 20G<416.308 981>
VStem: 612 369<-1 270 575 1299>
LayerCount: 2
Fore
SplineSet
1051 575 m 1,0,-1
 1051 270 l 1,1,-1
 981 270 l 1,2,-1
 981 -1 l 1,3,-1
 612 -1 l 1,4,-1
 612 270 l 1,5,-1
 70 270 l 1,6,-1
 70 537 l 1,7,-1
 423 1592 l 1,8,-1
 981 1592 l 1,9,-1
 981 575 l 1,10,-1
 1051 575 l 1,0,-1
414 575 m 1,11,-1
 612 575 l 1,12,-1
 612 1299 l 1,13,-1
 414 575 l 1,11,-1
EndSplineSet
EndChar

StartChar: uni2074
Encoding: 256 8308 126
Width: 630
VWidth: 0
Flags: W
HStem: 802 171<220 330 537 576> 1572 20G<208.165 537>
VStem: 330 207<650 802 973 1378>
LayerCount: 2
Fore
SplineSet
576 973 m 1,0,-1
 576 802 l 1,1,-1
 537 802 l 1,2,-1
 537 650 l 1,3,-1
 330 650 l 1,4,-1
 330 802 l 1,5,-1
 27 802 l 1,6,-1
 27 951 l 1,7,-1
 214 1592 l 1,8,-1
 537 1592 l 1,9,-1
 537 973 l 1,10,-1
 576 973 l 1,0,-1
220 973 m 1,11,-1
 330 973 l 1,12,-1
 330 1378 l 1,13,-1
 220 973 l 1,11,-1
EndSplineSet
EndChar

StartChar: fraction
Encoding: 255 8260 127
Width: 812
VWidth: 0
Flags: W
HStem: 0 21G<19 307.557> 1747 20G<503.454 793>
VStem: 19 283<0 283> 509 284<1483 1767>
DStem2: 19 0 302 0 0.267728 0.963494<75.7671 1833.68>
LayerCount: 2
Fore
SplineSet
302 0 m 1,0,-1
 19 0 l 1,1,-1
 509 1767 l 1,2,-1
 793 1767 l 1,3,-1
 302 0 l 1,0,-1
EndSplineSet
EndChar

StartChar: g
Encoding: 76 103 128
Width: 1036
VWidth: 0
Flags: W
HStem: -220 253<241.51 555.854> 160 270<339.5 536.19> 1243 275<344 522.528> 1480 20G<608 973>
VStem: 80 362<445.472 1235.41> 608 365<86.6353 314 442.023 1227.4 1331 1500>
LayerCount: 2
Fore
SplineSet
485 -220 m 0,0,1
 338 -220 338 -220 241.5 -195.5 c 128,-1,2
 145 -171 145 -171 55 -96 c 1,3,-1
 176 111 l 1,4,5
 307 33 307 33 438 33 c 0,6,7
 520 33 520 33 564 85 c 128,-1,8
 608 137 608 137 608 231 c 2,9,-1
 608 314 l 1,10,11
 564 160 564 160 379 160 c 0,12,13
 300 160 300 160 240.5 191 c 128,-1,14
 181 222 181 222 147 276 c 128,-1,15
 113 330 113 330 96.5 397 c 128,-1,16
 80 464 80 464 80 543 c 2,17,-1
 80 1106 l 2,18,19
 80 1223 80 1223 101 1304.5 c 128,-1,20
 122 1386 122 1386 163 1432 c 128,-1,21
 204 1478 204 1478 256.5 1498 c 128,-1,22
 309 1518 309 1518 379 1518 c 0,23,24
 415 1518 415 1518 447 1510 c 128,-1,25
 479 1502 479 1502 512 1482.5 c 128,-1,26
 545 1463 545 1463 570.5 1424.5 c 128,-1,27
 596 1386 596 1386 608 1331 c 1,28,-1
 608 1500 l 1,29,-1
 973 1500 l 1,30,-1
 973 254 l 2,31,32
 973 117 973 117 941.5 24 c 128,-1,33
 910 -69 910 -69 845.5 -122 c 128,-1,34
 781 -175 781 -175 694.5 -197.5 c 128,-1,35
 608 -220 608 -220 485 -220 c 0,0,1
520 1243 m 0,36,37
 493 1243 493 1243 475.5 1231 c 128,-1,38
 458 1219 458 1219 451.5 1195.5 c 128,-1,39
 445 1172 445 1172 443.5 1157 c 128,-1,40
 442 1142 442 1142 442 1116 c 2,41,-1
 442 582 l 2,42,43
 442 554 442 554 444 534.5 c 128,-1,44
 446 515 446 515 453 487.5 c 128,-1,45
 460 460 460 460 478 445 c 128,-1,46
 496 430 496 430 524 430 c 0,47,48
 608 430 608 430 608 582 c 2,49,-1
 608 1116 l 2,50,51
 608 1159 608 1159 584.5 1201 c 128,-1,52
 561 1243 561 1243 520 1243 c 0,36,37
EndSplineSet
EndChar

StartChar: germandbls
Encoding: 160 223 129
Width: 1026
VWidth: 0
Flags: W
HStem: 0 21G<64 414 484 644.5> 1346 247<421.654 559.671>
VStem: 64 350<0 1333.86> 564 351<1000.01 1340.48> 627 348<305.536 709.927>
LayerCount: 2
Fore
SplineSet
489 1593 m 0,0,1
 583 1593 583 1593 657.5 1574 c 128,-1,2
 732 1555 732 1555 791.5 1514 c 128,-1,3
 851 1473 851 1473 883 1401 c 128,-1,4
 915 1329 915 1329 915 1229 c 0,5,6
 915 1224 915 1224 915 1214 c 0,7,8
 915 1179 915 1179 915 1162 c 128,-1,9
 915 1145 915 1145 912 1109 c 128,-1,10
 909 1073 909 1073 903.5 1051.5 c 128,-1,11
 898 1030 898 1030 887 1000 c 128,-1,12
 876 970 876 970 860.5 951 c 128,-1,13
 845 932 845 932 820.5 914.5 c 128,-1,14
 796 897 796 897 765 887 c 1,15,16
 807 877 807 877 840 855.5 c 128,-1,17
 873 834 873 834 894.5 808.5 c 128,-1,18
 916 783 916 783 932 747.5 c 128,-1,19
 948 712 948 712 956 681 c 128,-1,20
 964 650 964 650 968.5 609 c 128,-1,21
 973 568 973 568 974 540.5 c 128,-1,22
 975 513 975 513 975 476 c 0,23,24
 975 359 975 359 957.5 276 c 128,-1,25
 940 193 940 193 897 128.5 c 128,-1,26
 854 64 854 64 777.5 32 c 128,-1,27
 701 0 701 0 588 0 c 2,28,-1
 484 0 l 1,29,-1
 484 281 l 1,30,31
 627 281 627 281 627 399 c 2,32,-1
 627 598 l 2,33,34
 627 677 627 677 595 711 c 128,-1,35
 563 745 563 745 480 745 c 1,36,-1
 480 993 l 1,37,38
 509 993 509 993 527.5 1004 c 128,-1,39
 546 1015 546 1015 553 1036 c 128,-1,40
 560 1057 560 1057 562 1072.5 c 128,-1,41
 564 1088 564 1088 564 1112 c 2,42,-1
 564 1270 l 2,43,44
 564 1346 564 1346 489 1346 c 128,-1,45
 414 1346 414 1346 414 1270 c 2,46,-1
 414 0 l 1,47,-1
 64 0 l 1,48,-1
 64 1229 l 2,49,50
 64 1593 64 1593 489 1593 c 0,0,1
EndSplineSet
EndChar

StartChar: grave
Encoding: 69 96 130
Width: 650
VWidth: 0
Flags: W
HStem: 1553 441
VStem: 51 475<1647 1776>
LayerCount: 2
Fore
SplineSet
526 1553 m 1,0,-1
 51 1647 l 1,1,-1
 51 1994 l 1,2,-1
 526 1776 l 1,3,-1
 526 1553 l 1,0,-1
EndSplineSet
EndChar

StartChar: greater
Encoding: 35 62 131
Width: 652
VWidth: 0
Flags: W
VStem: 67 570<545 558 941 959>
LayerCount: 2
Fore
SplineSet
637 545 m 1,0,-1
 67 200 l 1,1,-1
 67 558 l 1,2,-1
 409 749 l 1,3,-1
 67 941 l 1,4,-1
 67 1300 l 1,5,-1
 637 959 l 1,6,-1
 637 545 l 1,0,-1
EndSplineSet
EndChar

StartChar: greaterequal
Encoding: 270 8805 132
Width: 487
VWidth: 0
Flags: W
HStem: 0 232<-14 502>
VStem: -41 570<637 650 1033 1051>
LayerCount: 2
Fore
SplineSet
529 637 m 1,0,-1
 -41 292 l 1,1,-1
 -41 650 l 1,2,-1
 301 841 l 1,3,-1
 -41 1033 l 1,4,-1
 -41 1392 l 1,5,-1
 529 1051 l 1,6,-1
 529 637 l 1,0,-1
-14 0 m 1,7,-1
 -14 232 l 1,8,-1
 502 232 l 1,9,-1
 502 0 l 1,10,-1
 -14 0 l 1,7,-1
EndSplineSet
EndChar

StartChar: guillemotleft
Encoding: 111 171 133
Width: 1194
VWidth: 0
Flags: W
LayerCount: 2
Fore
SplineSet
618 545 m 1,0,-1
 618 959 l 1,1,-1
 1128 1230 l 1,2,-1
 1128 871 l 1,3,-1
 816 749 l 1,4,-1
 1128 618 l 1,5,-1
 1128 260 l 1,6,-1
 618 545 l 1,0,-1
40 545 m 1,7,-1
 40 959 l 1,8,-1
 550 1230 l 1,9,-1
 550 871 l 1,10,-1
 238 749 l 1,11,-1
 550 618 l 1,12,-1
 550 260 l 1,13,-1
 40 545 l 1,7,-1
EndSplineSet
EndChar

StartChar: guillemotright
Encoding: 126 187 134
Width: 1194
VWidth: 0
Flags: W
LayerCount: 2
Fore
SplineSet
577 545 m 1,0,-1
 67 260 l 1,1,-1
 67 618 l 1,2,-1
 379 749 l 1,3,-1
 67 871 l 1,4,-1
 67 1230 l 1,5,-1
 577 959 l 1,6,-1
 577 545 l 1,0,-1
1154 545 m 1,7,-1
 644 260 l 1,8,-1
 644 618 l 1,9,-1
 956 749 l 1,10,-1
 644 871 l 1,11,-1
 644 1230 l 1,12,-1
 1154 959 l 1,13,-1
 1154 545 l 1,7,-1
EndSplineSet
EndChar

StartChar: guilsinglleft
Encoding: 253 8249 135
Width: 594
VWidth: 0
Flags: W
VStem: 18 510<545 618 871 959>
LayerCount: 2
Fore
SplineSet
18 545 m 1,0,-1
 18 959 l 1,1,-1
 528 1230 l 1,2,-1
 528 871 l 1,3,-1
 216 749 l 1,4,-1
 528 618 l 1,5,-1
 528 260 l 1,6,-1
 18 545 l 1,0,-1
EndSplineSet
EndChar

StartChar: guilsinglright
Encoding: 254 8250 136
Width: 595
VWidth: 0
Flags: W
VStem: 67 510<545 618 871 959>
LayerCount: 2
Fore
SplineSet
577 545 m 1,0,-1
 67 260 l 1,1,-1
 67 618 l 1,2,-1
 379 749 l 1,3,-1
 67 871 l 1,4,-1
 67 1230 l 1,5,-1
 577 959 l 1,6,-1
 577 545 l 1,0,-1
EndSplineSet
EndChar

StartChar: h
Encoding: 77 104 137
Width: 1030
VWidth: 0
Flags: W
HStem: 0 21G<70 438 606 965> 1243 276<505 728> 1747 20G<70 438>
VStem: 70 368<0 1216.7 1351 1767> 606 359<0 1229.9>
LayerCount: 2
Fore
SplineSet
70 0 m 1,0,-1
 70 1767 l 1,1,-1
 438 1767 l 1,2,-1
 438 1351 l 1,3,4
 496 1519 496 1519 657 1519 c 0,5,6
 799 1519 799 1519 882 1427.5 c 128,-1,7
 965 1336 965 1336 965 1155 c 2,8,-1
 965 0 l 1,9,-1
 606 0 l 1,10,-1
 606 1034 l 2,11,12
 606 1040 606 1040 606.5 1057.5 c 128,-1,13
 607 1075 607 1075 607 1085 c 0,14,15
 607 1243 607 1243 518 1243 c 0,16,17
 492 1243 492 1243 465 1217.5 c 128,-1,18
 438 1192 438 1192 438 1135 c 2,19,-1
 438 0 l 1,20,-1
 70 0 l 1,0,-1
EndSplineSet
EndChar

StartChar: hungarumlaut
Encoding: 237 733 138
Width: 1300
VWidth: 0
Flags: W
HStem: 1236 537
LayerCount: 2
Fore
SplineSet
423 1236 m 5,0,-1
 257 1294 l 5,1,-1
 441 1773 l 5,2,-1
 671 1665 l 5,3,-1
 423 1236 l 5,0,-1
725 1236 m 5,4,-1
 559 1294 l 5,5,-1
 780 1773 l 5,6,-1
 1014 1665 l 5,7,-1
 725 1236 l 5,4,-1
EndSplineSet
EndChar

StartChar: hyphen
Encoding: 18 45 139
Width: 650
VWidth: 0
Flags: W
HStem: 509 232<67 583>
VStem: 67 516<509 741>
LayerCount: 2
Fore
SplineSet
67 509 m 1,0,-1
 67 741 l 1,1,-1
 583 741 l 1,2,-1
 583 509 l 1,3,-1
 67 509 l 1,0,-1
EndSplineSet
EndChar

StartChar: i
Encoding: 78 105 140
Width: 487
VWidth: 0
Flags: W
HStem: 0 21G<65 423> 1480 20G<65 423> 1567 202<65 423>
VStem: 65 358<0 1500 1567 1769>
LayerCount: 2
Fore
SplineSet
65 0 m 1,0,-1
 65 1500 l 1,1,-1
 423 1500 l 1,2,-1
 423 0 l 1,3,-1
 65 0 l 1,0,-1
65 1567 m 1,4,-1
 65 1769 l 1,5,-1
 423 1769 l 1,6,-1
 423 1567 l 1,7,-1
 65 1567 l 1,4,-1
EndSplineSet
EndChar

StartChar: iacute
Encoding: 174 237 141
Width: 514
VWidth: 0
Flags: W
HStem: 0 21G<78 436> 1480 20G<78 436>
VStem: 78 358<0 1500>
LayerCount: 2
Fore
SplineSet
78 0 m 1,0,-1
 78 1500 l 1,1,-1
 436 1500 l 1,2,-1
 436 0 l 1,3,-1
 78 0 l 1,0,-1
-7 1553 m 1,4,-1
 -7 1776 l 1,5,-1
 468 1994 l 1,6,-1
 468 1647 l 1,7,-1
 -7 1553 l 1,4,-1
EndSplineSet
EndChar

StartChar: icircumflex
Encoding: 175 238 142
Width: 514
VWidth: 0
Flags: W
HStem: 0 21G<78 436> 1480 20G<78 436> 1591 403<53 171 343 461> 1876 118<53 461>
VStem: 78 358<0 1500>
LayerCount: 2
Fore
SplineSet
78 0 m 1,0,-1
 78 1500 l 1,1,-1
 436 1500 l 1,2,-1
 436 0 l 1,3,-1
 78 0 l 1,0,-1
461 1994 m 1,4,-1
 702 1591 l 1,5,-1
 343 1591 l 1,6,-1
 257 1876 l 1,7,-1
 171 1591 l 1,8,-1
 -188 1591 l 1,9,-1
 53 1994 l 1,10,-1
 461 1994 l 1,4,-1
EndSplineSet
EndChar

StartChar: idieresis
Encoding: 176 239 143
Width: 514
VWidth: 0
Flags: W
HStem: 0 21G<78 436> 1480 20G<78 436> 1591 298<-164 194 320 678>
VStem: -164 358<1591 1889> 78 358<0 1500> 320 358<1591 1889>
LayerCount: 2
Fore
SplineSet
78 0 m 1,0,-1
 78 1500 l 1,1,-1
 436 1500 l 1,2,-1
 436 0 l 1,3,-1
 78 0 l 1,0,-1
-164 1591 m 1,4,-1
 -164 1889 l 1,5,-1
 194 1889 l 1,6,-1
 194 1591 l 1,7,-1
 -164 1591 l 1,4,-1
320 1591 m 1,8,-1
 320 1889 l 1,9,-1
 678 1889 l 1,10,-1
 678 1591 l 1,11,-1
 320 1591 l 1,8,-1
EndSplineSet
EndChar

StartChar: igrave
Encoding: 173 236 144
Width: 514
VWidth: 0
Flags: W
HStem: 0 21G<78 436> 1480 20G<78 436>
VStem: 78 358<0 1500>
LayerCount: 2
Fore
SplineSet
78 0 m 1,0,-1
 78 1500 l 1,1,-1
 436 1500 l 1,2,-1
 436 0 l 1,3,-1
 78 0 l 1,0,-1
478 1553 m 1,4,-1
 3 1647 l 1,5,-1
 3 1994 l 1,6,-1
 478 1776 l 1,7,-1
 478 1553 l 1,4,-1
EndSplineSet
EndChar

StartChar: infinity
Encoding: 265 8734 145
Width: 1189
VWidth: 0
Flags: W
HStem: 452 217<296.021 476.387 680.721 891.29> 810 218<295.728 469.913 689.008 892.091>
VStem: 56 236<675.316 803.303> 896 234<676.374 803.65>
LayerCount: 2
Fore
SplineSet
587 885 m 1,0,1
 713 1041 713 1041 860 1041 c 0,2,3
 891 1041 891 1041 922.5 1035.5 c 128,-1,4
 954 1030 954 1030 993 1010.5 c 128,-1,5
 1032 991 1032 991 1061 960.5 c 128,-1,6
 1090 930 1090 930 1110 874 c 128,-1,7
 1130 818 1130 818 1130 744 c 0,8,9
 1130 668 1130 668 1110 610.5 c 128,-1,10
 1090 553 1090 553 1061 521.5 c 128,-1,11
 1032 490 1032 490 993 470.5 c 128,-1,12
 954 451 954 451 922.5 445 c 128,-1,13
 891 439 891 439 860 439 c 0,14,15
 773 439 773 439 704 481.5 c 128,-1,16
 635 524 635 524 587 585 c 1,17,18
 539 531 539 531 467 491.5 c 128,-1,19
 395 452 395 452 318 452 c 0,20,21
 287 452 287 452 256.5 457.5 c 128,-1,22
 226 463 226 463 188 481.5 c 128,-1,23
 150 500 150 500 122 530 c 128,-1,24
 94 560 94 560 75 615.5 c 128,-1,25
 56 671 56 671 56 744 c 0,26,27
 56 815 56 815 75.5 868.5 c 128,-1,28
 95 922 95 922 123 951.5 c 128,-1,29
 151 981 151 981 188.5 999 c 128,-1,30
 226 1017 226 1017 256.5 1022.5 c 128,-1,31
 287 1028 287 1028 318 1028 c 0,32,33
 460 1028 460 1028 587 885 c 1,0,1
801 669 m 0,34,35
 896 669 896 669 896 740 c 128,-1,36
 896 811 896 811 801 811 c 0,37,38
 725 811 725 811 649 740 c 1,39,40
 720 669 720 669 801 669 c 0,34,35
525 740 m 1,41,42
 453 810 453 810 381 810 c 0,43,44
 292 810 292 810 292 740 c 0,45,46
 292 669 292 669 381 669 c 0,47,48
 451 669 451 669 525 740 c 1,41,42
EndSplineSet
EndChar

StartChar: integral
Encoding: 266 8747 146
Width: 627
VWidth: 0
Flags: W
HStem: -47 245<48.6451 287> 1362 245<344 582.355>
VStem: 138 348<203.158 1361.52>
LayerCount: 2
Fore
SplineSet
486 195 m 2,0,1
 486 145 486 145 477 106.5 c 128,-1,2
 468 68 468 68 444.5 31 c 128,-1,3
 421 -6 421 -6 372 -26.5 c 128,-1,4
 323 -47 323 -47 251 -47 c 0,5,6
 124 -47 124 -47 47 -18 c 1,7,-1
 47 203 l 1,8,9
 75 198 75 198 90 198 c 0,10,11
 108 198 108 198 118 203 c 128,-1,12
 128 208 128 208 132.5 221.5 c 128,-1,13
 137 235 137 235 137.5 245 c 128,-1,14
 138 255 138 255 138 279 c 2,15,16
 138 1365 l 2,17,18
 138 1418 138 1418 148.5 1457.5 c 128,-1,19
 159 1497 159 1497 183.5 1533 c 128,-1,20
 208 1569 208 1569 258 1588 c 128,-1,21
 308 1607 308 1607 380 1607 c 0,22,23
 507 1607 507 1607 584 1578 c 1,24,-1
 584 1357 l 1,25,26
 556 1362 556 1362 541 1362 c 0,27,28
 507 1362 507 1362 496.5 1342.5 c 128,-1,29
 486 1323 486 1323 486 1281 c 2,30,-1
 486 195 l 2,0,1
EndSplineSet
EndChar

StartChar: j
Encoding: 79 106 147
Width: 565
VWidth: 0
Flags: W
HStem: -176 261<53.8378 278.5> 1480 20G<129 487> 1567 202<129 487>
VStem: 129 358<103.051 1500 1567 1769>
LayerCount: 2
Fore
SplineSet
129 1500 m 1,0,-1
 487 1500 l 1,1,-1
 487 166 l 2,2,3
 487 -3 487 -3 419.5 -89.5 c 128,-1,4
 352 -176 352 -176 205 -176 c 0,5,6
 90 -176 90 -176 53 -150 c 1,7,8
 53 90 l 1,9,10
 69 85 69 85 86 85 c 0,11,12
 111 85 111 85 120 102.5 c 128,-1,13
 129 120 129 120 129 156 c 2,14,-1
 129 1500 l 1,0,-1
129 1567 m 1,15,-1
 129 1769 l 1,16,-1
 487 1769 l 1,17,-1
 487 1567 l 1,18,-1
 129 1567 l 1,15,-1
EndSplineSet
EndChar

StartChar: k
Encoding: 80 107 148
Width: 1075
VWidth: 0
Flags: W
HStem: 0 21G<76 430 646.692 1034> 1480 20G<595.346 973> 1749 20G<76 430>
VStem: 76 354<0 707 983 1769> 653 381<0 381>
DStem2: 430 983 748 848 0.326214 0.945296<0 544.827>
LayerCount: 2
Fore
SplineSet
76 0 m 1,0,-1
 76 1769 l 1,1,-1
 430 1769 l 1,2,-1
 430 983 l 1,3,-1
 602 1500 l 1,4,-1
 973 1500 l 1,5,-1
 748 848 l 1,6,-1
 1034 0 l 1,7,-1
 653 0 l 1,8,-1
 430 707 l 1,9,-1
 430 0 l 1,10,-1
 76 0 l 1,0,-1
EndSplineSet
EndChar

StartChar: l
Encoding: 81 108 149
Width: 510
VWidth: 0
Flags: W
HStem: 0 21G<72 436> 1747 20G<72 436>
VStem: 72 364<0 1767>
LayerCount: 2
Fore
SplineSet
436 0 m 1,0,-1
 72 0 l 1,1,-1
 72 1767 l 1,2,-1
 436 1767 l 1,3,-1
 436 0 l 1,0,-1
EndSplineSet
EndChar

StartChar: less
Encoding: 33 60 150
Width: 651
VWidth: 0
Flags: W
VStem: 15 570<545 558 941 959>
DStem2: 243 749 15 545 0.8555 -0.517803<0 391.481>
LayerCount: 2
Fore
SplineSet
15 545 m 1,0,-1
 15 959 l 1,1,-1
 585 1300 l 1,2,-1
 585 941 l 1,3,-1
 243 749 l 1,4,-1
 585 558 l 1,5,-1
 585 200 l 1,6,-1
 15 545 l 1,0,-1
EndSplineSet
EndChar

StartChar: lessequal
Encoding: 269 8804 151
Width: 487
VWidth: 0
Flags: W
HStem: 0 232<-14 502>
VStem: -41 570<637 650 1033 1051>
DStem2: 187 841 -41 637 0.8555 -0.517803<0 391.481>
LayerCount: 2
Fore
SplineSet
-41 637 m 1,0,-1
 -41 1051 l 1,1,-1
 529 1392 l 1,2,-1
 529 1033 l 1,3,-1
 187 841 l 1,4,-1
 529 650 l 1,5,-1
 529 292 l 1,6,-1
 -41 637 l 1,0,-1
-14 0 m 1,7,-1
 -14 232 l 1,8,-1
 502 232 l 1,9,-1
 502 0 l 1,10,-1
 -14 0 l 1,7,-1
EndSplineSet
EndChar

StartChar: logicalnot
Encoding: 112 172 152
Width: 858
VWidth: 0
Flags: W
HStem: 801 178<63 481>
VStem: 481 311<439 801>
LayerCount: 2
Fore
SplineSet
63 979 m 1,0,-1
 792 979 l 1,1,-1
 792 439 l 1,2,-1
 481 439 l 1,3,-1
 481 801 l 1,4,-1
 63 801 l 1,5,-1
 63 979 l 1,0,-1
EndSplineSet
EndChar

StartChar: lozenge
Encoding: 271 9674 153
Width: 1051
VWidth: 0
Flags: W
HStem: 0 21G<274.867 776.021>
DStem2: 372 713 97 713 0.248604 -0.968605<0 550.548> 97 713 372 713 0.245374 0.969428<67.4779 618.033> 771 1436 538 1247 0.240324 -0.970693<127.466 678.019> 538 179 771 0 0.243496 0.969902<0 550.556>
LayerCount: 2
Fore
SplineSet
372 713 m 1,0,-1
 506 179 l 1,1,-1
 538 179 l 1,2,-1
 672 713 l 1,3,-1
 538 1247 l 1,4,-1
 506 1247 l 1,5,-1
 372 713 l 1,0,-1
97 713 m 1,6,-1
 280 1436 l 1,7,-1
 771 1436 l 1,8,-1
 950 713 l 1,9,-1
 771 0 l 1,10,-1
 280 0 l 1,11,-1
 97 713 l 1,6,-1
EndSplineSet
EndChar

StartChar: lslash
Encoding: 193 322 154
Width: 510
VWidth: 0
Flags: W
HStem: 0 21G<72 436> 1747 20G<72 436>
VStem: 72 364<0 1767>
LayerCount: 2
Fore
SplineSet
436 0 m 1,0,-1
 72 0 l 1,1,-1
 72 1767 l 1,2,-1
 436 1767 l 1,3,-1
 436 0 l 1,0,-1
-3 509 m 1,4,-1
 -3 741 l 1,5,-1
 513 973 l 1,6,-1
 513 741 l 1,7,-1
 -3 509 l 1,4,-1
EndSplineSet
EndChar

StartChar: m
Encoding: 82 109 155
Width: 1546
VWidth: 0
Flags: W
HStem: 0 21G<67 417 587 945 1115 1476.07> 1247 272<511.285 692 1003.32 1200.5> 1481 20G<67 417>
VStem: 67 350<0 1219.7 1326 1501> 587 358<0 1226.13> 1115 361<0 1239.51>
LayerCount: 2
Fore
SplineSet
67 1501 m 1,0,-1
 417 1501 l 1,1,-1
 417 1326 l 1,2,3
 430 1376 430 1376 452 1412.5 c 128,-1,4
 474 1449 474 1449 498.5 1469 c 128,-1,5
 523 1489 523 1489 554.5 1501 c 128,-1,6
 586 1513 586 1513 612 1516 c 128,-1,7
 638 1519 638 1519 669 1519 c 0,8,9
 715 1519 715 1519 759 1506 c 128,-1,10
 803 1493 803 1493 847 1456.5 c 128,-1,11
 891 1420 891 1420 912 1365 c 1,12,13
 959 1450 959 1450 1018.5 1484.5 c 128,-1,14
 1078 1519 1078 1519 1167 1519 c 0,15,16
 1234 1519 1234 1519 1286.5 1502 c 128,-1,17
 1339 1485 1339 1485 1372.5 1452.5 c 128,-1,18
 1406 1420 1406 1420 1428.5 1381.5 c 128,-1,19
 1451 1343 1451 1343 1461.5 1292 c 128,-1,20
 1472 1241 1472 1241 1476 1196 c 128,-1,21
 1480 1151 1480 1151 1480 1096 c 2,22,-1
 1476 0 l 1,23,-1
 1115 0 l 1,24,-1
 1115 1102 l 2,25,26
 1115 1247 1115 1247 1042 1247 c 0,27,28
 1014 1247 1014 1247 993.5 1229.5 c 128,-1,29
 973 1212 973 1212 963 1184 c 128,-1,30
 953 1156 953 1156 949 1129.5 c 128,-1,31
 945 1103 945 1103 945 1077 c 2,32,-1
 945 0 l 1,33,-1
 587 0 l 1,34,-1
 587 1059 l 2,35,36
 587 1062 587 1062 587 1077.5 c 128,-1,37
 587 1093 587 1093 587 1101.5 c 128,-1,38
 587 1110 587 1110 586.5 1127.5 c 128,-1,39
 586 1145 586 1145 584 1155.5 c 128,-1,40
 582 1166 582 1166 579 1181.5 c 128,-1,41
 576 1197 576 1197 570.5 1206.5 c 128,-1,42
 565 1216 565 1216 558 1225 c 128,-1,43
 551 1234 551 1234 540.5 1238.5 c 128,-1,44
 530 1243 530 1243 517 1243 c 0,45,46
 488 1243 488 1243 467.5 1225 c 128,-1,47
 447 1207 447 1207 436.5 1177 c 128,-1,48
 426 1147 426 1147 421.5 1118 c 128,-1,49
 417 1089 417 1089 417 1059 c 2,50,-1
 417 0 l 1,51,-1
 67 0 l 1,52,-1
 67 1501 l 1,0,-1
EndSplineSet
EndChar

StartChar: minus
Encoding: 263 8722 157
Width: 650
VWidth: 0
Flags: W
HStem: 509 232<67 583>
VStem: 67 516<509 741>
LayerCount: 2
Fore
SplineSet
67 509 m 1,0,-1
 67 741 l 1,1,-1
 583 741 l 1,2,-1
 583 509 l 1,3,-1
 67 509 l 1,0,-1
EndSplineSet
EndChar

StartChar: uni00B5
Encoding: 120 181 158
Width: 1034
VWidth: 0
Flags: W
HStem: -186 21G<72 432> 0 21G<596 954> 1480 20G<72 432 597.962 954>
VStem: 72 360<-186 4.11951 303.722 1500> 596 358<0 160 273.508 1500>
LayerCount: 2
Fore
SplineSet
598 1500 m 1,0,-1
 954 1500 l 1,1,-1
 954 0 l 1,2,-1
 596 0 l 1,3,-1
 596 160 l 1,4,5
 564 78 564 78 523.5 38.5 c 128,-1,6
 483 -1 483 -1 432 -11 c 1,7,-1
 432 -186 l 1,8,-1
 72 -186 l 1,9,-1
 72 1500 l 1,10,-1
 432 1500 l 1,11,-1
 432 455 l 2,12,13
 432 341 432 341 445.5 302.5 c 128,-1,14
 459 264 459 264 512 264 c 0,15,16
 532 264 532 264 547.5 271.5 c 128,-1,17
 563 279 563 279 571.5 295 c 128,-1,18
 580 311 580 311 585.5 326 c 128,-1,19
 591 341 591 341 593 365.5 c 128,-1,20
 595 390 595 390 595.5 404 c 128,-1,21
 596 418 596 418 596 443 c 0,22,23
 596 451 596 451 596 455 c 2,24,-1
 598 1500 l 1,0,-1
EndSplineSet
EndChar

StartChar: multiply
Encoding: 153 215 159
Width: 700
VWidth: 0
Flags: W
HStem: 314 622
VStem: 39 622
DStem2: 203 936 39 772 0.707107 -0.707107<0 207.889 439.82 647.71> 39 478 203 314 0.707107 0.707107<0 207.889 439.82 647.71>
LayerCount: 2
Fore
SplineSet
203 314 m 1,0,-1
 39 478 l 1,1,-1
 186 625 l 1,2,-1
 39 772 l 1,3,-1
 203 936 l 1,4,-1
 350 789 l 1,5,-1
 497 936 l 1,6,-1
 661 772 l 1,7,-1
 514 625 l 1,8,-1
 661 478 l 1,9,-1
 497 314 l 1,10,-1
 350 461 l 1,11,-1
 203 314 l 1,0,-1
EndSplineSet
EndChar

StartChar: n
Encoding: 83 110 160
Width: 1012
VWidth: 0
Flags: W
HStem: 0 21G<67 425 595 948> 1239 279<508.106 721.5> 1481 20G<67 425>
VStem: 67 358<0 1223.59 1329 1501> 595 353<0 1201.87>
LayerCount: 2
Fore
SplineSet
67 0 m 1,0,-1
 67 1501 l 1,1,-1
 425 1501 l 1,2,-1
 425 1329 l 1,3,4
 447 1426 447 1426 506.5 1472 c 128,-1,5
 566 1518 566 1518 651 1518 c 0,6,7
 792 1518 792 1518 870 1429.5 c 128,-1,8
 948 1341 948 1341 948 1157 c 2,9,-1
 948 0 l 1,10,-1
 595 0 l 1,11,-1
 595 1120 l 2,12,13
 595 1167 595 1167 576 1203 c 128,-1,14
 557 1239 557 1239 515 1239 c 0,15,16
 489 1239 489 1239 471 1224.5 c 128,-1,17
 453 1210 453 1210 444.5 1191.5 c 128,-1,18
 436 1173 436 1173 431 1143 c 128,-1,19
 426 1113 426 1113 425.5 1097 c 128,-1,20
 425 1081 425 1081 425 1055 c 2,21,-1
 425 0 l 1,22,-1
 67 0 l 1,0,-1
EndSplineSet
EndChar

StartChar: nine
Encoding: 30 57 161
Width: 1071
VWidth: 0
Flags: W
HStem: -18 338<458.953 594.601> 598 310<371 578.438> 1411 314<477.073 609.073>
VStem: 69 380<345.755 496 918.52 1389.85> 618 382<347.851 676 916.183 1364.07>
LayerCount: 2
Fore
SplineSet
528 -18 m 0,0,1
 401 -18 401 -18 298 22 c 128,-1,2
 195 62 195 62 130.5 146 c 128,-1,3
 66 230 66 230 66 346 c 2,4,-1
 66 496 l 1,5,-1
 438 496 l 1,6,-1
 437 417 l 2,7,8
 437 415 437 415 437 414 c 0,9,10
 437 369 437 369 466 345 c 0,11,12
 496 320 496 320 526 320 c 0,13,14
 559 320 559 320 588.5 347 c 128,-1,15
 618 374 618 374 618 431 c 2,16,-1
 618 676 l 1,17,18
 583 638 583 638 530 618 c 128,-1,19
 477 598 477 598 423 598 c 0,20,21
 319 598 319 598 249.5 633.5 c 128,-1,22
 180 669 180 669 140.5 743.5 c 128,-1,23
 101 818 101 818 85 918.5 c 128,-1,24
 69 1019 69 1019 69 1164 c 0,25,26
 69 1262 69 1262 81.5 1341 c 128,-1,27
 94 1420 94 1420 126 1493.5 c 128,-1,28
 158 1567 158 1567 210 1616.5 c 128,-1,29
 262 1666 262 1666 346 1695.5 c 128,-1,30
 430 1725 430 1725 541 1725 c 0,31,32
 673 1725 673 1725 764 1686.5 c 128,-1,33
 855 1648 855 1648 907 1571 c 128,-1,34
 959 1494 959 1494 981.5 1392.5 c 128,-1,35
 1004 1291 1004 1291 1004 1152 c 2,36,-1
 1001 727 l 2,37,38
 1000 648 1000 648 1000 607 c 128,-1,39
 1000 566 1000 566 996 491.5 c 128,-1,40
 992 417 992 417 984 375.5 c 128,-1,41
 976 334 976 334 959.5 272 c 128,-1,42
 943 210 943 210 920 175 c 128,-1,43
 897 140 897 140 861 98 c 128,-1,44
 825 56 825 56 778.5 34 c 128,-1,45
 732 12 732 12 668.5 -3 c 128,-1,46
 605 -18 605 -18 528 -18 c 0,0,1
449 1155 m 0,47,48
 449 1102 449 1102 449.5 1077.5 c 128,-1,49
 450 1053 450 1053 452.5 1017.5 c 128,-1,50
 455 982 455 982 460.5 967.5 c 128,-1,51
 466 953 466 953 476 936 c 128,-1,52
 486 919 486 919 501.5 913.5 c 128,-1,53
 517 908 517 908 539 908 c 0,54,55
 629 908 629 908 629 1079 c 2,56,-1
 629 1240 l 2,57,58
 629 1320 629 1320 610.5 1365.5 c 128,-1,59
 592 1411 592 1411 541 1411 c 0,60,61
 501 1411 501 1411 482.5 1390.5 c 128,-1,62
 464 1370 464 1370 456.5 1318 c 128,-1,63
 449 1266 449 1266 449 1155 c 0,47,48
EndSplineSet
EndChar

StartChar: notequal
Encoding: 268 8800 162
Width: 648
VWidth: 0
Flags: W
HStem: 509 232<67 581> 892 224<67 581>
VStem: 67 514<509 741 892 1116>
LayerCount: 2
Fore
SplineSet
67 509 m 1,0,-1
 67 741 l 1,1,-1
 581 741 l 1,2,-1
 581 509 l 1,3,-1
 67 509 l 1,0,-1
67 892 m 1,4,-1
 67 1116 l 1,5,-1
 581 1116 l 1,6,-1
 581 892 l 1,7,-1
 67 892 l 1,4,-1
EndSplineSet
EndChar

StartChar: ntilde
Encoding: 177 241 163
Width: 1012
VWidth: 0
Flags: W
HStem: 0 21G<67 425 595 948> 1239 279<508.106 721.5> 1481 20G<67 425> 1602 278<508.779 657.281> 1712 276<327.094 467>
VStem: 67 358<0 1223.59 1329 1501> 595 353<0 1201.87>
LayerCount: 2
Fore
SplineSet
67 0 m 1,0,-1
 67 1501 l 1,1,-1
 425 1501 l 1,2,-1
 425 1329 l 1,3,4
 447 1426 447 1426 506.5 1472 c 128,-1,5
 566 1518 566 1518 651 1518 c 0,6,7
 792 1518 792 1518 870 1429.5 c 128,-1,8
 948 1341 948 1341 948 1157 c 2,9,-1
 948 0 l 1,10,-1
 595 0 l 1,11,-1
 595 1120 l 2,12,13
 595 1167 595 1167 576 1203 c 128,-1,14
 557 1239 557 1239 515 1239 c 0,15,16
 489 1239 489 1239 471 1224.5 c 128,-1,17
 453 1210 453 1210 444.5 1191.5 c 128,-1,18
 436 1173 436 1173 431 1143 c 128,-1,19
 426 1113 426 1113 425.5 1097 c 128,-1,20
 425 1081 425 1081 425 1055 c 2,21,-1
 425 0 l 1,22,-1
 67 0 l 1,0,-1
369 1712 m 0,23,24
 337 1712 337 1712 311 1623 c 1,25,-1
 89 1729 l 1,26,27
 142 1859 142 1859 209.5 1923.5 c 128,-1,28
 277 1988 277 1988 369 1988 c 0,29,30
 407 1988 407 1988 451 1961 c 128,-1,31
 495 1934 495 1934 537 1907 c 128,-1,32
 579 1880 579 1880 612 1880 c 128,-1,33
 645 1880 645 1880 671 1959 c 1,34,-1
 903 1903 l 1,35,36
 848 1753 848 1753 777 1677.5 c 128,-1,37
 706 1602 706 1602 611 1602 c 0,38,39
 576 1602 576 1602 540 1619 c 128,-1,40
 504 1636 504 1636 479.5 1657 c 128,-1,41
 455 1678 455 1678 424.5 1695 c 128,-1,42
 394 1712 394 1712 369 1712 c 0,23,24
EndSplineSet
EndChar

StartChar: numbersign
Encoding: 8 35 164
Width: 1130
VWidth: 0
Flags: W
HStem: 0 21G<43 329.89 493 779.89> 509 232<47 142 471 592 921 1029> 886 232<105 215 544 665 994 1087> 1573 20G<349.084 637 799.084 1087>
VStem: 43 283<0 283> 353 284<1309 1593> 493 283<0 283> 803 284<1309 1593>
DStem2: 43 0 326 0 0.191612 0.981471<54.2261 518.538 809.28 902.54 1193.28 1622.88> 493 0 776 0 0.191612 0.981471<54.2261 518.538 809.28 902.54 1193.28 1622.88>
LayerCount: 2
Fore
SplineSet
105 886 m 1,0,-1
 105 1118 l 1,1,-1
 260 1118 l 1,2,-1
 353 1593 l 1,3,-1
 637 1593 l 1,4,-1
 544 1118 l 1,5,-1
 710 1118 l 1,6,-1
 803 1593 l 1,7,-1
 1087 1593 l 1,8,-1
 994 1118 l 1,9,-1
 1087 1118 l 1,10,-1
 1087 886 l 1,11,-1
 949 886 l 1,12,-1
 921 741 l 1,13,-1
 1029 741 l 1,14,-1
 1029 509 l 1,15,-1
 875 509 l 1,16,-1
 776 0 l 1,17,-1
 493 0 l 1,18,-1
 592 509 l 1,19,-1
 425 509 l 1,20,-1
 326 0 l 1,21,-1
 43 0 l 1,22,-1
 142 509 l 1,23,-1
 47 509 l 1,24,-1
 47 741 l 1,25,-1
 187 741 l 1,26,-1
 215 886 l 1,27,-1
 105 886 l 1,0,-1
499 886 m 1,28,-1
 471 741 l 1,29,-1
 637 741 l 1,30,-1
 665 886 l 1,31,-1
 499 886 l 1,28,-1
EndSplineSet
EndChar

StartChar: o
Encoding: 84 111 165
Width: 1036
VWidth: 0
Flags: W
HStem: -18 278<456.486 582.968> 1239 279<451.025 589.132>
VStem: 72 364<288.367 1227.57> 604 365<288.367 1227.57>
LayerCount: 2
Fore
SplineSet
520 -18 m 0,0,1
 72 -18 72 -18 72 449 c 2,2,-1
 72 1051 l 2,3,4
 72 1266 72 1266 192 1392 c 128,-1,5
 312 1518 312 1518 520 1518 c 0,6,7
 729 1518 729 1518 849 1392 c 128,-1,8
 969 1266 969 1266 969 1051 c 2,9,-1
 969 449 l 2,10,11
 969 214 969 214 854.5 98 c 128,-1,12
 740 -18 740 -18 520 -18 c 0,0,1
520 1239 m 128,-1,14
 436 1239 436 1239 436 1108 c 2,15,-1
 436 375 l 2,16,17
 436 315 436 315 459.5 287.5 c 128,-1,18
 483 260 483 260 520 260 c 128,-1,19
 557 260 557 260 580.5 287.5 c 128,-1,20
 604 315 604 315 604 375 c 2,21,-1
 604 1108 l 2,22,13
 604 1239 604 1239 520 1239 c 128,-1,14
EndSplineSet
EndChar

StartChar: oacute
Encoding: 179 243 166
Width: 1036
VWidth: 0
Flags: W
HStem: -18 278<456.486 582.968> 1239 279<451.025 589.132>
VStem: 72 364<288.367 1227.57> 604 365<288.367 1227.57>
LayerCount: 2
Fore
SplineSet
520 -18 m 0,0,1
 72 -18 72 -18 72 449 c 2,2,-1
 72 1051 l 2,3,4
 72 1266 72 1266 192 1392 c 128,-1,5
 312 1518 312 1518 520 1518 c 0,6,7
 729 1518 729 1518 849 1392 c 128,-1,8
 969 1266 969 1266 969 1051 c 2,9,-1
 969 449 l 2,10,11
 969 214 969 214 854.5 98 c 128,-1,12
 740 -18 740 -18 520 -18 c 0,0,1
520 1239 m 128,-1,14
 436 1239 436 1239 436 1108 c 2,15,-1
 436 375 l 2,16,17
 436 315 436 315 459.5 287.5 c 128,-1,18
 483 260 483 260 520 260 c 128,-1,19
 557 260 557 260 580.5 287.5 c 128,-1,20
 604 315 604 315 604 375 c 2,21,-1
 604 1108 l 2,22,13
 604 1239 604 1239 520 1239 c 128,-1,14
254 1553 m 1,23,-1
 254 1776 l 1,24,-1
 729 1994 l 1,25,-1
 729 1647 l 1,26,-1
 254 1553 l 1,23,-1
EndSplineSet
EndChar

StartChar: ocircumflex
Encoding: 180 244 167
Width: 1036
VWidth: 0
Flags: W
HStem: -18 278<456.486 582.968> 1239 279<451.025 589.132> 1591 403<314 432 604 722> 1876 118<314 722>
VStem: 72 364<288.367 1227.57 1591 1614.87> 604 365<288.367 1227.57 1591 1614.39>
LayerCount: 2
Fore
SplineSet
520 -18 m 0,0,1
 72 -18 72 -18 72 449 c 2,2,-1
 72 1051 l 2,3,4
 72 1266 72 1266 192 1392 c 128,-1,5
 312 1518 312 1518 520 1518 c 0,6,7
 729 1518 729 1518 849 1392 c 128,-1,8
 969 1266 969 1266 969 1051 c 2,9,-1
 969 449 l 2,10,11
 969 214 969 214 854.5 98 c 128,-1,12
 740 -18 740 -18 520 -18 c 0,0,1
520 1239 m 128,-1,14
 436 1239 436 1239 436 1108 c 2,15,-1
 436 375 l 2,16,17
 436 315 436 315 459.5 287.5 c 128,-1,18
 483 260 483 260 520 260 c 128,-1,19
 557 260 557 260 580.5 287.5 c 128,-1,20
 604 315 604 315 604 375 c 2,21,-1
 604 1108 l 2,22,13
 604 1239 604 1239 520 1239 c 128,-1,14
722 1994 m 1,23,-1
 963 1591 l 1,24,-1
 604 1591 l 1,25,-1
 518 1876 l 1,26,-1
 432 1591 l 1,27,-1
 73 1591 l 1,28,-1
 314 1994 l 1,29,-1
 722 1994 l 1,23,-1
EndSplineSet
EndChar

StartChar: odieresis
Encoding: 182 246 168
Width: 1036
VWidth: 0
Flags: W
HStem: -18 278<456.486 582.968> 1239 279<451.025 589.132> 1591 298<97 455 581 939>
VStem: 72 364<288.367 1227.57> 97 358<1591 1889> 581 358<1591 1889> 604 365<288.367 1227.57>
LayerCount: 2
Fore
SplineSet
520 -18 m 0,0,1
 72 -18 72 -18 72 449 c 2,2,-1
 72 1051 l 2,3,4
 72 1266 72 1266 192 1392 c 128,-1,5
 312 1518 312 1518 520 1518 c 0,6,7
 729 1518 729 1518 849 1392 c 128,-1,8
 969 1266 969 1266 969 1051 c 2,9,-1
 969 449 l 2,10,11
 969 214 969 214 854.5 98 c 128,-1,12
 740 -18 740 -18 520 -18 c 0,0,1
520 1239 m 128,-1,14
 436 1239 436 1239 436 1108 c 2,15,-1
 436 375 l 2,16,17
 436 315 436 315 459.5 287.5 c 128,-1,18
 483 260 483 260 520 260 c 128,-1,19
 557 260 557 260 580.5 287.5 c 128,-1,20
 604 315 604 315 604 375 c 2,21,-1
 604 1108 l 2,22,13
 604 1239 604 1239 520 1239 c 128,-1,14
97 1591 m 1,23,-1
 97 1889 l 1,24,-1
 455 1889 l 1,25,-1
 455 1591 l 1,26,-1
 97 1591 l 1,23,-1
581 1591 m 1,27,-1
 581 1889 l 1,28,-1
 939 1889 l 1,29,-1
 939 1591 l 1,30,-1
 581 1591 l 1,27,-1
EndSplineSet
EndChar

StartChar: oe
Encoding: 195 339 169
Width: 1535
VWidth: 0
Flags: W
HStem: -18 278<445.486 573.539 968.702 1090.41> 704 227<951 1119> 1239 279<440.025 578.258 966.727 1100.04>
VStem: 61 364<288.367 1227.57> 593 357<288.367 704 931 1228.64> 1119 356<281.145 579 931 1236.77>
LayerCount: 2
Fore
SplineSet
509 -18 m 0,0,1
 61 -18 61 -18 61 449 c 2,2,-1
 61 1051 l 2,3,4
 61 1266 61 1266 181 1392 c 128,-1,5
 301 1518 301 1518 509 1518 c 0,6,7
 662 1518 662 1518 774 1422 c 1,8,9
 876 1518 876 1518 1043 1518 c 0,10,11
 1475 1518 1475 1518 1475 1092 c 2,12,-1
 1475 983 l 2,13,14
 1475 780 1475 780 1471 704 c 1,15,-1
 951 704 l 1,16,-1
 951 494 l 2,17,18
 951 484 951 484 950.5 461.5 c 128,-1,19
 950 439 950 439 950 427 c 0,20,21
 950 391 950 391 953 365.5 c 128,-1,22
 956 340 956 340 964 313.5 c 128,-1,23
 972 287 972 287 990.5 273.5 c 128,-1,24
 1009 260 1009 260 1037 260 c 0,25,26
 1066 260 1066 260 1084 280.5 c 128,-1,27
 1102 301 1102 301 1109.5 339.5 c 128,-1,28
 1117 378 1117 378 1119 408 c 128,-1,29
 1121 438 1121 438 1121 483 c 0,30,31
 1121 571 1121 571 1119 579 c 1,32,-1
 1475 579 l 1,33,-1
 1475 494 l 2,34,35
 1475 369 1475 369 1456 281 c 128,-1,36
 1437 193 1437 193 1388.5 122.5 c 128,-1,37
 1340 52 1340 52 1250 17 c 128,-1,38
 1160 -18 1160 -18 1025 -18 c 0,39,40
 874 -18 874 -18 779 69 c 1,41,42
 674 -18 674 -18 509 -18 c 0,0,1
509 1239 m 128,-1,44
 425 1239 425 1239 425 1108 c 2,45,-1
 425 375 l 2,46,47
 425 315 425 315 448.5 287.5 c 128,-1,48
 472 260 472 260 509 260 c 128,-1,49
 546 260 546 260 569.5 287.5 c 128,-1,50
 593 315 593 315 593 375 c 2,51,-1
 593 1108 l 2,52,43
 593 1239 593 1239 509 1239 c 128,-1,44
1039 1249 m 0,53,54
 1011 1249 1011 1249 992 1234.5 c 128,-1,55
 973 1220 973 1220 964 1191 c 128,-1,56
 955 1162 955 1162 952 1131.5 c 128,-1,57
 949 1101 949 1101 949 1057 c 0,58,59
 949 1036 949 1036 950 994 c 128,-1,60
 951 952 951 952 951 931 c 1,61,-1
 1119 931 l 1,62,-1
 1119 1087 l 2,63,64
 1119 1249 1119 1249 1039 1249 c 0,53,54
EndSplineSet
EndChar

StartChar: ogonek
Encoding: 235 731 170
Width: 1015
VWidth: 0
Flags: W
HStem: -631 240<646.648 849.47> -20 20G<438 781>
VStem: 306 315<-367.585 -187.888>
LayerCount: 2
Fore
SplineSet
852 -591 m 1,0,1
 756 -631 756 -631 654 -631 c 0,2,3
 507 -631 507 -631 406.5 -550 c 128,-1,4
 306 -469 306 -469 306 -330 c 0,5,6
 306 -149 306 -149 570 0 c 1,7,-1
 781 0 l 1,8,9
 697 -102 697 -102 659 -166 c 128,-1,10
 621 -230 621 -230 621 -279 c 0,11,12
 621 -337 621 -337 652 -364 c 128,-1,13
 683 -391 683 -391 736 -391 c 0,14,15
 786 -391 786 -391 852 -368 c 1,16,-1
 852 -591 l 1,0,1
EndSplineSet
EndChar

StartChar: ograve
Encoding: 178 242 171
Width: 1036
VWidth: 0
Flags: W
HStem: -18 278<456.486 582.968> 1239 279<451.025 589.132>
VStem: 72 364<288.367 1227.57> 604 365<288.367 1227.57>
LayerCount: 2
Fore
SplineSet
520 -18 m 0,0,1
 72 -18 72 -18 72 449 c 2,2,-1
 72 1051 l 2,3,4
 72 1266 72 1266 192 1392 c 128,-1,5
 312 1518 312 1518 520 1518 c 0,6,7
 729 1518 729 1518 849 1392 c 128,-1,8
 969 1266 969 1266 969 1051 c 2,9,-1
 969 449 l 2,10,11
 969 214 969 214 854.5 98 c 128,-1,12
 740 -18 740 -18 520 -18 c 0,0,1
520 1239 m 128,-1,14
 436 1239 436 1239 436 1108 c 2,15,-1
 436 375 l 2,16,17
 436 315 436 315 459.5 287.5 c 128,-1,18
 483 260 483 260 520 260 c 128,-1,19
 557 260 557 260 580.5 287.5 c 128,-1,20
 604 315 604 315 604 375 c 2,21,-1
 604 1108 l 2,22,13
 604 1239 604 1239 520 1239 c 128,-1,14
739 1553 m 1,23,-1
 264 1647 l 1,24,-1
 264 1994 l 1,25,-1
 739 1776 l 1,26,-1
 739 1553 l 1,23,-1
EndSplineSet
EndChar

StartChar: one
Encoding: 22 49 172
Width: 707
VWidth: 0
Flags: W
HStem: 0 21G<256 629> 1106 273<38 192.376> 1572 20G<346 629>
VStem: 256 373<0 1160>
LayerCount: 2
Fore
SplineSet
346 1592 m 1,0,-1
 629 1592 l 1,1,-1
 629 0 l 1,2,-1
 256 0 l 1,3,-1
 256 1160 l 1,4,5
 244 1154 244 1154 223.5 1145 c 128,-1,6
 203 1136 203 1136 145.5 1121 c 128,-1,7
 88 1106 88 1106 38 1106 c 1,8,-1
 38 1107 l 1,9,-1
 38 1108 l 1,10,-1
 38 1109 l 1,11,-1
 38 1110 l 1,12,-1
 38 1111 l 1,13,-1
 38 1112 l 1,14,-1
 38 1113 l 1,15,-1
 38 1114 l 1,16,-1
 38 1115 l 1,17,-1
 38 1116 l 1,18,-1
 38 1117 l 1,19,-1
 38 1118 l 1,20,-1
 38 1119 l 1,21,-1
 38 1120 l 1,22,-1
 38 1121 l 1,23,-1
 38 1122 l 1,24,-1
 38 1123 l 1,25,-1
 38 1124 l 1,26,-1
 38 1125 l 1,27,-1
 38 1126 l 1,28,-1
 38 1127 l 1,29,-1
 38 1128 l 1,30,-1
 38 1129 l 1,31,-1
 38 1130 l 1,32,-1
 38 1131 l 1,33,-1
 38 1132 l 1,34,-1
 38 1133 l 1,35,-1
 38 1134 l 1,36,-1
 38 1135 l 1,37,-1
 38 1136 l 1,38,-1
 38 1137 l 1,39,-1
 38 1138 l 1,40,-1
 38 1139 l 1,41,-1
 38 1140 l 1,42,-1
 38 1141 l 1,43,-1
 38 1142 l 1,44,-1
 38 1143 l 1,45,-1
 38 1144 l 1,46,-1
 38 1145 l 1,47,-1
 38 1146 l 1,48,-1
 38 1147 l 1,49,-1
 38 1148 l 1,50,-1
 38 1149 l 1,51,-1
 38 1150 l 1,52,-1
 38 1151 l 1,53,-1
 38 1152 l 1,54,-1
 38 1153 l 1,55,-1
 38 1154 l 1,56,-1
 38 1155 l 1,57,-1
 38 1157 l 1,58,-1
 38 1158 l 1,59,-1
 38 1159 l 1,60,-1
 38 1160 l 1,61,-1
 38 1161 l 1,62,-1
 38 1162 l 1,63,-1
 38 1163 l 1,64,-1
 38 1164 l 1,65,-1
 38 1165 l 1,66,-1
 38 1166 l 1,67,-1
 38 1168 l 1,68,-1
 38 1169 l 1,69,-1
 38 1170 l 1,70,-1
 38 1171 l 1,71,-1
 38 1172 l 1,72,-1
 38 1173 l 1,73,-1
 38 1175 l 1,74,-1
 38 1176 l 1,75,-1
 38 1177 l 1,76,-1
 38 1178 l 1,77,-1
 38 1179 l 1,78,-1
 38 1181 l 1,79,-1
 38 1182 l 1,80,-1
 38 1183 l 1,81,-1
 38 1184 l 1,82,-1
 38 1186 l 1,83,-1
 38 1187 l 1,84,-1
 38 1188 l 1,85,-1
 38 1189 l 1,86,-1
 38 1191 l 1,87,-1
 38 1192 l 1,88,-1
 38 1193 l 1,89,-1
 38 1194 l 1,90,-1
 38 1196 l 1,91,-1
 38 1197 l 1,92,-1
 38 1198 l 1,93,-1
 38 1200 l 1,94,-1
 38 1201 l 1,95,-1
 38 1202 l 1,96,-1
 38 1204 l 1,97,-1
 38 1205 l 1,98,-1
 38 1206 l 1,99,-1
 38 1208 l 1,100,-1
 38 1209 l 1,101,-1
 38 1210 l 1,102,-1
 38 1212 l 1,103,-1
 38 1213 l 1,104,-1
 38 1215 l 1,105,-1
 38 1216 l 1,106,-1
 38 1217 l 1,107,-1
 38 1219 l 1,108,-1
 38 1220 l 1,109,-1
 38 1222 l 1,110,-1
 38 1223 l 1,111,-1
 38 1224 l 1,112,-1
 38 1226 l 1,113,-1
 38 1227 l 1,114,-1
 38 1229 l 1,115,-1
 38 1230 l 1,116,-1
 38 1232 l 1,117,-1
 38 1233 l 1,118,-1
 38 1235 l 1,119,-1
 38 1236 l 1,120,-1
 38 1237 l 1,121,-1
 38 1239 l 1,122,-1
 38 1240 l 1,123,-1
 38 1242 l 1,124,-1
 38 1243 l 1,125,-1
 38 1245 l 1,126,-1
 38 1246 l 1,127,-1
 38 1248 l 1,128,-1
 38 1249 l 1,129,-1
 38 1251 l 1,130,-1
 38 1253 l 1,131,-1
 38 1254 l 1,132,-1
 38 1256 l 1,133,-1
 38 1257 l 1,134,-1
 38 1259 l 1,135,-1
 38 1260 l 1,136,-1
 38 1262 l 1,137,-1
 38 1263 l 1,138,-1
 38 1265 l 1,139,-1
 38 1267 l 1,140,-1
 38 1268 l 1,141,-1
 38 1270 l 1,142,-1
 38 1271 l 1,143,-1
 38 1273 l 1,144,-1
 38 1275 l 1,145,-1
 38 1276 l 1,146,-1
 38 1278 l 1,147,-1
 38 1279 l 1,148,-1
 38 1281 l 1,149,-1
 38 1283 l 1,150,-1
 38 1284 l 1,151,-1
 38 1286 l 1,152,-1
 38 1288 l 1,153,-1
 38 1289 l 1,154,-1
 38 1291 l 1,155,-1
 38 1292 l 1,156,-1
 38 1294 l 1,157,-1
 38 1296 l 1,158,-1
 38 1297 l 1,159,-1
 38 1299 l 1,160,-1
 38 1301 l 1,161,-1
 38 1303 l 1,162,-1
 38 1304 l 1,163,-1
 38 1306 l 1,164,-1
 38 1308 l 1,165,-1
 38 1309 l 1,166,-1
 38 1311 l 1,167,-1
 38 1313 l 1,168,-1
 38 1314 l 1,169,-1
 38 1316 l 1,170,-1
 38 1318 l 1,171,-1
 38 1320 l 1,172,-1
 38 1321 l 1,173,-1
 38 1323 l 1,174,-1
 38 1325 l 1,175,-1
 38 1327 l 1,176,-1
 38 1328 l 1,177,-1
 38 1330 l 1,178,-1
 38 1332 l 1,179,-1
 38 1334 l 1,180,-1
 38 1335 l 1,181,-1
 38 1337 l 1,182,-1
 38 1339 l 1,183,-1
 38 1341 l 1,184,-1
 38 1343 l 1,185,-1
 38 1344 l 1,186,-1
 38 1346 l 1,187,-1
 38 1348 l 1,188,-1
 38 1350 l 1,189,-1
 38 1352 l 1,190,-1
 38 1354 l 1,191,-1
 38 1355 l 1,192,-1
 38 1357 l 1,193,-1
 38 1359 l 1,194,-1
 38 1361 l 1,195,-1
 38 1363 l 1,196,-1
 38 1365 l 1,197,-1
 38 1366 l 1,198,-1
 38 1368 l 1,199,-1
 38 1370 l 1,200,-1
 38 1379 l 1,201,202
 66 1379 66 1379 115 1394 c 128,-1,203
 164 1409 164 1409 217 1435 c 128,-1,204
 270 1461 270 1461 308 1503 c 128,-1,205
 346 1545 346 1545 346 1592 c 1,0,-1
EndSplineSet
EndChar

StartChar: onehalf
Encoding: 128 189 173
Width: 2592
VWidth: 0
Flags: W
HStem: -1 183<1240 1513> 792 182<1208.1 1302.6> 1587 20G<190 349> 1747 20G<849.454 1139>
VStem: 139 210<656 1364> 190 159<1536.29 1607> 365 283<0 283> 855 284<1483 1767> 994 210<586 790.571> 1308 212<554.241 790.463>
DStem2: 365 0 648 0 0.267728 0.963494<75.7671 1833.68> 1098 344 1302.5 277 0.62113 0.783708<-33.9718 391.314>
LayerCount: 2
Fore
SplineSet
190 1607 m 1,0,-1
 349 1607 l 1,1,-1
 349 656 l 1,2,-1
 139 656 l 1,3,-1
 139 1364 l 1,4,5
 80 1334 80 1334 16 1334 c 1,6,7
 18 1398 18 1398 18 1444 c 0,8,9
 18 1481 18 1481 16 1487 c 1,10,11
 58 1487 58 1487 124 1522.5 c 128,-1,12
 190 1558 190 1558 190 1607 c 1,0,-1
648 0 m 1,13,-1
 365 0 l 1,14,-1
 855 1767 l 1,15,-1
 1139 1767 l 1,16,-1
 648 0 l 1,13,-1
994 -1 m 1,17,-1
 994 46 l 2,18,19
 994 191 994 191 1098 344 c 0,20,21
 1136 400 1136 400 1257 546 c 0,22,23
 1308 606 1308 606 1308 709 c 0,24,25
 1308 792 1308 792 1255 792 c 0,26,27
 1204 792 1204 792 1204 705 c 2,28,-1
 1204 586 l 1,29,-1
 994 586 l 1,30,-1
 992 646 l 1,31,32
 992 818 992 818 1049.5 896 c 128,-1,33
 1107 974 1107 974 1257 974 c 0,34,35
 1379 974 1379 974 1449.5 907 c 128,-1,36
 1520 840 1520 840 1520 712 c 0,37,38
 1520 641 1520 641 1500 578 c 128,-1,39
 1480 515 1480 515 1446 464.5 c 128,-1,40
 1412 414 1412 414 1377 371 c 128,-1,41
 1342 328 1342 328 1302.5 277 c 128,-1,42
 1263 226 1263 226 1240 182 c 1,43,-1
 1513 182 l 1,44,-1
 1513 -1 l 1,45,-1
 994 -1 l 1,17,-1
EndSplineSet
EndChar

StartChar: onequarter
Encoding: 127 188 174
Width: 2641
VWidth: 0
Flags: W
HStem: 0 21G<307 595.557 1107 1314> 151 171<997 1107 1314 1353> 1587 20G<190 349> 1747 20G<791.454 1081>
VStem: 139 210<656 1364> 190 159<1536.29 1607> 307 283<0 283> 797 284<1483 1767> 1107 207<-1 151 322 727>
DStem2: 307 0 590 0 0.267728 0.963494<75.7671 1833.68>
LayerCount: 2
Fore
SplineSet
190 1607 m 1,0,-1
 349 1607 l 1,1,-1
 349 656 l 1,2,-1
 139 656 l 1,3,-1
 139 1364 l 1,4,5
 80 1334 80 1334 16 1334 c 1,6,7
 18 1398 18 1398 18 1444 c 0,8,9
 18 1481 18 1481 16 1487 c 1,10,11
 58 1487 58 1487 124 1522.5 c 128,-1,12
 190 1558 190 1558 190 1607 c 1,0,-1
590 0 m 1,13,-1
 307 0 l 1,14,-1
 797 1767 l 1,15,-1
 1081 1767 l 1,16,-1
 590 0 l 1,13,-1
1353 322 m 1,17,-1
 1353 151 l 1,18,-1
 1314 151 l 1,19,-1
 1314 -1 l 1,20,-1
 1107 -1 l 1,21,-1
 1107 151 l 1,22,-1
 804 151 l 1,23,-1
 804 300 l 1,24,-1
 991 941 l 1,25,-1
 1314 941 l 1,26,-1
 1314 322 l 1,27,-1
 1353 322 l 1,17,-1
997 322 m 1,28,-1
 1107 322 l 1,29,-1
 1107 727 l 1,30,-1
 997 322 l 1,28,-1
EndSplineSet
EndChar

StartChar: uni00B9
Encoding: 124 185 175
Width: 415
VWidth: 0
Flags: W
HStem: 1587 20G<190 349>
VStem: 139 210<656 1364> 190 159<1536.29 1607>
LayerCount: 2
Fore
SplineSet
190 1607 m 1,0,-1
 349 1607 l 1,1,-1
 349 656 l 1,2,-1
 139 656 l 1,3,-1
 139 1364 l 1,4,5
 80 1334 80 1334 16 1334 c 1,6,7
 18 1398 18 1398 18 1444 c 0,8,9
 18 1481 18 1481 16 1487 c 1,10,11
 58 1487 58 1487 124 1522.5 c 128,-1,12
 190 1558 190 1558 190 1607 c 1,0,-1
EndSplineSet
EndChar

StartChar: ordfeminine
Encoding: 110 170 176
Width: 1018
VWidth: 0
Flags: W
HStem: 389 222<309.633 416.605> 1386 221<361.939 466.07>
VStem: 61 290<614.366 947.262> 79 277<1241 1381.71> 475 287<403 527 613.087 1017 1166.56 1384.75>
LayerCount: 2
Fore
SplineSet
61 744 m 0,0,1
 61 902 61 902 108 982 c 0,2,3
 149 1050 149 1050 249 1097 c 0,4,5
 300 1121 300 1121 476 1181 c 0,6,7
 476 1182 476 1182 476 1183 c 0,8,9
 476 1209 476 1209 475.5 1224.5 c 128,-1,10
 475 1240 475 1240 474.5 1260 c 128,-1,11
 474 1280 474 1280 473.5 1292 c 128,-1,12
 473 1304 473 1304 471 1318 c 128,-1,13
 469 1332 469 1332 467.5 1339.5 c 128,-1,14
 466 1347 466 1347 462 1356.5 c 128,-1,15
 458 1366 458 1366 454 1370.5 c 128,-1,16
 450 1375 450 1375 444.5 1379 c 128,-1,17
 439 1383 439 1383 431.5 1384.5 c 128,-1,18
 424 1386 424 1386 415 1386 c 0,19,20
 356 1386 356 1386 356 1321 c 2,21,-1
 356 1241 l 1,22,-1
 80 1241 l 1,23,24
 79 1255 79 1255 79 1280 c 0,25,26
 79 1450 79 1450 159.5 1528.5 c 128,-1,27
 240 1607 240 1607 429 1607 c 0,28,29
 432 1607 432 1607 436 1607 c 0,30,31
 493 1607 493 1607 547 1591 c 0,32,33
 604 1574 604 1574 653.5 1540 c 128,-1,34
 703 1506 703 1506 732.5 1446.5 c 128,-1,35
 762 1387 762 1387 762 1310 c 2,36,-1
 762 403 l 1,37,-1
 480 403 l 1,38,-1
 480 527 l 1,39,40
 466 474 466 474 414.5 431.5 c 128,-1,41
 363 389 363 389 303 389 c 0,42,43
 260 389 260 389 227.5 396.5 c 128,-1,44
 195 404 195 404 162.5 427 c 128,-1,45
 130 450 130 450 109 488.5 c 128,-1,46
 88 527 88 527 74.5 591.5 c 128,-1,47
 61 656 61 656 61 744 c 0,0,1
351 855 m 2,48,-1
 351 716 l 2,49,50
 351 611 351 611 415 611 c 0,51,52
 432 611 432 611 445 620.5 c 128,-1,53
 458 630 458 630 464 645 c 128,-1,54
 470 660 470 660 472.5 674.5 c 128,-1,55
 475 689 475 689 475 704 c 2,56,-1
 475 1017 l 1,57,58
 402 988 402 988 376.5 948.5 c 128,-1,59
 351 909 351 909 351 855 c 2,48,-1
EndSplineSet
EndChar

StartChar: ordmasculine
Encoding: 125 186 177
Width: 1036
VWidth: 0
Flags: W
HStem: 387 220.5<380.081 474.919> 1384 221<371.007 482.965>
VStem: 72 289<629.694 1379.21> 494 290<630.178 1379.6>
LayerCount: 2
Fore
SplineSet
428 387 m 0,0,1
 72 387 72 387 72 757 c 2,2,-1
 72 1235 l 2,3,4
 72 1405 72 1405 168 1506 c 0,5,6
 262 1605 262 1605 425 1605 c 0,7,8
 426 1605 426 1605 428 1605 c 0,9,10
 594 1605 594 1605 689 1505.5 c 128,-1,11
 784 1406 784 1406 784 1235 c 2,12,-1
 784 757 l 2,13,14
 784 571 784 571 693.5 479 c 128,-1,15
 603 387 603 387 428 387 c 0,0,1
427.5 1384 m 128,-1,17
 361 1384 361 1384 361 1280 c 2,18,-1
 361 699 l 2,19,20
 361 651 361 651 379.5 629 c 128,-1,21
 398 607 398 607 427.5 607.5 c 128,-1,22
 457 608 457 608 475.5 629.5 c 128,-1,23
 494 651 494 651 494 699 c 2,24,-1
 494 1280 l 2,25,16
 494 1384 494 1384 427.5 1384 c 128,-1,17
EndSplineSet
EndChar

StartChar: oslash
Encoding: 184 248 178
Width: 1036
VWidth: 0
Flags: W
HStem: -18 278<448.947 582.968> 1239 279<451.025 581.532>
VStem: 72 364<683 1227.57> 604 365<288.367 895>
DStem2: 204 -145 304 -173 0.270239 0.962793<0.0657052 184.228 859.888 1109.4 1705.06 1886.95>
LayerCount: 2
Fore
SplineSet
520 -18 m 0,0,1
 430 -18 430 -18 353 2 c 1,2,-1
 304 -173 l 1,3,-1
 204 -145 l 1,4,-1
 256 42 l 1,5,6
 72 151 72 151 72 449 c 2,7,-1
 72 1051 l 2,8,9
 72 1266 72 1266 192 1392 c 128,-1,10
 312 1518 312 1518 520 1518 c 0,11,12
 594 1518 594 1518 664 1499 c 1,13,-1
 713 1672 l 1,14,-1
 814 1644 l 1,15,-1
 762 1459 l 1,16,17
 862 1402 862 1402 915.5 1297.5 c 128,-1,18
 969 1193 969 1193 969 1051 c 2,19,-1
 969 449 l 2,20,21
 969 214 969 214 854.5 98 c 128,-1,22
 740 -18 740 -18 520 -18 c 0,0,1
520 260 m 0,23,24
 557 260 557 260 580.5 287.5 c 128,-1,25
 604 315 604 315 604 375 c 2,26,-1
 604 895 l 1,27,-1
 443 321 l 1,28,29
 461 260 461 260 520 260 c 0,23,24
520 1239 m 0,30,31
 436 1239 436 1239 436 1108 c 2,32,-1
 436 683 l 1,33,-1
 582 1206 l 1,34,35
 561 1239 561 1239 520 1239 c 0,30,31
EndSplineSet
EndChar

StartChar: otilde
Encoding: 181 245 179
Width: 1036
VWidth: 0
Flags: W
HStem: -18 278<456.486 582.968> 1239 279<451.025 589.132> 1602 278<520.779 669.281> 1712 276<339.094 479>
VStem: 72 364<288.367 1227.57> 604 365<288.367 1227.57>
LayerCount: 2
Fore
SplineSet
520 -18 m 0,0,1
 72 -18 72 -18 72 449 c 2,2,-1
 72 1051 l 2,3,4
 72 1266 72 1266 192 1392 c 128,-1,5
 312 1518 312 1518 520 1518 c 0,6,7
 729 1518 729 1518 849 1392 c 128,-1,8
 969 1266 969 1266 969 1051 c 2,9,-1
 969 449 l 2,10,11
 969 214 969 214 854.5 98 c 128,-1,12
 740 -18 740 -18 520 -18 c 0,0,1
520 1239 m 128,-1,14
 436 1239 436 1239 436 1108 c 2,15,-1
 436 375 l 2,16,17
 436 315 436 315 459.5 287.5 c 128,-1,18
 483 260 483 260 520 260 c 128,-1,19
 557 260 557 260 580.5 287.5 c 128,-1,20
 604 315 604 315 604 375 c 2,21,-1
 604 1108 l 2,22,13
 604 1239 604 1239 520 1239 c 128,-1,14
381 1712 m 0,23,24
 349 1712 349 1712 323 1623 c 1,25,-1
 101 1729 l 1,26,27
 154 1859 154 1859 221.5 1923.5 c 128,-1,28
 289 1988 289 1988 381 1988 c 0,29,30
 419 1988 419 1988 463 1961 c 128,-1,31
 507 1934 507 1934 549 1907 c 128,-1,32
 591 1880 591 1880 624 1880 c 128,-1,33
 657 1880 657 1880 683 1959 c 1,34,-1
 915 1903 l 1,35,36
 860 1753 860 1753 789 1677.5 c 128,-1,37
 718 1602 718 1602 623 1602 c 0,38,39
 588 1602 588 1602 552 1619 c 128,-1,40
 516 1636 516 1636 491.5 1657 c 128,-1,41
 467 1678 467 1678 436.5 1695 c 128,-1,42
 406 1712 406 1712 381 1712 c 0,23,24
EndSplineSet
EndChar

StartChar: p
Encoding: 85 112 180
Width: 1038
VWidth: 0
Flags: W
HStem: -186 21G<76 440> -18 280<478.065 678.5> 1235 283<499.332 691> 1480 20G<76 440>
VStem: 76 364<-186 59 302.745 1222.66 1419 1500> 604 363<303.779 1226.77>
LayerCount: 2
Fore
SplineSet
440 -186 m 1,0,-1
 76 -186 l 1,1,-1
 76 1500 l 1,2,-1
 440 1500 l 1,3,-1
 440 1419 l 1,4,5
 521 1518 521 1518 655 1518 c 0,6,7
 727 1518 727 1518 782.5 1495 c 128,-1,8
 838 1472 838 1472 872.5 1433 c 128,-1,9
 907 1394 907 1394 928.5 1336 c 128,-1,10
 950 1278 950 1278 958.5 1215 c 128,-1,11
 967 1152 967 1152 967 1075 c 2,12,-1
 967 526 l 2,13,14
 967 524 967 524 967 521 c 0,15,16
 967 449 967 449 966 411.5 c 128,-1,17
 965 374 965 374 959 307 c 128,-1,18
 953 240 953 240 941.5 203 c 128,-1,19
 930 166 930 166 906.5 117.5 c 128,-1,20
 883 69 883 69 849.5 44 c 128,-1,21
 816 19 816 19 764 0.5 c 128,-1,22
 712 -18 712 -18 645 -18 c 0,23,24
 510 -18 510 -18 440 59 c 1,25,-1
 440 -186 l 1,0,-1
440 1079 m 2,26,27
 440 422 l 2,28,29
 440 341 440 341 459.5 301.5 c 128,-1,30
 479 262 479 262 526 262 c 0,31,32
 568 262 568 262 586 302.5 c 128,-1,33
 604 343 604 343 604 438 c 2,34,-1
 604 1075 l 2,35,36
 604 1098 604 1098 603.5 1108 c 128,-1,37
 603 1118 603 1118 601.5 1141.5 c 128,-1,38
 600 1165 600 1165 595 1177.5 c 128,-1,39
 590 1190 590 1190 581.5 1205.5 c 128,-1,40
 573 1221 573 1221 558.5 1228 c 128,-1,41
 544 1235 544 1235 524 1235 c 0,42,43
 440 1235 440 1235 440 1079 c 2,26,27
EndSplineSet
EndChar

StartChar: paragraph
Encoding: 121 182 181
Width: 981
VWidth: 0
Flags: W
HStem: 0 21G<357 603 697 936> 1573 20G<509.5 936>
VStem: 10 593<974.672 1286.12> 357 246<0 802.913> 697 239<0 1287>
LayerCount: 2
Fore
SplineSet
357 0 m 1,0,-1
 357 797 l 1,1,2
 256 808 256 808 187 842 c 128,-1,3
 118 876 118 876 80 931.5 c 128,-1,4
 42 987 42 987 26 1053.5 c 128,-1,5
 10 1120 10 1120 10 1210 c 0,6,7
 10 1296 10 1296 36 1361.5 c 128,-1,8
 62 1427 62 1427 108.5 1470.5 c 128,-1,9
 155 1514 155 1514 224.5 1541.5 c 128,-1,10
 294 1569 294 1569 376 1581 c 128,-1,11
 458 1593 458 1593 561 1593 c 2,12,-1
 936 1593 l 1,13,-1
 936 0 l 1,14,-1
 697 0 l 1,15,-1
 697 1287 l 1,16,-1
 603 1287 l 1,17,-1
 603 0 l 1,18,-1
 357 0 l 1,0,-1
EndSplineSet
EndChar

StartChar: parenleft
Encoding: 13 40 182
Width: 622
VWidth: 0
Flags: W
HStem: -17 21G<520.5 556>
VStem: 45 372<324.963 1418.96>
LayerCount: 2
Fore
SplineSet
556 268 m 1,0,1
 556 -17 l 1,2,3
 485 -14 485 -14 416 7 c 128,-1,4
 347 28 347 28 279 73.5 c 128,-1,5
 211 119 211 119 160 183.5 c 128,-1,6
 109 248 109 248 77 346 c 128,-1,7
 45 444 45 444 45 562 c 2,8,-1
 45 1151 l 2,9,10
 45 1434 45 1434 176 1578 c 128,-1,11
 307 1722 307 1722 556 1729 c 1,12,-1
 556 1462 l 1,13,14
 533 1458 533 1458 513.5 1450.5 c 128,-1,15
 494 1443 494 1443 480.5 1435 c 128,-1,16
 467 1427 467 1427 456.5 1412 c 128,-1,17
 446 1397 446 1397 439 1387.5 c 128,-1,18
 432 1378 432 1378 427.5 1357.5 c 128,-1,19
 423 1337 423 1337 421 1328 c 128,-1,20
 419 1319 419 1319 418 1295 c 128,-1,21
 417 1271 417 1271 417 1264.5 c 128,-1,22
 417 1258 417 1258 417 1233 c 2,23,-1
 417 450 l 2,24,25
 417 375 417 375 456.5 329.5 c 128,-1,26
 496 284 496 284 556 268 c 1,0,1
EndSplineSet
EndChar

StartChar: parenright
Encoding: 14 41 183
Width: 623
VWidth: 0
Flags: W
HStem: -17 21G<67 102.5>
VStem: 206 372<324.963 1418.96>
LayerCount: 2
Fore
SplineSet
67 268 m 1,0,1
 127 284 127 284 166.5 329.5 c 128,-1,2
 206 375 206 375 206 450 c 2,3,-1
 206 1233 l 2,4,5
 206 1258 206 1258 206 1264.5 c 128,-1,6
 206 1271 206 1271 205 1295 c 128,-1,7
 204 1319 204 1319 202 1328 c 128,-1,8
 200 1337 200 1337 195.5 1357.5 c 128,-1,9
 191 1378 191 1378 184 1387.5 c 128,-1,10
 177 1397 177 1397 166.5 1412 c 128,-1,11
 156 1427 156 1427 142.5 1435 c 128,-1,12
 129 1443 129 1443 109.5 1450.5 c 128,-1,13
 90 1458 90 1458 67 1462 c 1,14,-1
 67 1729 l 1,15,16
 316 1722 316 1722 447 1578 c 128,-1,17
 578 1434 578 1434 578 1151 c 2,18,-1
 578 562 l 2,19,20
 578 444 578 444 546 346 c 128,-1,21
 514 248 514 248 463 183.5 c 128,-1,22
 412 119 412 119 344 73.5 c 128,-1,23
 276 28 276 28 207 7 c 128,-1,24
 138 -14 138 -14 67 -17 c 1,25,-1
 67 268 l 1,0,1
EndSplineSet
EndChar

StartChar: partialdiff
Encoding: 259 8706 184
Width: 1087
VWidth: 0
Flags: W
HStem: -21 314<434.242 567.229> 794 292<409 624.523> 1415 266<335.637 733.5>
VStem: 42 380<308.632 738.896> 670 365<1051.26 1354.65>
LayerCount: 2
Fore
SplineSet
288 1376 m 1,0,1
 234 1607 l 1,2,3
 465 1681 465 1681 624 1681 c 0,4,5
 843 1681 843 1681 939 1548 c 128,-1,6
 1035 1415 1035 1415 1035 1159 c 0,7,8
 1035 1064 1035 1064 985 567 c 0,9,10
 977 489 977 489 967.5 429.5 c 128,-1,11
 958 370 958 370 939 306 c 128,-1,12
 920 242 920 242 894.5 196 c 128,-1,13
 869 150 869 150 829 107 c 128,-1,14
 789 64 789 64 737 37.5 c 128,-1,15
 685 11 685 11 612.5 -5 c 128,-1,16
 540 -21 540 -21 451 -21 c 0,17,18
 356 -21 356 -21 284 1 c 128,-1,19
 212 23 212 23 166.5 60.5 c 128,-1,20
 121 98 121 98 92.5 154.5 c 128,-1,21
 64 211 64 211 53 273.5 c 128,-1,22
 42 336 42 336 42 413 c 0,23,24
 42 482 42 482 49 550.5 c 128,-1,25
 56 619 56 619 71.5 698 c 128,-1,26
 87 777 87 777 118 844 c 128,-1,27
 149 911 149 911 192 966.5 c 128,-1,28
 235 1022 235 1022 301.5 1054 c 128,-1,29
 368 1086 368 1086 450 1086 c 0,30,31
 544 1086 544 1086 659 1047 c 1,32,33
 670 1116 670 1116 670 1164 c 0,34,35
 670 1301 670 1301 624.5 1358 c 128,-1,36
 579 1415 579 1415 512 1415 c 0,37,38
 448 1415 448 1415 385.5 1402.5 c 128,-1,39
 323 1390 323 1390 288 1376 c 1,0,1
596 419 m 2,40,-1
 627 759 l 1,41,42
 578 794 578 794 539 794 c 0,43,44
 460 794 460 794 445 645 c 2,45,-1
 428 475 l 2,46,47
 422 421 422 421 422 391 c 0,48,49
 422 345 422 345 437.5 319 c 128,-1,50
 453 293 453 293 495 293 c 0,51,52
 535 293 535 293 562.5 323.5 c 128,-1,53
 590 354 590 354 596 419 c 2,40,-1
EndSplineSet
EndChar

StartChar: percent
Encoding: 10 37 185
Width: 2164
VWidth: 0
Flags: W
HStem: -18 262<1658.93 1799.46> 0 21G<659 988.123> 528 262<361.926 502.464> 956 227<1648.19 1809.86> 1502 227<351.192 512.858> 1747 20G<1192.89 1523>
VStem: 41 298<816.818 1488.95> 525 299<816.818 1488.95> 659 323<0 323> 1199 324<1443 1767> 1338 298<270.818 942.951> 1822 299<270.818 942.951>
DStem2: 659 0 982 0 0.292755 0.956188<94.5598 1847.67>
LayerCount: 2
Fore
SplineSet
1729 -18 m 0,0,1
 1654 -18 1654 -18 1586.5 6 c 128,-1,2
 1519 30 1519 30 1462 78 c 128,-1,3
 1405 126 1405 126 1371.5 209.5 c 128,-1,4
 1338 293 1338 293 1338 402 c 2,5,-1
 1338 765 l 2,6,7
 1338 974 1338 974 1438 1078.5 c 128,-1,8
 1538 1183 1538 1183 1729 1183 c 128,-1,9
 1920 1183 1920 1183 2020.5 1078.5 c 128,-1,10
 2121 974 2121 974 2121 765 c 2,11,-1
 2121 402 l 2,12,13
 2121 293 2121 293 2087.5 209.5 c 128,-1,14
 2054 126 2054 126 1997 78 c 128,-1,15
 1940 30 1940 30 1872.5 6 c 128,-1,16
 1805 -18 1805 -18 1729 -18 c 0,0,1
1729 244 m 128,-1,18
 1763 244 1763 244 1792.5 270 c 128,-1,19
 1822 296 1822 296 1822 343 c 2,20,-1
 1822 829 l 2,21,22
 1822 852 1822 852 1821.5 864 c 128,-1,23
 1821 876 1821 876 1816 896.5 c 128,-1,24
 1811 917 1811 917 1802 928 c 128,-1,25
 1793 939 1793 939 1774.5 947.5 c 128,-1,26
 1756 956 1756 956 1729 956 c 0,27,28
 1703 956 1703 956 1684.5 947.5 c 128,-1,29
 1666 939 1666 939 1656.5 928 c 128,-1,30
 1647 917 1647 917 1642 897 c 128,-1,31
 1637 877 1637 877 1636.5 864 c 128,-1,32
 1636 851 1636 851 1636 829 c 2,33,-1
 1636 343 l 2,34,35
 1636 296 1636 296 1665.5 270 c 128,-1,17
 1695 244 1695 244 1729 244 c 128,-1,18
982 0 m 1,36,-1
 659 0 l 1,37,-1
 1199 1767 l 1,38,-1
 1523 1767 l 1,39,-1
 982 0 l 1,36,-1
432 528 m 0,40,41
 357 528 357 528 289.5 552 c 128,-1,42
 222 576 222 576 165 624 c 128,-1,43
 108 672 108 672 74.5 755.5 c 128,-1,44
 41 839 41 839 41 948 c 2,45,-1
 41 1311 l 2,46,47
 41 1520 41 1520 141 1624.5 c 128,-1,48
 241 1729 241 1729 432 1729 c 128,-1,49
 623 1729 623 1729 723.5 1624.5 c 128,-1,50
 824 1520 824 1520 824 1311 c 2,51,-1
 824 948 l 2,52,53
 824 839 824 839 790.5 755.5 c 128,-1,54
 757 672 757 672 700 624 c 128,-1,55
 643 576 643 576 575.5 552 c 128,-1,56
 508 528 508 528 432 528 c 0,40,41
432 790 m 128,-1,58
 466 790 466 790 495.5 816 c 128,-1,59
 525 842 525 842 525 889 c 2,60,-1
 525 1375 l 2,61,62
 525 1398 525 1398 524.5 1410 c 128,-1,63
 524 1422 524 1422 519 1442.5 c 128,-1,64
 514 1463 514 1463 505 1474 c 128,-1,65
 496 1485 496 1485 477.5 1493.5 c 128,-1,66
 459 1502 459 1502 432 1502 c 0,67,68
 406 1502 406 1502 387.5 1493.5 c 128,-1,69
 369 1485 369 1485 359.5 1474 c 128,-1,70
 350 1463 350 1463 345 1443 c 128,-1,71
 340 1423 340 1423 339.5 1410 c 128,-1,72
 339 1397 339 1397 339 1375 c 2,73,-1
 339 889 l 2,74,75
 339 842 339 842 368.5 816 c 128,-1,57
 398 790 398 790 432 790 c 128,-1,58
EndSplineSet
EndChar

StartChar: period
Encoding: 19 46 186
Width: 491
VWidth: 0
Flags: W
HStem: 1 298<67 425>
VStem: 67 358<1 299>
LayerCount: 2
Fore
SplineSet
67 1 m 1,0,-1
 67 299 l 1,1,-1
 425 299 l 1,2,-1
 425 1 l 1,3,-1
 67 1 l 1,0,-1
EndSplineSet
EndChar

StartChar: periodcentered
Encoding: 122 183 187
Width: 491
VWidth: 0
Flags: W
HStem: 723 298<67 425>
VStem: 67 358<723 1021>
LayerCount: 2
Fore
SplineSet
67 723 m 1,0,-1
 67 1021 l 1,1,-1
 425 1021 l 1,2,-1
 425 723 l 1,3,-1
 67 723 l 1,0,-1
EndSplineSet
EndChar

StartChar: perthousand
Encoding: 252 8240 188
Width: 3031
VWidth: 0
Flags: W
HStem: -18 262<1666.93 1807.46 2533.93 2674.46> 0 21G<667 996.123> 528 262<369.926 510.464> 956 227<1656.19 1817.86 2523.19 2684.86> 1502 227<359.192 520.858> 1747 20G<1200.89 1531>
VStem: 49 298<816.818 1488.95> 533 299<816.818 1488.95> 667 323<0 323> 1207 324<1443 1767> 1346 298<270.818 942.951> 1830 299<270.818 942.951> 2213 298<270.818 942.951> 2697 299<270.818 942.951>
DStem2: 667 0 990 0 0.292755 0.956188<94.5598 1847.67>
LayerCount: 2
Fore
SplineSet
2604 -18 m 0,0,1
 2529 -18 2529 -18 2461.5 6 c 128,-1,2
 2394 30 2394 30 2337 78 c 128,-1,3
 2280 126 2280 126 2246.5 209.5 c 128,-1,4
 2213 293 2213 293 2213 402 c 2,5,-1
 2213 765 l 2,6,7
 2213 974 2213 974 2313 1078.5 c 128,-1,8
 2413 1183 2413 1183 2604 1183 c 128,-1,9
 2795 1183 2795 1183 2895.5 1078.5 c 128,-1,10
 2996 974 2996 974 2996 765 c 2,11,-1
 2996 402 l 2,12,13
 2996 293 2996 293 2962.5 209.5 c 128,-1,14
 2929 126 2929 126 2872 78 c 128,-1,15
 2815 30 2815 30 2747.5 6 c 128,-1,16
 2680 -18 2680 -18 2604 -18 c 0,0,1
2604 244 m 128,-1,18
 2638 244 2638 244 2667.5 270 c 128,-1,19
 2697 296 2697 296 2697 343 c 2,20,-1
 2697 829 l 2,21,22
 2697 852 2697 852 2696.5 864 c 128,-1,23
 2696 876 2696 876 2691 896.5 c 128,-1,24
 2686 917 2686 917 2677 928 c 128,-1,25
 2668 939 2668 939 2649.5 947.5 c 128,-1,26
 2631 956 2631 956 2604 956 c 0,27,28
 2578 956 2578 956 2559.5 947.5 c 128,-1,29
 2541 939 2541 939 2531.5 928 c 128,-1,30
 2522 917 2522 917 2517 897 c 128,-1,31
 2512 877 2512 877 2511.5 864 c 128,-1,32
 2511 851 2511 851 2511 829 c 2,33,-1
 2511 343 l 2,34,35
 2511 296 2511 296 2540.5 270 c 128,-1,17
 2570 244 2570 244 2604 244 c 128,-1,18
990 0 m 1,36,-1
 667 0 l 1,37,-1
 1207 1767 l 1,38,-1
 1531 1767 l 1,39,-1
 990 0 l 1,36,-1
440 528 m 0,40,41
 365 528 365 528 297.5 552 c 128,-1,42
 230 576 230 576 173 624 c 128,-1,43
 116 672 116 672 82.5 755.5 c 128,-1,44
 49 839 49 839 49 948 c 2,45,-1
 49 1311 l 2,46,47
 49 1520 49 1520 149 1624.5 c 128,-1,48
 249 1729 249 1729 440 1729 c 128,-1,49
 631 1729 631 1729 731.5 1624.5 c 128,-1,50
 832 1520 832 1520 832 1311 c 2,51,-1
 832 948 l 2,52,53
 832 839 832 839 798.5 755.5 c 128,-1,54
 765 672 765 672 708 624 c 128,-1,55
 651 576 651 576 583.5 552 c 128,-1,56
 516 528 516 528 440 528 c 0,40,41
440 790 m 128,-1,58
 474 790 474 790 503.5 816 c 128,-1,59
 533 842 533 842 533 889 c 2,60,-1
 533 1375 l 2,61,62
 533 1398 533 1398 532.5 1410 c 128,-1,63
 532 1422 532 1422 527 1442.5 c 128,-1,64
 522 1463 522 1463 513 1474 c 128,-1,65
 504 1485 504 1485 485.5 1493.5 c 128,-1,66
 467 1502 467 1502 440 1502 c 0,67,68
 414 1502 414 1502 395.5 1493.5 c 128,-1,69
 377 1485 377 1485 367.5 1474 c 128,-1,70
 358 1463 358 1463 353 1443 c 128,-1,71
 348 1423 348 1423 347.5 1410 c 128,-1,72
 347 1397 347 1397 347 1375 c 2,73,-1
 347 889 l 2,74,75
 347 842 347 842 376.5 816 c 128,-1,57
 406 790 406 790 440 790 c 128,-1,58
1737 -18 m 0,76,77
 1662 -18 1662 -18 1594.5 6 c 128,-1,78
 1527 30 1527 30 1470 78 c 128,-1,79
 1413 126 1413 126 1379.5 209.5 c 128,-1,80
 1346 293 1346 293 1346 402 c 2,81,-1
 1346 765 l 2,82,83
 1346 974 1346 974 1446 1078.5 c 128,-1,84
 1546 1183 1546 1183 1737 1183 c 128,-1,85
 1928 1183 1928 1183 2028.5 1078.5 c 128,-1,86
 2129 974 2129 974 2129 765 c 2,87,-1
 2129 402 l 2,88,89
 2129 293 2129 293 2095.5 209.5 c 128,-1,90
 2062 126 2062 126 2005 78 c 128,-1,91
 1948 30 1948 30 1880.5 6 c 128,-1,92
 1813 -18 1813 -18 1737 -18 c 0,76,77
1737 244 m 128,-1,94
 1771 244 1771 244 1800.5 270 c 128,-1,95
 1830 296 1830 296 1830 343 c 2,96,-1
 1830 829 l 2,97,98
 1830 852 1830 852 1829.5 864 c 128,-1,99
 1829 876 1829 876 1824 896.5 c 128,-1,100
 1819 917 1819 917 1810 928 c 128,-1,101
 1801 939 1801 939 1782.5 947.5 c 128,-1,102
 1764 956 1764 956 1737 956 c 0,103,104
 1711 956 1711 956 1692.5 947.5 c 128,-1,105
 1674 939 1674 939 1664.5 928 c 128,-1,106
 1655 917 1655 917 1650 897 c 128,-1,107
 1645 877 1645 877 1644.5 864 c 128,-1,108
 1644 851 1644 851 1644 829 c 2,109,-1
 1644 343 l 2,110,111
 1644 296 1644 296 1673.5 270 c 128,-1,93
 1703 244 1703 244 1737 244 c 128,-1,94
EndSplineSet
EndChar

StartChar: pi
Encoding: 239 960 189
Width: 514
VWidth: 0
Flags: W
HStem: 0 21G<78 436> 1480 20G<78 436>
VStem: 78 358
LayerCount: 2
Fore
SplineSet
78 0 m 1,0,-1
 78 1500 l 1,1,-1
 436 1500 l 1,2,-1
 436 0 l 1,3,-1
 78 0 l 1,0,-1
78 0 m 1,4,-1
 436 0 l 1,5,-1
 436 1500 l 1,6,-1
 78 1500 l 1,7,-1
 78 0 l 1,4,-1
EndSplineSet
EndChar

StartChar: plus
Encoding: 16 43 190
Width: 700
VWidth: 0
Flags: W
HStem: 509 232<26 234 466 674>
VStem: 234 232<301 509 741 949>
LayerCount: 2
Fore
SplineSet
26 509 m 1,0,-1
 26 741 l 1,1,-1
 234 741 l 1,2,-1
 234 949 l 1,3,-1
 466 949 l 1,4,-1
 466 741 l 1,5,-1
 674 741 l 1,6,-1
 674 509 l 1,7,-1
 466 509 l 1,8,-1
 466 301 l 1,9,-1
 234 301 l 1,10,-1
 234 509 l 1,11,-1
 26 509 l 1,0,-1
EndSplineSet
EndChar

StartChar: plusminus
Encoding: 116 177 191
Width: 700
VWidth: 0
Flags: W
HStem: -1 232<67 583> 622 232<26 234 466 674>
VStem: 234 232<414 622 854 1062>
LayerCount: 2
Fore
SplineSet
26 622 m 1,0,-1
 26 854 l 1,1,-1
 234 854 l 1,2,-1
 234 1062 l 1,3,-1
 466 1062 l 1,4,-1
 466 854 l 1,5,-1
 674 854 l 1,6,-1
 674 622 l 1,7,-1
 466 622 l 1,8,-1
 466 414 l 1,9,-1
 234 414 l 1,10,-1
 234 622 l 1,11,-1
 26 622 l 1,0,-1
67 -1 m 1,12,-1
 67 231 l 1,13,-1
 583 231 l 1,14,-1
 583 -1 l 1,15,-1
 67 -1 l 1,12,-1
EndSplineSet
EndChar

StartChar: product
Encoding: 261 8719 192
Width: 1020
VWidth: 0
Flags: W
HStem: 0 21G<74 424 590 940> 1292 301<424 590>
VStem: 74 350<0 1292> 590 350<0 1292>
LayerCount: 2
Fore
SplineSet
940 1593 m 1,0,-1
 940 0 l 1,1,-1
 590 0 l 1,2,-1
 590 1292 l 1,3,-1
 424 1292 l 1,4,-1
 424 0 l 1,5,-1
 74 0 l 1,6,-1
 74 1593 l 1,7,-1
 940 1593 l 1,0,-1
EndSplineSet
EndChar

StartChar: q
Encoding: 86 113 193
Width: 1038
VWidth: 0
Flags: W
HStem: -186 21G<604 969> -18 280<365.5 539.419> 1235 283<353 544.889> 1480 20G<604 969>
VStem: 78 362<303.779 1226.77> 604 365<-186 90 302.745 1222.66 1419 1500>
LayerCount: 2
Fore
SplineSet
604 -186 m 1,0,-1
 604 90 l 1,1,2
 565 37 565 37 510.5 9.5 c 128,-1,3
 456 -18 456 -18 399 -18 c 0,4,5
 332 -18 332 -18 280 -2 c 128,-1,6
 228 14 228 14 194.5 36.5 c 128,-1,7
 161 59 161 59 138 102.5 c 128,-1,8
 115 146 115 146 103.5 180 c 128,-1,9
 92 214 92 214 86 276.5 c 128,-1,10
 80 339 80 339 79 375.5 c 128,-1,11
 78 412 78 412 78 482 c 0,12,13
 78 485 78 485 78 487 c 2,14,-1
 78 1075 l 2,15,16
 78 1152 78 1152 86.5 1215 c 128,-1,17
 95 1278 95 1278 116.5 1336 c 128,-1,18
 138 1394 138 1394 172.5 1433 c 128,-1,19
 207 1472 207 1472 262 1495 c 128,-1,20
 317 1518 317 1518 389 1518 c 0,21,22
 524 1518 524 1518 604 1419 c 1,23,-1
 604 1500 l 1,24,-1
 969 1500 l 1,25,-1
 969 -186 l 1,26,-1
 604 -186 l 1,0,-1
604 1079 m 2,27,28
 604 1235 604 1235 520 1235 c 0,29,30
 500 1235 500 1235 485.5 1228 c 128,-1,31
 471 1221 471 1221 462.5 1205.5 c 128,-1,32
 454 1190 454 1190 449 1177.5 c 128,-1,33
 444 1165 444 1165 442.5 1141.5 c 128,-1,34
 441 1118 441 1118 440.5 1108 c 128,-1,35
 440 1098 440 1098 440 1075 c 2,36,-1
 440 438 l 2,37,38
 440 343 440 343 458 302.5 c 128,-1,39
 476 262 476 262 518 262 c 0,40,41
 566 262 566 262 585 301.5 c 128,-1,42
 604 341 604 341 604 422 c 2,43,-1
 604 1079 l 2,27,28
EndSplineSet
EndChar

StartChar: question
Encoding: 36 63 194
Width: 1007
VWidth: 0
Flags: W
HStem: 1 298<120 478> 409 416<131 463.131> 1371 319<440.754 584.487>
VStem: 52 366<1039 1352.47> 120 358<1 299 409 579> 605 377<941.919 1326.13>
LayerCount: 2
Fore
SplineSet
512 1690 m 0,0,1
 598 1690 598 1690 667.5 1674 c 128,-1,2
 737 1658 737 1658 785.5 1631 c 128,-1,3
 834 1604 834 1604 870 1562.5 c 128,-1,4
 906 1521 906 1521 927 1476 c 128,-1,5
 948 1431 948 1431 960.5 1372.5 c 128,-1,6
 973 1314 973 1314 977.5 1260 c 128,-1,7
 982 1206 982 1206 982 1140 c 0,8,9
 982 1019 982 1019 953 920 c 128,-1,10
 924 821 924 821 864 743 c 128,-1,11
 804 665 804 665 702.5 622 c 128,-1,12
 601 579 601 579 464 579 c 1,13,-1
 464 409 l 1,14,-1
 131 409 l 1,15,-1
 131 825 l 1,16,17
 214 825 214 825 277 829 c 128,-1,18
 340 833 340 833 389.5 844 c 128,-1,19
 439 855 439 855 473 868.5 c 128,-1,20
 507 882 507 882 531.5 907 c 128,-1,21
 556 932 556 932 570 957.5 c 128,-1,22
 584 983 584 983 592 1025 c 128,-1,23
 600 1067 600 1067 602.5 1107 c 128,-1,24
 605 1147 605 1147 605 1208 c 0,25,26
 605 1284 605 1284 585.5 1327.5 c 128,-1,27
 566 1371 566 1371 512 1371 c 0,28,29
 498 1371 498 1371 488 1369.5 c 128,-1,30
 478 1368 478 1368 463.5 1357.5 c 128,-1,31
 449 1347 449 1347 440 1328.5 c 128,-1,32
 431 1310 431 1310 424.5 1273.5 c 128,-1,33
 418 1237 418 1237 418 1185 c 2,34,-1
 418 1039 l 1,35,-1
 52 1039 l 1,36,-1
 52 1293 l 2,37,38
 52 1491 52 1491 177.5 1590.5 c 128,-1,39
 303 1690 303 1690 512 1690 c 0,0,1
120 1 m 1,40,-1
 120 299 l 1,41,-1
 478 299 l 1,42,-1
 478 1 l 1,43,-1
 120 1 l 1,40,-1
EndSplineSet
EndChar

StartChar: questiondown
Encoding: 130 191 195
Width: 1007
VWidth: 0
Flags: W
HStem: -17 319<449.513 593.246> 848 416<570.869 903> 1374 298<556 914>
VStem: 52 377<346.867 731.081> 570 333<1094 1264 1374 1672> 616 366<320.53 634>
LayerCount: 2
Fore
SplineSet
522 -17 m 0,0,1
 436 -17 436 -17 366.5 -1 c 128,-1,2
 297 15 297 15 248.5 42 c 128,-1,3
 200 69 200 69 164 110.5 c 128,-1,4
 128 152 128 152 107 197 c 128,-1,5
 86 242 86 242 73.5 300.5 c 128,-1,6
 61 359 61 359 56.5 413 c 128,-1,7
 52 467 52 467 52 533 c 0,8,9
 52 654 52 654 81 753 c 128,-1,10
 110 852 110 852 170 930 c 128,-1,11
 230 1008 230 1008 331.5 1051 c 128,-1,12
 433 1094 433 1094 570 1094 c 1,13,-1
 570 1264 l 1,14,-1
 903 1264 l 1,15,-1
 903 848 l 1,16,17
 820 848 820 848 757 844 c 128,-1,18
 694 840 694 840 644.5 829 c 128,-1,19
 595 818 595 818 561 804.5 c 128,-1,20
 527 791 527 791 502.5 766 c 128,-1,21
 478 741 478 741 464 715.5 c 128,-1,22
 450 690 450 690 442 648 c 128,-1,23
 434 606 434 606 431.5 566 c 128,-1,24
 429 526 429 526 429 465 c 0,25,26
 429 389 429 389 448.5 345.5 c 128,-1,27
 468 302 468 302 522 302 c 0,28,29
 536 302 536 302 546 303.5 c 128,-1,30
 556 305 556 305 570.5 315.5 c 128,-1,31
 585 326 585 326 594 344.5 c 128,-1,32
 603 363 603 363 609.5 399.5 c 128,-1,33
 616 436 616 436 616 488 c 2,34,-1
 616 634 l 1,35,-1
 982 634 l 1,36,-1
 982 380 l 2,37,38
 982 182 982 182 856.5 82.5 c 128,-1,39
 731 -17 731 -17 522 -17 c 0,0,1
914 1672 m 1,40,-1
 914 1374 l 1,41,-1
 556 1374 l 1,42,-1
 556 1672 l 1,43,-1
 914 1672 l 1,40,-1
EndSplineSet
EndChar

StartChar: quotedbl
Encoding: 7 34 196
Width: 901
VWidth: 0
Flags: W
HStem: 957 636<153 329 593 769>
VStem: 153 176<957 1048.18> 593 176<957 1048.18>
LayerCount: 2
Fore
SplineSet
329 957 m 1,0,-1
 153 957 l 1,1,-1
 53 1593 l 1,2,-1
 405 1593 l 1,3,-1
 329 957 l 1,0,-1
769 957 m 1,4,-1
 593 957 l 1,5,-1
 493 1593 l 1,6,-1
 845 1593 l 1,7,-1
 769 957 l 1,4,-1
EndSplineSet
EndChar

StartChar: quotedblbase
Encoding: 247 8222 197
Width: 967
VWidth: 0
Flags: W
HStem: 0 298<60 187 533 660>
VStem: 60 374<9 298> 533 374<9 298>
LayerCount: 2
Fore
SplineSet
533 0 m 1,0,-1
 533 298 l 1,1,-1
 907 298 l 1,2,-1
 907 9 l 1,3,-1
 805 -236 l 1,4,-1
 594 -236 l 1,5,-1
 660 0 l 1,6,-1
 533 0 l 1,0,-1
60 0 m 1,7,-1
 60 298 l 1,8,-1
 434 298 l 1,9,-1
 434 9 l 1,10,-1
 332 -236 l 1,11,-1
 121 -236 l 1,12,-1
 187 0 l 1,13,-1
 60 0 l 1,7,-1
EndSplineSet
EndChar

StartChar: quotedblleft
Encoding: 245 8220 198
Width: 964
VWidth: 0
Flags: W
HStem: 1058 298<308 435 777 904> 1572 20G<154.673 374 623.673 843>
VStem: 61 374<1058 1347> 530 374<1058 1347>
LayerCount: 2
Fore
SplineSet
904 1356 m 1,0,-1
 904 1058 l 1,1,-1
 530 1058 l 1,2,-1
 530 1347 l 1,3,-1
 632 1592 l 1,4,-1
 843 1592 l 1,5,-1
 777 1356 l 1,6,-1
 904 1356 l 1,0,-1
435 1356 m 1,7,-1
 435 1058 l 1,8,-1
 61 1058 l 1,9,-1
 61 1347 l 1,10,-1
 163 1592 l 1,11,-1
 374 1592 l 1,12,-1
 308 1356 l 1,13,-1
 435 1356 l 1,7,-1
EndSplineSet
EndChar

StartChar: quotedblright
Encoding: 246 8221 199
Width: 967
VWidth: 0
Flags: W
HStem: 1294 298<60 187 533 660>
VStem: 60 374<1303 1592> 533 374<1303 1592>
LayerCount: 2
Fore
SplineSet
533 1294 m 1,0,-1
 533 1592 l 1,1,-1
 907 1592 l 1,2,-1
 907 1303 l 1,3,-1
 805 1058 l 1,4,-1
 594 1058 l 1,5,-1
 660 1294 l 1,6,-1
 533 1294 l 1,0,-1
60 1294 m 1,7,-1
 60 1592 l 1,8,-1
 434 1592 l 1,9,-1
 434 1303 l 1,10,-1
 332 1058 l 1,11,-1
 121 1058 l 1,12,-1
 187 1294 l 1,13,-1
 60 1294 l 1,7,-1
EndSplineSet
EndChar

StartChar: quoteleft
Encoding: 242 8216 200
Width: 479
VWidth: 0
Flags: W
HStem: 1058 534<155 300>
VStem: 53 374<1058 1347>
LayerCount: 2
Fore
SplineSet
427 1356 m 1,0,-1
 427 1058 l 1,1,-1
 53 1058 l 1,2,-1
 53 1347 l 1,3,-1
 155 1592 l 1,4,-1
 366 1592 l 1,5,-1
 300 1356 l 1,6,-1
 427 1356 l 1,0,-1
EndSplineSet
EndChar

StartChar: quoteright
Encoding: 243 8217 201
Width: 479
VWidth: 0
Flags: W
HStem: 1058 534<-195 -50>
VStem: 52 374<1303 1592>
LayerCount: 2
Fore
SplineSet
52 1294 m 1,0,-1
 52 1592 l 1,1,-1
 426 1592 l 1,2,-1
 426 1303 l 1,3,-1
 324 1058 l 1,4,-1
 113 1058 l 1,5,-1
 179 1294 l 1,6,-1
 52 1294 l 1,0,-1
EndSplineSet
EndChar

StartChar: quotesinglbase
Encoding: 244 8218 202
Width: 479
VWidth: 0
Flags: W
HStem: -236 534<-195 -50>
VStem: 52 374<9 298>
LayerCount: 2
Fore
SplineSet
52 0 m 1,0,-1
 52 298 l 1,1,-1
 426 298 l 1,2,-1
 426 9 l 1,3,-1
 324 -236 l 1,4,-1
 113 -236 l 1,5,-1
 179 0 l 1,6,-1
 52 0 l 1,0,-1
EndSplineSet
EndChar

StartChar: quotesingle
Encoding: 12 39 203
Width: 434
VWidth: 0
Flags: W
HStem: 957 636<138 314>
VStem: 138 176<957 1048.18>
LayerCount: 2
Fore
SplineSet
314 957 m 1,0,-1
 138 957 l 1,1,-1
 38 1593 l 1,2,-1
 390 1593 l 1,3,-1
 314 957 l 1,0,-1
EndSplineSet
EndChar

